<mxfile host="Electron" agent="Mozilla/5.0 (X11; Linux x86_64) AppleWebKit/537.36 (KHTML, like Gecko) draw.io/24.7.17 Chrome/128.0.6613.36 Electron/32.0.1 Safari/537.36" version="24.7.17">
  <diagram name="Page-1" id="axPGArdgI468c-lXK3m9">
    <mxGraphModel dx="1692" dy="965" grid="1" gridSize="10" guides="1" tooltips="1" connect="1" arrows="1" fold="1" page="1" pageScale="1" pageWidth="850" pageHeight="1100" math="1" shadow="0">
      <root>
        <mxCell id="0" />
        <mxCell id="1" parent="0" />
        <mxCell id="mArjfMj6Zx0obR91mqi0-14" value="" style="group" vertex="1" connectable="0" parent="1">
          <mxGeometry x="10" y="140" width="1200" height="730" as="geometry" />
        </mxCell>
        <mxCell id="mArjfMj6Zx0obR91mqi0-1" value="" style="shape=image;verticalLabelPosition=bottom;labelBackgroundColor=default;verticalAlign=top;aspect=fixed;imageAspect=0;image=data:image/png,iVBORw0KGgoAAAANSUhEUgAABY8AAANJCAYAAABEbcPlAAAgAElEQVR4Xuy9CdxVU/v/f1EhokRlikiRqdBj9kVRpgbjgwZlzpChaBRpkMpYJFJmGRJJhjJlHuLpiQxlCJmalCKl+v8+6/vffc859xn2Ofc+9zn77Pf1evWK+157De+19t7tz7rWdW2w7v+ZYRCAAAQgAAEIQAACEIAABCAAAQhAAAIQgAAEIACBGAIbIB6zHiAAAQhAAAIQgAAEIAABCEAAAhCAAAQgAAEIQCCRAOIxawICEIAABCAAAQhAAAIQgAAEIAABCEAAAhCAAATKEEA8ZlFAAAIQgAAEIAABCEAAAhCAAAQgAAEIQAACEIAA4jFrAAIQgAAEIAABCEAAAhCAAAQgAAEIQAACEIAABDITwPM4MyNKQAACEIAABCAAAQhAAAIQgAAEIAABCEAAAhCIHAHE48hNOQOGAAQgAAEIQAACEIAABCAAAQhAAAIQgAAEIJCZAOJxZkaUgAAEIAABCEAAAhCAAAQgAAEIQAACEIAABCAQOQKIx5GbcgYMAQhAAAIQgAAEIAABCEAAAhCAAAQgAAEIQCAzAcTjzIwoAQEIQAACEIAABCAAAQhAAAIQgAAEIAABCEAgcgQQjyM35QwYAhCAAAQgAAEIQAACEIAABCAAAQhAAAIQgEBmAojHmRlRAgIQgAAEIAABCEAAAhCAAAQgAAEIQAACEIBA5AggHkduyhkwBCAAAQhAAAIQgAAEIAABCEAAAhCAAAQgAIHMBBCPMzOiBAQgAAEIQAACEIAABCAAAQhAAAIQgAAEIACByBFAPI7clDNgCEAAAhCAAAQgAAEIQAACEIAABCAAAQhAAAKZCSAeZ2ZECQhAAAIQgAAEIAABCEAAAhCAAAQgAAEIQAACkSOAeBy5KWfAEIAABCAAAQhAAAIQgAAEIAABCEAAAhCAAAQyE0A8zsyIEhCAAAQgAAEIQAACEIAABCAAAQhAAAIQgAAEIkcA8ThyU86AIQABCEAAAhCAAAQgAAEIQAACEIAABCAAAQhkJoB4nJkRJSAAAQhAAAIQgAAEIAABCEAAAhCAAAQgAAEIRI4A4nHkppwBQwACEIAABCAAAQhAAAIQgAAEIAABCEAAAhDITADxODMjSkAAAhCAAAQgAAEIQAACEIAABCAAAQhAAAIQiBwBxOPITTkDhgAEIAABCEAAAhCAAAQgAAEIQAACEIAABCCQmQDicWZGlIAABCAAAQhAAAIQgAAEIAABCEAAAhCAAAQgEDkCiMeRm3IGDAEIQAACEIAABCAAAQhAAAIQgAAEIAABCEAgMwHE48yMKAEBCEAAAhCAAAQgAAEIQAACEIAABCAAAQhAIHIEEI8jN+UMGAIQgAAEIAABCEAAAhCAAAQgAAEIQAACEIBAZgKIx5kZUQICEIAABCAAAQhAAAIQgAAEIAABCEAAAhCAQOQIIB5HbsoZMAQgAAEIQAACEIAABCAAAQhAAAIQgAAEIACBzAQQjzMzogQEIAABCEAAAhCAAAQgAAEIQAACEIAABCAAgcgRQDyO3JQzYAhAAAIQgAAEIAABCEAAAhCAAAQgAAEIQAACmQkgHmdmRAkIQAACEIAABCAAgRASWLBggX311Vf29ddf2y+//GKbb765NW3a1Pbdd19bu3atbbTRRiEcVWl3eeXKlW5uNt1009IeKKODAAQgAAEIQAACISGAeBySiaKbEIAABMJIYMqUKXbvvfdm1XWJObVq1bLddtvNmjdvbnvssUdW11MYAkEReOONN+y2224rU12lSpXs/PPPt5YtW5arqZtvvtneeuutpHU89thjtskmm5Sr/ihf/N5775n4vvbaa9auXTvba6+9bKeddjIJk6NHj7bp06fb33//bX/99ZdpPrHCEejevbu9+eabJqF/4cKF9scff9iQIUOsR48ehesULWck0LFjRzdX2ViNGjVs2223tUMOOcSOOuoo22yzzbK5nLIQgAAEIAABCBSIAOJxgcDTLAQgAIEoEPjss8/s9ddft+XLlzsR56WXXlo/7NatW9vRRx8d5/m3evVq++2335yX4PPPP29Lly41lRs6dKgTk6Nu4vfJJ5/YmWee6YQwLL8E5syZY1OnTnXrV2LkxIkTndixYsUKJ0bOmjUr5w589913dvDBBztvWFm1atWsc+fOVq9ePedxed5551nlypXj6l+yZIndfffd1qhRI2vVqhWiZwr6Eh31zOjUqZMTkGvWrLm+5D///GPbbLONLVq0yP1M/494nPMyDuTCCRMmOO/wyZMn2zvvvOPqRDwOBG1eK7n//vtNz6SffvrJHnjgASf+y7bccku76qqrbKuttrINN9zQ/WzdunW2bNky+/nnn92G2UcffeQ2ifv37+824hKfdYkdnz17tj311FN27LHH2gEHHJDXcRVb5Tz3i21G6A8EIACBaBJAPI7mvDNqCEAAAhVOQMeQa9euvV60kVjQoEGDlP1YtWqVDR482AYMGOA+QLt16+YEhaiaRJVDDz3UDV9i2Lx585zgiFUcAa3Xww47zCSayD788EMXAiEXu+666+zPP/+04cOHu8uvvPJKu+WWW9JWJU/nl19+2ZXRvdGrV69cmi7pa/r16+eeGdqY0maLJ155g5bnscRjbUzJEI+LZzloU0aeqZoTxOPimRc/Pbn99tvtiiuucEXPOusse+SRR9Jepk3QDh06mDaYd999d3vyySfdhlwy0+adNksXL17sfv322287z+WoGM/9qMw044QABCBQ3AQQj4t7fugdBCAAgZIisOuuuzqvYpk8L/14zw4cONCuvfZad80111xjN910U0kx8TuYMWPGOA8tmQSxH3/80R3/xSqOwEEHHeTWn45by5OuS5cudtddd2XdAW2kSBC45JJL7KSTTnLXS/Ds27dv2rp22GEHmz9/vitz0UUX2ahRo7Juu5Qv+Pzzz9eHuZHXuJ43yUze25o7GeJxca0IbTDKgxXxuLjmJVNvHn74YScGy+TxP27cuEyXuFNGTZo0cd7I8kLWZlyyfxPMnTs3bqN5/Pjx9u9//ztj/aVSgOd+qcwk44AABCAQbgKIx+GeP3oPAQhAIFQE5LmpD0GZX/FYMRXr1KnjYpNusMEGzutIx/2jZr///rsTLf/zn//YBRdc4OK2YhVLQOtOwoVCSkybNs15SUr4yDY2sUJhfPzxx87jrm3btm4Q2iTp06dP2gHdc889dumll1r16tXt1Vdftb333rtiARR5axL2e/bs6YQoCVOpTF6R7du3d79GPC6uSdWGmEK5IB4X17xk6k3sPeVXPFad2hjWs0+mkBQvvPBC0qZUp0JjSGx+9913s37mZup/Mf+e534xzw59gwAEIBAdAojH0ZlrRgoBCECg4ARyEY/VaXlnPvPMM67/Z5xxhimZWFRNoQ4UExereAKeeKwQIjqaLZNo4v233x5JuBw2bJh98MEHWYnHql9hF5RUMjEcg9+2S7mchPU777zThayQQJ/KEI+LdxUgHhfv3KTrWa7i8cyZM50g7NkXX3yRMr+BwppENcEez/1w3hf0GgIQgEApEUA8LqXZZCwQgAAEipxAruKxYikqpqKsbt269v333xf5SOleKRLwxGN5wm+33XYuWVQmoTKRg65R+BElf3r22WezFo9LkWtQY1IoCoWkOPHEE+25555DPA4KbAXWg3hcgbADbCpX8VgnapRgz7P77rvPzjnnnAB7RlUQgAAEIAABCARBAPE4CIrUAQEIQAACvgjkKh736NHDhg4d6trYYost1ie78tUohSAQEAFPPFZcTs/LVaFUvvnmG6tXr56vVuQZK+FZ3vSIx76Q+S6EeOwbVdEWRDwu2qlJ27FcxWOFo4o9SaOkoUoeikEAAhCAAAQgUFwEEI+Laz7oDQQgAIGSJpCreKzkYF6M3/32289mzJhR0pwYXHESiBWPFbN4//33dx29/vrr7brrrvPVacX1lFdslSpVEI99EfNfCPHYP6tiLYl4XKwzk75fuYrHim8dm/h10qRJ1qpVq3BCoNcQgAAEIACBEiaAeFzCk8vQIAABCBQbgVzF4z322MM+//xzNxzFiu3evXvSoS1fvtyefvppF+90/vz5Vq1aNZeUTJnZPaEv9kKV+eqrr2zBggXr/+yzzz528sknu2JLly51sZY/++wzF2d21113tSOPPDKll+natWvto48+csm6Yuu84YYbrGrVqq5OZZR/+eWXbeHChS4ER6NGjaxFixZWqVKlpGNatGiRaz+2vtq1a9uFF14YV16JBRU/MrbcxhtvvJ6VEoO9+OKL9v7777vkg/Xr17emTZvav/71L9/LRPGWFe/3k08+MfVrr732cjyUDV42ZcoUFzbg77//tl9//dWGDx/uwjqUisWKxxqTYnWKuTyRv/32W5fQMZ2p7EMPPeS4yPx6HitJohLzxc6tNlT8eDu/9957NmHCBPvyyy/dvOsePPDAA12cZgnYsab6Z8+eHbd+tT5PP/10V0xrW8L3qlWr7LjjjrP/+Z//STlcrQElv9KamDdvnmOzyy67WOvWre2YY45Jud6zXSu6hyVAyQYPHuzu/8MOO8xuu+22lFWpT/369XO/95swT4k6VfecOXNMsVe15rW2lfBw8803j2tLdX766adWuXJlx9i7t9esWePY7bzzzu53iu+q3+uPF8N69erVpufInnvuub5OzYl+5tW1bt06d481bNjQPZeysVR9U5363dZbb+0SDsaaxiLz2ldf1H5swkbFZFVCM22qfP3117bjjju6MZx22mnuv/1aKvE4X/32+vXjjz+6WPqKQ677QAz0fNR9ouc0lp5AruLxE0884d7Pspo1a9pPP/1kem/JtMa0nmKfewr7o8SYsabnmt5JKue9e3U/KXmm7IcffnCJTvWc0L8DlDchVcx4PZNff/119+8NJSbVGm7ZsqV7ZqazfLx/y/PcZ71CAAIQgAAEgiaAeBw0UeqDAAQgAIGUBHIRj/VRKG9jmYRgeR0nSxgnYeeSSy5xoo5CXBx00EFOwBw3bpzdeOON1rt3b+cdGivwSUBSWX2keqb4yrfeeqsToIcMGeK8oCQiSBxUWQk+EoN79epVZpwSlSR+6G8JLJ4prqMEpMsvv9wJMBLP9KEscU1iuMRxCVoSIRPt/vvvt4svvtgJf54ly0ovQVqhECTweiZxU/wk5qgOiZ+HHnqoq2vs2LFOvDzllFPs4Ycfzpi9Xn2VYKnxKWSD/n711Vdt5MiRdsEFFzihXR/b+mCXaK84lmrvlVdeKZk7IlE8vuOOO9ycyqZNm2bNmzdPO1aVFStPGPQrHkskVGgMiY+eSRROJ2h89913br7eeustt4FwwgknONFSP3/++efdpsjNN99szZo1W1+n5vLqq692Sfk8Ux2jRo1ya18bH507d3b3koRwrc2zzz67zJi1VnQvanNBbWuDQuKfBFjdU9p40EmCQw45pNxrQ/1S/2SqVyKOxKdYb8bERrTJpM0bWSbxWPe7NmpUtzzMNcd6/khQVbvylNSYYuO0SuDSHKsNicGxJqFZ96rESYnvErvUB8/0fJJgrw0jz7ShNWvWrLh6lDhMffM2bvyCVN80L4sXL46bZ12vDS6t6fPOOy+uutjntveL2PBBeg706dPHrQXFm9bmlvjo+fraa6+59aJ14ImC6fqaSjzOR7/VDz2nBw4c6N4R2gjo27ev2yTUZsuAAQPcXD344IPWpk0bv4gjWS5X8VhcdQ/J9E7S88UzbdTo3a/3qTY3ZJtsskncu1A/k8iqDSO9+7xy+reCBGCtzf79+7v3n96xmku1obZiTXkUOnXq5J5J2jDQGtDP7rnnHlMojXbt2rlnoOLdJ7N8vH9zee5HcvExaAhAAAIQqBACiMcVgplGIAABCEBABLIVjyVwSNySUCXvLwmRqiPR7rrrLidoymNYnkyJXkUSNuSVKA8neSAlmj4+jzjiCFu2bJlJPJZApIRmqjdWqJbQI49diU9qR151yUwfuxLhPFFLHlHnnnuui+UoT91Y8+I5y4tP/UjlESUxQx/IEqSSicdenfJQlYgsD2OJx/owlxikj+BYcVpC5OGHH27vvvuu+7BWLN5UJo88fVBL9Jbg6XlRq7w+rLt162b77ruvExc9L8urrrrKJHrpg7xULFE8lqCo+MXyJhUfCSipTGU0LxJuPfMrHqu8NjiuvfZat9kgSyceS3iUV6zWocQTbX4kmtakBOV7773XGjduHPfruXPnunUqr16JxxKpp0+f7gQXCZYSN2W6fvLkyXHXjhgxwgnq6qtEm0STuKN7dcyYMc4L2/NqDmKNeGErtHGkdZ3KYoWudOKxxG6JoRK/5XGdTPzU80TCUteuXd2mU6xJyD7++OOdgC+TYJ8oQsrTUl7c//3vf50QLE/LRM9fMZs4caJjJY9lifwSahM9x7NhKFFbzzo942R6NmkzIZn3vBjpHpewLOFZz5IDDjjA3et6LqkvEua0IZZoZ555pnvmyuNcY0j1fPOuyxS2Iqh+qz1x1X2r/ikhq+Yw1vR7PSN12kLM9ZzEkhPIRTzW80TvRZk2HSXgJzM9Z0899VTnEZxMPPau0b8XOnTo4NaixGOtN61NbQRrs2ObbbZxG8ra3NS96Zk2U/Vu02mFZM9KbXTpOaiTE3ruJt6fsX0O+v2bzXOftQkBCEAAAhDIJwHE43zSpW4IQAACEIgj4Fc8lqAiT2IJvvpwlLemvNiSfbRJvJDwKk88edgmEzD0ASYhUyEq9AEqoTjR9PEo79GOHTuaxDN5zCU7Ei4B58knn3Qfm/I2SmUSniT2yiTSyINKH7aJpiPpnieqrknnjSkBRiJWOvFY9Q8aNMh50EkUlBgj0SeV6C4PUQnk8hyWMJVoOs4twUi/l3gf66mqshJYJErraLDEM421VC1RPNY4vfUgUUPCQY0aNZIOX5sN8kDXWvYsG/FY18TGWU4lHkvokwCiDRcJw4lepKpHGwfylJWQLUFb5RJNa1Ue6bofNLcvvfSSEyt1L0lYVv333XefSRz0TEKy1qjuL90/qUzenrof5Vn45ptvOiEyCAtSPJbXoTZE1FedOkg1r+q3REVtFEl88jzRvfEoVIzEYZlEZHn+J5onvEk8Vrupwp+Iu8Toa665Jghcbj1q80PimepMDAcQ24jWnu59Pa90jWfyytZa1DrwwgTEXqcNN4VXURsKa6H1lM4yice6Noh+qx5PvJRArM2RZBb7fsm0DgKZlJBW4lc81vNJ94EEWYn2evfpPa/nRjrzNinTice6Xs8kPfMkHutEj67zNk11b2qzRPerNgs80+aoNju1+ay+6ARNrOkdpw007+RFotdyYr+DfP+qbj/P/ZAuG7oNAQhAAAIhIoB4HKLJoqsQgAAEwk4gVjzWB12i55y8yiQ2SLDRsVF5AEuM1HH7VKZ4hBJxJYLKOyyVyRNSx5MlbElATjQdWZaYJ+9CCdcSaZKZ58UsAUWemalMXsQSn2TpxAmN2ROp5dF3/vnnp6zT8+LLJB5LxJInocYibzodt01m8shSvGWZhPVkArM8SVWH6pLHdTKB2euXBEGJiqVqycTjWHFQwoQEzGQmkVbimTzgPMtWPJaQJVFElko89kSW7bff3oWoSDZfsd7DXmiTxD57SSoVA1fCojzpY02e1LGbKzoyLs88efZJaPbWVaq1oHAyErAlHsnrNpNHqp81FaR4rHA1EsMVnkaCUjqTqKixi4c2nmJj5Eos01zouSaPa91PiSZ2EqxU9o033kgaS9oT3BV3WgJaUKYj/Ao/ouP42iRI5c0scdwL3RPbthf3O90zRMKbYgnL61re1+nMj3is68vbb22GKSyA5kWbgfJsTWV6fkvwVNgjhS7ByhKIFY8VmiUxvIMEWJ3skXewQhppTWjjrX379r7ufc/7N5N4LEFa7yNtImsjVput6Z5b+p3+jeGJyanewd4JId2n2rxIZ0G+f9WOn+c+axICEIAABCCQbwKIx/kmTP0QgAAEILCeQKx4rKPAEhsTTSJSbFiEdPhixU8JPTpGn8q8sqpfYk3iEXSJexI25PWnI63yZE5mChsgMU2/l5iayiSiSliRZfLqU13qU7pkgKrHr3isD2HPA1hHeD3Px8S+ypPK8/rUfyc7sut5oCqOqYTBZKYj7RItJZ4pVEIywbIUboNk4rFEPW2EyENb/MQx0STKyXNegmmsBS0eS5hRX7Qu04UiUZ+VOEqirbzkknmMekKs+itv2ExJw7z4z7qvJMxlim8rXl6dChGj2NvltaDE49h7N5WYm9hXbXbp5EMygfiyyy5zG1s6OaFTFYn3h4RVL361PNMllCWawo88/vjjSX9XHm4K7+GddlBiRS9ZaGKdek48+uijblMv1rRpp00TPR+0TpLNuzYJtPZ1/+i5n878isfl7be3Caj3gcTAxKSHsX30yspr3AtBUh7mpXhtrHisUC/JwkNp3BJ/UyWHTcfFr3ise0QJ8WSKb5zstE9iO9o8kJCttaB7MVlyXdXlxXdXTPh0z7cg37/qK+JxKd4xjAkCEIBA+AggHodvzugxBCAAgdASiBWP5ZmbGGs124F5ooyu0xH4RGEjtj6JNvIAlCmRjufB6ZXxxGN5OSs5WSpTXFAv+VNsYrHE8rECVKbj2hIuJPgp5mMyIc+rOxfxeN68ebbjjjsmHY6SD3qCscQYxYpNNH0w68NZwpe89JKZ57klby+FGSlVSyYea6wKESIRViZBVmFUYk0e7/JeTAyXErR47MWmVtuZ1pzKaK622mqrpNPlCbHayIlNwphqbjU2Hf2XN6fEDj8mL2xt1GSKF+2nLpUJSjyWh6mSYsr03EiXfM/rmxdSJtmJhFihU8kEdXIg1nRKQJsuCh8ir8xffvmlTMgcHcWXEJYs5I5fPqnKab0qwZ1OcciTPtH0LNOx/mTJL7URofjqCm2TSoDV+OSNqee/TjikM7/iseooT7+9a/VO0EZGOpNorrjW8qbV3GBlCcSKxzrFo3jDQVou4rHWpd+QOIoTr/Wb6l0Z+6zWiaPY0C2J44wVj8v7/lXdiMdBriTqggAEIACBXAkgHudKjusgAAEIQCBrAkGLx95xYnVkyJAhaY9zK1arjp7K5IWshGKx5onHqcJaeGU98Vjegwo5kcpixWPFf01MlBd7nSceS2SUl1sqy0U89rLPJ6szVjxOFY9VifTkTSmvLHm2JsaDVL068i2vxUzhNLJeMEV2QSrxWB6nWttiLaFMXtie6WcS5RTKITGWbdDisSfSqe1k8amzwekJsdqQ0cZMOtMY5Ymn+0HJ5eS958cU6kGhEBQTV39rAyWVd3tsfQqlkWwdBiUe69ngCaUSdWOTZqYal+ddq98rXEhsckr9zBurBGBtxngm8VWxWRWOQqw1fq2L2BiwChEib0g9U4II75E4Bi80jdanNs40H7Em7+L/+Z//cQlHM5m8ePVcUZxWibJLlixx3sa6RxTTWV746Swb8TjXfmudar1q3apP2gxMZxIWJeyLj94j5UlUmIlfWH9fjOKx1p+3YZwNV82xNre1hhWGRmtYoX68JJz6mRLnprJY8bi871+1gXiczexRFgIQgAAE8kUA8ThfZKkXAhCAAATKEAhaPJb3sD6sJKgoPIMf04e/RMDE0BieeCyRN12yr1zE41RJ+rz+FrN4rDiVmrdUsUH1oS2vZIlsSjh41FFH+ZmGUJZJJR5rMFo3CnEgYVPeqp7ApLlXIsRkmwJBi8fe5oL6IwFPSRpzNU+IVTgFxVdOZwsWLHBhCzwO6e6f2Hp2220354kqIU9e/LFHztO1lywxncoHJR4rDrMSw0kslLjrx5Q4TvFSZcm8+D3v9GrVqrl7yXv+KByFxGTFHfZOUugIvVh4pnWixILDhw/305Wsy8QmoNM61SaWZ0p0Jy9d8UiWQNQrp80RheZQ/HltIGjDRCK8ntH9+/d3MWWDFo9z7be8hz1vcoUW0sajH9NzOl1CUz91lGqZYhSPtXaziQ8ugViho7QRus0227hwT1rHWiPaAPFC6yAel+oqZlwQgAAEIJCOAOIx6wMCEIAABCqMQNDiscSxTz75xPVf3nnl8QhDPH7LFNMzmUmYVzxpxahVWIYaNWq4YmvWrHGCnbzyFNNXIlEpWzrxODYmZmzs2E6dOjkxTsJZogUtHnshRtRONke2k82ZXyFW18oj3Qt/odAnnodeprXgPQ/k2avNh0mTJrnEl5lMScvOPffcMsX89jlW6FKSusQYrIrFPmvWLFd/pvimXieU6HLMmDHuf+V5LQE11iS+SpSWSRiWQCzTdfLcl0jlhbeQsCwPZC8MhDx+FTc9WSzWTKz8/l7rVKFOJKoqdrEXl1k/E4tUwrU2l5T0TInJNGaFF/AShXptex7xQYvHqj+XfqvPnuc6cYz9rpD05YpRPPZ778o7WAl1b7rpJvccUwzvxNjfsc9qxONg1gy1QAACEIBAuAggHodrvugtBCAAgVATCFo8btOmjROcZD///LPzFsrVEI9Ti8f6qJY4L49SHWtXjFp5IT7//PNOOFRoi8Q4rrnOQzFfl048VlxgrT/F8JXQrgSOEqkkbj399NNJhxW0eNy7d28XN1uWLLZuNmz9CrFenRKA5ekngVTxc/2YvJXltewnFq6f+vz2OZN4LI9DL/av+idv8kwmMViJt2SpYqLKg1GhJxSSQnOve0pCtXh5Yq1irivshRezWqE8DjvsMHeMPp8mz0pv80iJQ/VslSk0kDaHEmPE63c6daBr5OWucmKWLMRHPsXjXPqtvmsDTIkd5f0uj1OsfATCLB4rLJPeYXoeaQNHIWYSDfG4fOuDqyEAAQhAIPwEEI/DP4eMAAIQgEBoCAQtHnsxLwUgVcxev3AQj1OLxxK95OGtY/yKWSqxSF7e+nkuMSX9zkmxlUsnHquvF1xwgRPa5Mkq700JyOmSxtYAACAASURBVEqAdtpppyUdStDisUIGyINVNnToULv66qtzRuhXiPUa8ARXCa0SXDOZPI2VME9hIeR964V8yHRdut/77XMm8VibJV7iSgm7nsdwurYV3kMex+mEcB2Jlwex7h2FTtAzS/HX9RzzzNsA8JLXPfzwwy7uqryt821Keqf4vscff7zbGFJi0YsuusiFY0lm8qiXx6bCBolTo0aNkpbr2rWrG2Os57Hi0SrkUPPmzeOuySbmsXdhtv3WdQpBoE0did0Kf1GeUyv5npcw1B9W8VjhYBTPW6ZnkJ5FyUxrJVnYCoWb0QZhrBHzOAwrlj5CAAIQgEC2BBCPsyVGeQhAAAIQyJlA0OKxYofKI04JbW644QYnZGQyxUtt0aKFS1IVa4jHycVjCSsSfeRFm49kXZnmq5h+n0k8VmxglZHJA3j69Ok2ceJEF9M3mQUtHsuTVetayck88TETP4l6ik2bKPz5FWK9+hWqQ+EXZGo/mfdebF8UC1rxsbUhoZjQHrdM/U33e799ziQeS/gXD3mT33fffaZkeOlMx+O1SaC/FT/XS8yZeI02XpRIT8fkJVQpKd/ll18eN3aFiJA3sjYg5MHcuXNnu/XWW52HbL7tjjvucP3Rfa4EhnpWKlRGu3btkjbtxazO5L3rbSzEiscSpJ966qk44VyN5CIeZ9tvtSPRXu8Bme5TeU5nMq0veahG/TmYjFNYxePYWOXpTi/FbijFhq1QPHAvxI3HBfE4053E7yEAAQhAIIwEEI/DOGv0GQIQgEBICQQtHguDPH8ksOi4t5Jvece/kyGS2CxvWXnUeTEvvXKIx8nFY4VhkIfo+PHjTbFXo2yKsS0ODRs2TIlB4q3Wl5IIKryHBLhUFrR4rHaUtPCYY45xApfuh/r166dsX+LoAQccYB9++GGZBJJ+hdjYyr17SJs42sxJZ4pZPHbsWNOR8VjP2/KsL799ziQeqw+eACRRUeJiOnvooYesY8eO7tkilumeQUcccYSrT/GB5X0tj10J6LEmQUo/F0clolP86oowbcJtt912TgSXAK6ND4XZSJV0zEv0Ke9hrbtUVqdOHZckUKcU5HEsUwgcrf/E+yMX8Tjbfnv99OIld+jQwSUtTGfyxJbnuDY9sLIEwioet2rVyp0Qkee5wrAk3oveSPXue+KJJ9z/zpkzx3bddVe3CaT43okhZRCPuUMgAAEIQKAUCSAel+KsMiYIQAACRUpgxx13dGEPZOVN6BU7RMXblcgyYMAA69u3b8rRS7BSQq9kR1O9OnT8XB6kqcw7qi3PQCXbSmWxXqjp4s/qA1SeqatXr87oPd22bVsnuGQSa+T92KtXL9e1dBnndWze87hL530nUUzH2c877zzTEXGNXX/0oS1hSfFDtTGgP6XqlacEZvIalZejwlOkMiUW88JFSFRo3LhxyrISIzxB3o/gqvq8ZGQ6bq1YuMlMQqYETXkU675INScKhaA4zQpNkGiesCbBXGFK/JhCMSjEg+6Ljz76yK2HZKZ7X0fFJRRKJK1WrZqf6jOW8fos5uliBCuxnfcM0OZIsvYVTkNCr+6RdBsnEi7FSKKowlYkJotL7LQSynm8dY8OHjy4zLj0sz59+jgRWh7s3bt3zzj2oAp4SRd1f0vYT7f54YXqUKxYeUknE80VdkPinJIEKkSEeGs9PvbYYy5chAT/WPNiEV933XVZherIpt9ee5o7bfYozIq8wDXfyUx91jNXmx16/mFlCYiNl8RSnuZKshqkaR0qdrbWmN6VqczbTNbvdVrGSzqZqrw2SRTiR6ZksNq4STSFV9F6VFJIbbgpLrL+HSFP5SuuuMKt7VgL+v3r97kfJG/qggAEIAABCCQSQDxmTUAAAhCAQN4IyINNH3BK+iTPNIkmEktlOgqtDzfFSJWokOgJnE2nlPhIR+YlAOjDTWJLrGCm9nUcWx+SsWKIPP8kDMhDU16TSv622WabuViYOjouUUl/FA5AQocERAmoEolkI0eONHkuqV4dW5dJiFCdEhFHjRrlfta+fXv38akxKpu7+ibhQu3rI1tHZ2U6Ii5hS95/KitRWR+rYqhEdeqjPPhq1qzpvALl/SR+Sl7n9VG/l7ipD1zZLbfc4thoXLpO/BcuXOjq1EezF2tW3tsSsyTeqM5YDyx5CSoMQrqPdrWlsUm47Nevn6sn7Kb1+9NPPzkhVGw0B5oTCXsS8nUM35t3b6xaI/q5BExdl2iad82phFbFt1WcYplErLvvvtvq1avnvIBjk7RpTWkNy6NNf2QS3a666irXvrjHmjYM5PWsxGcSpxWHOVZEkbgrL0p5ySrJm4RCma7T2lXCNsVpVvgGra1x48Y5sUT3guZVP0tlH3/8sUsIpzEoLEGieK5wBWeccYbzZpc3p9ZweSxZn7WhobYl6qrPGrvGLPZa+xKhJKrLxEGMvPsjti8qq3tO8b7FIDF2tfgoUd7s2bOdwKxYwZlMzxgJ9rqXdNw9mRipkBEK+6F7cN68eVa3bt1M1Qb2e4UQ8TYlMsV7lrB+4oknusRzWot65sU+NzTXesZok0SbChqLEgHq2a9nkkRyhQfRs1XPQj1n5AUs09yJuVhlWnMqn02/Y2Fp7pTgUmN49NFHyyT+VJ/VJ727dE9h/0dAa1n3n56Reud6Hvq6t7V5pXeo7ivNXy4xpXWPePfsxRdfvD72tt6ROl2h95nub+/eXrRokXXr1m29cK1ntt5Hal/PAPUl0fS8btasmbuHte6V9DG2nJ6Fmns9m/W81qaHNp70btezQ89p/ZsgH+/fbJ/7rE0IQAACEIBAPgkgHueTLnVDAAIQiDgBxYfUx5y8hSSYSljQH09AlnffmjVr3BHuVEmZ/CJUXfJ+kqee2tLHpUQXxV+VsCDxVqJVrCl5lY7M68M2tm/qnz5IJfpKXJW3rwQmlfPGoTL6o/4rZIaEFgkgEvMkrnmeuWrPK6cPTAlDOr7dtGlTF97AK+dxUVmVk8iiNuWRKgFGomVsH9WujtlKJGvTpo0T4pTQJ1UfxeKLL75wIolCKqTro7zDddRcpnYkPg4aNMj9TH3XfKqf+riXwKoPbI1LZWUKlSBxLl3IBL/zWshyOootbzqxSlwfGqs8e7U2Ek2ChTwV5Q2ZaBJL5bEWO+/eGoldJxLUJGKoHc29/oh77DoRf4nOyTyDVZcEHHnKS4BRf+RVp7blFX/yySe7zRtPOFYfbr75Zue5n3g/6He6v9Sety7TzYvaU7tqX96pCo2hcUhc8pKwyTtbm0blNfVZoo7mKPHe1H0kcVchCeTtLHFIHD323j2se11e0HpWJJp+p/Wve1AetnquqN/yUlTcXG0e6cRDNgKv7lfdMwoJkcoOPfRQNw+FCJMgQVvCXKZwHeq7nikSDrUJIsFXGwdirGeuhDXFa9Y6Fn89n+ShLNYSjr1EY/JC10ZG4rrTmtMzToKdl6ws3XrJpt+x9WgjTf3RPCuGvthLlJTHpzYIFPc63QmC8q7hsF4vYV+bTbHvutjnk/fM0AZpYmJEP2PWZrC8mLWeYu9t1at7W4Ky1peef4ccckjcMyD2marnljZH77rrrqTNav71PJIHsYRvvfe1gav7U89LtaFTFNqY1WbSO++8s76c/o0jC/r9q3snl+e+H66UgQAEIAABCORCAPE4F2pcAwEIQAACRU1Awo7iEuoDU56cEq9iRbKi7nwRdU4esvp4l8etjuwqfEUq0we6PLbllSsR7sgjj3SehFjhCWhjQ971EuIkcmqzJlUSvyB7qzUhL31tRuj+070o7/qwhjaRp7CeK9owkbik50ouAri8WeVJLm/cVKaj8mJWXs/sXOZT60WCrzbF/Jq8UCW2SmyTJ7zEVonEsaYNBD0bxC6oUCWx9efS79jrvfUqwVj3hxIBppsjv2woFw4Cej5KiFYIGm3Uae6TJarU/auTFdpMwiAAAQhAAAJRIYB4HJWZZpwQgAAEIACBLAkonqPCJMj7MVU80MQqdYxZHq4SiSSApUsul2V3KA4BCEAAAhCAAAQgAAEIQAACFUwA8biCgdMcBCAAAQhAICwElCBOYrCO62ZjOsaucAI6BqywARgEIAABCEAAAhCAAAQgAAEIhJMA4nE4541eQwACEIAABPJOQMfLlYRIiXsUC9Kvde3a1cWSVhxUxYjFIAABCEAAAhCAAAQgAAEIQCCcBBCPwzlv9BoCEIAABCCQdwJKRKYEhMOHD3eJD/2Y4oUqcZay2ytshRKZYRCAAAQgAAEIQAACEIAABCAQTgKIx+GcN3oNAQhAAAIQyDsBJZBS2Ilnn33Whg0bZoqBnC7xoBJmtWrVyiUqlNexkmZhEIAABCAAAQhAAAIQgAAEIBBeAojH4Z07eg4BCEAAAhCoEAIPP/yw3XXXXTZ//ny78MILbf/997edd97ZqlWrZso8/9VXX5nKfPrpp9auXTvr0aOH1apVq0L6RiMQgAAEIAABCEAAAhCAAAQgkD8CiMf5Y0vNEIAABCAAgZIi8Nlnn9mbb75pCk2hP3/++aftsMMO7s+ee+5pLVu2tMqVK5fUmBkMBCAAAQhAAAIQgAAEIACBKBNAPI7y7DN2CEAAAhCAAAQgAAEIQAACEIAABCAAAQhAAAIpCCAeszQgAAEIQAACARBYsGCB/fTTT+6Pwjv8/PPP7m/9/9q1a2277baz7bff3v3t/dH/165dO4DWqQICEIAABCAAgW+++Wb9e1jv319++cV+/PFH++2332zrrbe2unXr2jbbbBP3Hq5fvz7gIAABCEAAAhBIQwDxmOUBAQhAAAIQyIGAxOIXX3zRXnjhBZccbtGiRTnUYlajRg075phj7LjjjrNjjz3Wtt1225zq4SIIQAACEIBAlAhoY/a9995b/y6eMWOGrVu3LmsEG2ywgTVp0sS9h/Xn4IMPTpscNusGuAACEIAABCAQcgKIxyGfQLoPAQhAAAIVQ8D7SJVYLNE414/UTL1t3Ljx+g/YQw45hBjCmYDxewhAAAIQiAwBbdxOmTLFbdxOnTrVFi9eHPjYq1evvn5TV2Iym7qBI6ZCCEAAAhAIGQHE45BNGN2FAAQgAIGKJ/DEE09Yr169TMdhK9J0vHbQoEHWvn17k2cUBgEIQAACEIgigV9//dV69+5t999/vwsFVVGmd2+7du1s8ODBLuQFBgEIQAACEIgiAcTjKM46Y4YABCAAAV8E3n//fbv00kvto48+8lU+X4X22msvGzlypB1xxBH5aoJ6IQABCEAAAkVHYMWKFXbTTTfZzTffbH/++WfB+rfJJpvY5Zdf7gTsLbbYomD9oGEIQAACEIBAIQggHheCOm1CAAIQgEBRE/j666+tZ8+e9tRTT/nqZ7169eykk06yHXfc0SXk8f7UqlXL/fdmm21m33//vS1cuND90bFb/a0kPs8//7x9/vnnvto54YQTbNiwYdaoUSNf5SkEAQhAAAIQCCuBUaNGWb9+/dz7MpNJ3G3evLkp3FOy97Dex947OPY9rP/WRrFCYPgRp5WnoH///ta1a9dMXeL3EIAABCAAgZIhgHhcMlPJQCAAAQhAIAgC99xzj/so/Pvvv1NWV7lyZTvssMPsxBNPdH922223cjU9b948mzRpkk2ePNlef/11W7VqVdq2hw4daldeeWW52uRiCEAAAhCAQDES+OWXX6xNmzb2wQcfpO3eDjvsYNpUbdWqlR199NG28cYb5zwcvXdfe+01e+6559y7WO/ldLbvvvvaM8884zaNMQhAAAIQgECpE0A8LvUZZnwQgAAEIOCbwNlnn20PPvhgyvI1a9a06667zlROCXXyYTqi+9hjj1mfPn3st99+S9nEKaecYg888IDzasYgAAEIQAACpUBAG6j//ve/077/2rZt696RTZs2zduQP/74Y3fSZ/z48Snb2HLLLd37umXLlnnrBxVDAAIQgAAEioEA4nExzAJ9gAAEIACBghJQSAl5EM+aNStpP3QcVt7Iffv2tc0337xC+vrXX3+5D1d5GUtQTmYNGjRwYS/0NwYBCOROYOLEidahQ4cyFShR1ujRo3OvmCshAAHfBBTbWKLwmjVrkl7TpEkTF///0EMP9V1neQsq50GXLl1S5j7YcMMNXWgN/SGxbXlpcz0EIAABCBQrAcTjYp0Z+gUBCEAAAhVC4IUXXrAzzzzTli5dWqY9fQieddZZduONNxYsy7riI+tjeuzYsUk/qOV5rOzzp556aoXwohEIlCKBJ5980k4//fQyQ+vUqZONGzeuFIfMmCBQNAT++OMP522s93EyU2iIQYMGmTZzCiXQKgeCciEoJ0IyU9gMlcnXqaSimSw6AgEIQAACkSSAeBzJaWfQEIAABCAgAtdee60NHDgwKQx9AOq46rHHHlsUsN588007+eSTUyYOkmf07bffXhR9pRMQCBsBxOOwzRj9LRUCX375pYtbnEqULbYQTenCW9WtW9edBtp7771LZXoYBwQgAAEIQMARQDxmIUAAAhCAQCQJKBxEjx49ko5dCfD0AVi/fv2iYvPjjz+68BozZ85M2q+rr77ahbnAIACB7AggHmfHi9IQCILAwoULTYnn9G5LNIWD0OZur169gmgq0DruuOMO69atm/3zzz9l6q1Vq5bNmDGjYKeVAh0olUEAAhCAAAT+fwKIxywFCEAAAhCIHIGpU6e6BDfr1q0rM3Z59yppXrEmovv777/t/PPPt4ceeijpvOnn7du3j9ycMmAIlIcA4nF56HEtBLInoHfZYYcdljSWcI0aNWzChAnWrFmz7CuuoCt0Guikk06yRYsWlWlxjz32sPfff9+qVatWQb2hGQhAAAIQgEB+CSAe55cvtUMAAhCAQJER+Pzzz+1f//pXmSR08nIaMGCA9e7du8h6nLw7d955p1155ZW2evXquAJVqlSx1157rUITCoUCGJ2EQBoCiMcsDwhULAHF6ZdAnGh77rmnO/mz0047VWyHcmgt3WkgbVArhnOhYjTnMBwugQAEIAABCKQkgHjM4oAABCAAgcgQ0BHZ/fff377//vsyY5Z4FLakc9OmTbNjjjmmzFi23npr+/DDD61evXqRmVsGCoHyEEA8Lg89roVAdgQGDx7sEsEmmjZ2tflZrCd/Uo1S72G9jxNNobGGDBmSHRxKQwACEIAABIqQAOJxEU4KXYIABCAAgeAJpDsie8MNN7jkeWG0MWPGuDAWicax2TDOJn0uFAHE40KRp92oEZg8ebK1bt26TNiobbbZxmbNmmXa/AybLVu2zJo0aWLffvttma4TSipss0l/IQABCEAgGQHEY9YFBCAAAQhEgsD1119v/fv3LzNWZXJ/6qmnQs3gsssus5EjR5YZg36uxD4YBCCQngDiMSsEAvknsGTJEnciRmJrrFWtWtXee+8922efffLfiTy18NVXX7mQWIlj22STTWzevHlWu3btPLVMtRCAAAQgAIH8E0A8zj9jWoAABCAAgQITWLBggftg/fPPP+N60rRpU3vrrbds4403LnAPy9f8mjVrXPgKHfeNtUqVKtncuXMJX1E+vFwdAQKIxxGYZIZYcAJdu3a1ESNGxPVDMYEnTZpkJ554YsH7V94O6B189NFH29q1a+Oq6ty5s40dO7a81XM9BCAAAQhAoGAEEI8Lhp6GIQABCECgogice+65ZT7cdthhB/vkk09CeUQ2GTd5O8nrSd5PsaZs8E8//XRFoaYdCISSAOJxKKeNToeIgLxv69evb9rsjLVBgwaFJlGtH9w67XP55ZfHFVVC3pkzZ9pee+3lpwrKQAACEIAABIqOAOJx0U0JHYIABCAAgSAJzJ49232wrVu3Lq5axVWU2HrQQQeZ4gMrw3vDhg1N3rphtY8//tglBEy0t99+2w455JCwDot+QyDvBBCP846YBiJO4OSTT7aJEyfGUZDX8X777efexQpZofew/q5Ro0aoaTVr1qzMSaCjjjrKXn311VCPi85DAAIQgEB0CSAeR3fuGTkEIACBSBA48sgj7Y033kg51sqVK9umm27qjpmuXLnStt9+e9t7773twAMPdB+yEpZ33XXX0IjKp512WpkYzvo4nzFjRiTmm0FCIBcCiMe5UOMaCPgjoHjGBx98cNrCeg9XqVLFhZfSfzdo0MCJykpEp/ew3svVq1f312CBS3366aeuv4k2ZcoUO+644wrcO5qHAAQgAAEIZE8A8Th7ZlwBAQhAAAIhIfDiiy/m/KEmD+TNNtvMHbGVqCwBWXEZ5Z1czPbdd9+5viYeDX700UftzDPPLOau0zcIFIwA4nHB0NNwBAhoA1NhomJNXseJJ4KSofBE5RUrVrh38gUXXGBDhw4temrt2rUzvXdjTf9++Pzzz01hLDAIQAACEIBAmAggHodptugrBCAAAQj4JqCPUoWrUNiKWJMn8ocffmj6EPVj+sDdaaedTB+C3bt3D8Vx2ssuu8xGjhwZNzx5VH/77bfOswuDAATiCSAesyIgkB8Cjz32mJ111llxlWtzduedd7ZvvvmmTHK5VL2oVauWNWrUyK6//npTCIhit/nz57sxrl69Oq6r99xzj51//vnF3n36BwEIQAACEIgjgHjMgoAABCAAgZIkoKznijsYaxJO5Zk7ZswYGz58uP3xxx9px66QFo0bN7YnnnjCdtlll9BwWrx4se24445lBPIJEyaY4k5iEIAA4jFrAAIVQeCwww4zxd2PtQsvvNCJwAoNpfdVJtt8881t2LBhTnQNk9euNpxvvvnmuOHp3xT/+c9/Mg2Z30MAAhCAAASKigDicVFNB52BAAQgAIGgCPTo0aPM0VZ9yOkDVHb88cfb9OnTU3ogy+NYnss6ahvGJHqDBw+2Pn36xOE877zz7N577w0KMfVAoGQI4HlcMlPJQIqIwNKlS23LLbeMC0+hMBTaxJUnsd6vEpcV5ziVKVTFs88+a82bNy+ikfnryrJly6xu3bqmv2Ptt99+c+PHIAABCEAAAmEhgHgclpminxCAAAQgkBUBZWyfNWtW3DU//PCD7bDDDu5nf/31l8vqPm/evDLHSr2LFJ/w9ttvt2OPPTartouh8O+//241a9aM+2jX2MUAgwAE4gkgHrMiIBA8gWT3VYcOHezBBx9c39jjjz9u5557bsqNXHkaKxRTv3793DstbHbxxRfbqFGj4ro9duxY69y5c9iGQn8hAAEIQCDCBBCPIzz5DB0CEIBAqRJYuHBhGa8eJZGbM2dOGTFZArK8o2IT9yQm8pF4fOutt9ruu+8eKmQHHHCAi+8ca8oCr6PCGAQg8H8EEI9ZDRAInoBEYQmlsfbwww+7HAKxdtVVV5liASfmIoh9F0s4vuGGG6xLly6hCl0hr+m2bdvGjff00083ieYYBCAAAQhAICwEEI/DMlP0EwIQgAAEfBPQx6o+WmNN3j933nlnmTo++OADUxI9eSJ7pljHU6ZMsauvvtpmzpzpfqyfXXLJJTZgwABT/MUwWN++fW3QoEFxXVWs527duoWh+/QRAhVGAPG4wlDTUIQIKDSDNnNjLVnIhrVr11qLFi3svffeixOQu3btagpzoc3bv//+21WjmME6EXTEEUeEgqQE8Ro1atg///yzvr/Vq1e3JUuWmMRxDAIQgAAEIBAGAojHYZgl+ggBCEAAAlkRkFePxKBYe+aZZ6xNmzZJ63nggQecMOx5PSnR3iuvvOKywOu4qY7Lekl96tSpY4on3KlTp6L3flJM58QPbMWNnDZtWlY8KQyBUieAeFzqM8z4KpqAwkbpZE+s7bfffjZjxoykXVm+fLntvffeNn/+fBdKSqKx6lCy2m+++ca9o1988cX1155yyikur0EYktnqPaz3cawpieAhhxxS0dNCexCAAAQgAIGcCCAe54SNiyAAAQhAoJgJNGjQwObOnbu+i0p4p9AUSryTyi699FKTiKwP2GuuucZuuumm9UUlHOu4rDyXPe+hMHg/qa/yeIo9CrzVVluV8QQr5rmkbxCoCAKIxxVBmTaiREBxjc8+++y4Iffq1cttvqYyicR6t+o9rFjHa9asiSsq8fjKK6+0L774wv184403dv9/7bXXOrG5WC1ZAlv9e0InojAIQAACEIBAGAggHodhlugjBCAAAQhkRUAicWz29t122239x2aqivSRKo9jeQNJPE72gasPVn2oJno/3XbbbesT8WXV0QoofPDBB7ujwLG2atUqq1KlSgW0ThMQCAcBxONwzBO9DA8BbcD27NkzrsOK86uTQelMJ2NatWplek8pVIVCRsWaNkVHjx4ddyJIyWDlhXzGGWcUZSgIhcE64YQT4sahsFIKg4VBAAIQgAAEwkAA8TgMs0QfIQABCEDANwF5LCXGJD7qqKPs1VdfzViHYhDK60nHYRVjMZVJPNYRWnlJyeTx1KNHD+vevXvReT9pLE8//XTcUObNm2c77rhjRh4UgEBUCCAeR2WmGWdFEdBGqzZWY+3NN9+0ww47LGMXFNP4iiuucJvAVatWTVpeJ4IkTt93330uxJTswAMPdPGQ9XcxmXInNGnSJK5LysswZsyYYuomfYEABCAAAQikJIB4zOKAAAQgAIGSIjBnzhxr2LBh3JiU2V0Z3v3YTz/95OIt7rTTTmmLyyPqjjvusIEDB9qyZctc2WL0frrsssts5MiRcWN5//337YADDvCDgzIQiAQBxONITDODrEAC8gKWp3GsacN155139tULCc2HH354xrISZi+//HJ74403XFklodM7/+abb7batWtnvL4iCixYsKBMX+SJPHny5IponjYgAAEIQAAC5SaAeFxuhFQAAQhAAALFRCBZkrirr77aHWnNhylzvI6fJno/6VitvJgLbTfeeKP17t07rhvpkgcWur+0D4FCEEA8LgR12ixlAsmSxGljNjEMRVAM9F7r1q3b+hNBW2yxhXs3d+3a1cVGLqStW7fO9UHjK/DHGQAAIABJREFU9yxd8sBC9pW2IQABCEAAAskIIB6zLiAAAQhAoKQIyNNJHk+xphAUOgKbT5P304UXXmjy6pUp2Y+OpcozuZDeT0oC2KlTp7ihjxo1yi666KJ84qBuCISKAOJxqKaLzoaAgE4A6SSQZzVr1rRFixbltec6EaRYy/rj5T3YZZddnBdy27Zt89p2psp1mun7779fX2zbbbc1nXTCIAABCEAAAmEggHgchlmijxCAAAQg4JuAYiwq1mKs+UnS47uBNAXlXTR+/HiXcO/HH390JQvt/TR16lRr0aJFXK/79etn/fv3D2LI1AGBkiCAeFwS08ggioiAcg8oB4Fne+21l82aNatCeqj3b69eveyRRx4xvZdl8oS+++67bffdd6+QPiQ2kpi8VuE1lKhXf2MQgAAEIACBYieAeFzsM0T/IAABCEAgKwJ9+vSxwYMHx12jUBZ+Yidm1VCawvJ4Gj58eBnvpzvvvNOOPfbYoJrxVc/s2bNtzz33jCt7wQUXuGz1GAQg8L8EEI9ZCRAIjsDKlSvLJLrTJuZLL70UXCM+atJJIMVD9k4EKWSGkt1qA1We0BVpp556qk2YMCGuyV9//bWgJ5Mqcvy0BQEIQAAC4SaAeBzu+aP3EIAABCCQQEBhIq699tq4n7744ovWsmXLCmcl7yeFy4j9YJR4rDAaFeX99PHHH9v+++8fN3bFgFRGegwCEPhfAojHrAQIBEdA3r6VKlVa7/Wrmg855BB7++23g2vEZ03qy7hx41zsf4m1MgnHN9xwgws1la8YzIndU4K8KVOmxP34999/t+rVq/scCcUgAAEIQAAChSOAeFw49rQMAQhAAAJ5IHDvvfeaPGtjTXF/O3bsmIfW/FWpLPDyflJcZFlFej/pY1UfrbEmz2wd6cUgAIH/JYB4zEqAQLAEttlmm/VirWquX7++zZ07N9hGsqjtjz/+cKeStHmr2MgybeIqlIVCWuTbtImrzVzPqlSpYqtWrcp3s9QPAQhAAAIQCIQA4nEgGKkEAhCAAASKhcCkSZOsTZs2cd1R8hzFIS6krV271u6///6k3k9dunRxCfbyYWPHjnWJ+2Ltvvvus3POOScfzVEnBEJJAPE4lNNGp4uYQOPGje2///3v+h5uttlmcTGQC9X1b775xv17IPZE0CmnnGJDhw41JdfLl22//fZxCfKUQO+7777LV3PUCwEIQAACEAiUAOJxoDipDAIQgAAECk1AsQ0POuiguG5cddVVLtt6MZi8nxRWQ/GP//nnH9clfWQrjEQ+vJ/kaaU40LH2/PPP2/HHH18MOOgDBIqCAOJxUUwDnSghAopxrIStsSaP34022qgoRqkTQRdddJF98cUXrj8bb7yxS7ar8BZK9hekJQvjceCBB9p7770XZDPUBQEIQAACEMgbAcTjvKGlYghAAAIQKAQBefLsvPPOcU23a9fOHn744UJ0J2Wb+mDVh6riMXuWD+8nxTceMWJEXD8++uijMnGQiwoOnYFABRNAPK5g4DRX8gQ6dOhQ5r379ddf59W7N1uo2sBV8lgl0Fu8eLG7vE6dOi68RefOnW2DDTbItsqk5RcsWFAmMV7r1q3t2WefDaR+KoEABCAAAQjkmwDicb4JUz8EIAABCFQoAcUQlAdRrDVv3tymTZtWof3w25jEY4nIid5P8k7edNNN/VaTstzpp5/u4rnGmhL56QgtBgEI/C8BxGNWAgSCJdC9e/cyJ36UME+J84rNJBwrgV7siSB5ButEkP4ur82aNcv22WefuGqUm0HCNQYBCEAAAhAIAwHE4zDMEn2EAAQgAIGsCGyxxRam8BCe1apVyyXuCcqLKKvO+Cgs7ycl8Rk4cKAtW7bMXbHDDju4GIxnnHFGufqtGI7ffvttXC8Uf7lYWfjARREIBE4A8ThwpFQYcQLDhg0rk2tg5MiRdskllxQtGW3iKpSFQlrI9J7UyaUbb7zRvZNzNSXt7dSpU9zl8nbu379/rlVyHQQgAAEIQKBCCSAeVyhuGoMABCAAgYogoNjB06dPj2vq3XffLRMLuSL6kk0bv/32m/Xt29eU0E4Cr6w83k9ffvmlyyYfa3vvvXdcEqNs+kdZCJQqAcTjUp1ZxlUoAjrtc8wxx8Q1f9xxx9mUKVMK1SXf7T7zzDPWrVs3U3I9mU4B9ejRw/1JPNnkp9JkJ4AmTpxobdu29XM5ZSAAAQhAAAIFJ4B4XPApoAMQgAAEIBA0gWQeTxJlBwwYEHRTealv5syZdvnll5fxflLSv9q1a/tu85ZbbnEfwLHWq1cvF88Rg0CxEhgyZIhtvfXWdu6551aYh3yxiMdK+KlTCOPHjy/W6aFfEPBFYM2aNVa9enVbsWLF+vISXpcuXZqTAOur0QALKbnfHXfcEXciSCd59B7ORvQVB52G+vPPP9f3TkkDlyxZEkhoqgCHTFUQgAAEIACBlAQQj1kcEIAABCBQcgQ+//xz22OPPeLG1aRJE/vkk09CNdZE7yd9gEoEVxI8P95PzZo1s9deey1uzMUaczJUE0Nn80rgqquucgJq48aNXQzSQw89NK/tqfJCi8c///yzXX311fboo49a/fr1bc6cOXkfMw1AIN8ETj31VJswYUJcM5MmTbJWrVrlu+nA6teJIG3CPvLII7Zu3TpXr043KR6ynlGZTO9gvYtjrWXLlnHJcjPVwe8hAAEIQAAChSaAeFzoGaB9CEAAAhDIC4Fdd93VlNk91n744YdyxS3MS0czVCrvp5tuusn98TyX/Hg/qazEZnk9eSYvMHk7Ee+4EDNJm34JeOKxV15HvuXtV56Yo5naLpR4vHLlStNJCXlbe/e3nl2Ix5lmjN+HgcD9999vnTt3juvqhRdeaHfffXcYuh/XR50K0Ikg/S3bcMMN3ekI3bs1a9ZMOZ5kiQNHjBhhl156aegY0GEIQAACEIguAcTj6M49I4cABCBQ0gT0kacjp7F2zz332Pnnnx/Kcf/444+mkBOJ3k/6CE+Ma6wBPvXUU3baaafFjbVDhw724IMPhnL8dDo6BBLFY428atWqJhGmZ8+eeTnqXQjx+IknnnAJxebNmxc3uYjH0VnrpT7SBQsWWJ06ddZ77Gq82gTSRm4YTZ7HCimj+1bvZJmE4xtuuMEkileuXLnMsBo1amRKxBdr8+fPt+222y6MCOgzBCAAAQhElADicUQnnmFDAAIQKHUCU6dOtRYtWsQNsxSSxSV6P+ljVdnrlbk91vtJR/3feeeduPE//vjjJi9ODALFTCCZeOz1V8KTPP3atWsX6BAqUjxWTHPdswohk8wQjwOdWiorMIGDDjpovbeu15Vnn33WWrduXeCe5d68Tgkoh4LC6+h0kEybuPr/Y489dn3FyUJW7Lnnnvbpp5/m3jhXQgACEIAABApAAPG4ANBpEgIQgAAE8k8gWbIetfrQQw9Z+/bt89+BPLYg76dx48ZZ79697ddff3UtxXo/vfTSS3biiSfG9aBSpUq2aNEil8AIg0AxE1B8USV7TGcHH3yw6ej3/vvvH8hQKkI8XrhwoTs9MGbMmLR9btiwoX355ZeBjItKIFBoAgMHDrRrr702rhu77babzZ4924V+CLN98803zgs5Nq6zxGPFald4KW1YJwrFPXr0cBtgGAQgAAEIQCBMBBCPwzRb9BUCEIAABLIikEyEkueiPviqVKmSVV3FWPiPP/6wwYMHl/F+Unb7xGPBijs5duzYYhwGfYJAHIF0nsexBRW7u2PHjjZ06FCrXbt2uSjmUzxevXq1S64lT8Vly5Zl7CeexxkRUSBEBJRwbqeddjLF9461MIeRSsT/xhtvuHjIOlUgU0JbJcVTcsBY0787FM9cPDAIQAACEIBAmAggHodptugrBCAAAQhkRUBCTd26dcsINkq+JYGqVCyZ91Ps2PQhKzG5Vq1apTJkxlHCBPx4HscOf9NNN7U+ffo4T/xcLV/i8fPPP+9EpcTknen6iedxrrPIdcVKQJ7H8kCONcVC/u6772yTTTYp1m5n3S+dKpBn8eLFi5Nee8UVV7jNXgwCEIAABCAQNgKIx2GbMfoLAQhAAAJZEZBQrERbsabQDUpSVWohHBTn+fjjj7d//vknbrwS1hI/3LOCSGEIVCABv57HiV3SMfHhw4fbSSedlHVvgxaPlSDr0ksvtVdeeSXrvuB5nDUyLihyAjoNo/tTXsixpveS3k+lZBKOTz75ZJM3cqxtscUWTizfcsstS2m4jAUCEIAABCJCAPE4IhPNMCEAAQhElYCOjMuTTx9tsaaPu9g4haXAp1OnTvbAAw/EDUUfqsoKL+9MDAJhIJCreOyN7YgjjnAxR5WYyq8FJR4vXbrUxXcdNWpUmU0cv31BPPZLinJhIqB74uKLL47rsk7FKLHrfvvtF6ahpO2r4pU3bdrUli9fHldO4XWuvvrqkhknA4EABCAAgWgRQDyO1nwzWghAAAKRJPDYY4/ZWWedVWbspeT1dNddd9kll1xSZowS0RI/2CO5CBh0aAikCltx9NFH24wZM2zJkiW+xnLRRRfZoEGDXDLJTBaEeDxy5Ei77rrrUh5ZT+zD6aefbk888USZrhG2ItNs8fswElAS2z322MO++uqruO5vt9129sknn5Q7bnkxMNHmkYRwhZKKNY1RG9ilkGuhGDjTBwhAAAIQqHgCiMcVz5wWIQABCECgAAT2339/+/jjj+NaVsKt5557zk444YQC9Ci4Jt966y078sgjTR/nsSYPRh2fr1SpUnCNURME8kwglXh899132xlnnGH9+vUzbZYkhmdJ1q0aNWrY9ddf7zZWKleunLLn5RGPdTxdQrXuNT8mz2iNZfPNNzcl8Ew0PI/9UKRMGAk8++yz1rZt2zJdP+igg2z69OmhFlfXrl1rLVq0SBqq5pFHHkm6gR3GOaTPEIAABCAQTQKIx9Gcd0YNAQhAIHIElOFcR0mVRC/WqlWrZh9++KHtvvvuoWSiRHhNmjQp4+1YtWpVe++992yfffYJ5bjodHQJpApboWPvEmllEmr134lxRVNRa9CggQsl0bx586RFchGP5V145ZVX2qRJk3xNVr169Uwx2BUyRzZ//nzEY1/kKFRKBM455xwbN25cmSF17tzZxo4dG9qhptr0OuWUU+ypp54K7bjoOAQgAAEIQEAEEI9ZBxCAAAQgEBkCEpokHiV66NavX98dhw9bAr2//vrLDjjgAPv000/j5lAe1RK0TjzxxMjMLQMtHQJ+xGNvtM8884xJtEk8Jp6KhhJK3nbbbSYxOdayEY+V/Kt///52++2326pVqzKC32yzzaxnz54u3qlivHqGeJwRHQVKkIDev3oPJ9v40YmCLl26hG7Ujz/+uDsVkWjasNbJoNj7PnSDo8MQgAAEIAABxGPWAAQgAAEIRI2APJ7k+ZRohx56qAthEZZM6ErGI4+ml19+ucxYbrrpJrvmmmuiNrWMt0QIZCMea8h///238+gdPHiwSdjNZIo7etlll7lwFgodIfMjHq9bt855TPbu3dt+/fXXTM2435955pmub9tuu22Z8ojHvhBSqAQJKDawNj4T4x9rqGEL8aB/Nyh++cqVK+NmSicNdKpp6623LsEZZEgQgAAEIBA1AngeR23GGS8EIAABCFj37t2doJNo+th74YUXij6EhUJVKLZishirSgyoj28MAmElkK147I3z559/dt69jz76qEnozWS1atUyJc0877zzbMKECU4ASrROnTo5wfj999+3Cy+80GbOnJmpWvf7xo0b2+jRo+3AAw9MWR7x2BdKCpUoASWQU3K5ZAkw+/btawMGDCj6kQ8ZMsRtJiU+b7bYYgsXNqpRo0ZFPwY6CAEIQAACEPBDAPHYDyXKQAACEIBASRHQh17r1q1t8uTJZcalGMgTJ060o48+uijH/M4777i+L1q0qEz/lIhr6tSpoU46VJTQ6VSFEshVPPY6ma3Qu+eee7oj59dee22ZcUpQVhgYHUv3YxKk5QF97rnnuuvSGeKxH6KUKWUC7777rum9tXr16jLDbNOmjdsI2nTTTYsOgcLVtG/f3p1YSDQlqH3llVfcuDAIQAACEIBAqRBAPC6VmWQcEIAABCCQFQHFC27ZsqW9+eabSa+75ZZbXDKsYrL777/flFQome277772+uuvmzyeMAiEmUB5xWON3Qsx0atXL/vtt99yxiEhKDFGerLKFArj0ksvdbGQvVAYmRpFPM5EiN9HgUCqkDEau5LBPv/887bddtsVDQo9TyRsy7M4memkgk4sYBCAAAQgAIFSIoB4XEqzyVggAAEIQCArAv/884/7yEsV5kFxkO+++27ba6+9sqo36MKKC6mkYMk8pdVWMXtoBc2C+kqfQBDisUfpjz/+cILuHXfckdS7MQiaSv41atSoMkn4MtWNeJyJEL+PCgHFBj7uuOOSnqipUaOGKYxF165dC3qqRv9e0H2u50mykz/auFWiWjyOo7JqGScEIACBaBFAPI7WfDNaCEAAAhBIQuC2225z4uzatWvL/HbDDTe0s88+22688UarU6dOhfLTB2q/fv3snnvuMX24JrOwxIasUHA0FmoCQYrHHog5c+Y48enFF18MjM3OO+9sw4cPt5NPPjmnOn/66Sfbfvvty1zboEGDpInEcmqEiyAQEgLpYvlrCLvssospGeypp55a4SN69tlnrUePHvbll18mbXvXXXd1+RL0NwYBCEAAAhAoRQKIx6U4q4wJAhCAAASyJjBt2jQ76aSTbPny5Umv3WyzzVwyrmuuucaqVq2adf3ZXKB4irfeeqsTrJWVPpltsskm9uCDD9ppp52WTdWUhUDRE8iHeOwNWkfgFY5GYnKuprAU2rRRPQpXkavheZwrOa4rVQJ6//773/+2KVOmpBxi06ZNnQew/s63ffrpp3bRRRfZ22+/nbIpeRrL45iQUfmeDeqHAAQgAIFCEkA8LiR92oYABCAAgaIi8MUXX7ijs8oCn8r0gXjiiSc6oVllJSoHYStXrrSXXnrJJet77rnnbPHixSmrrV27tvOgVJxjDAKlRiCf4rFYKTmXThsMGDDAFNbCrykBXseOHW3o0KGme7C8hnhcXoJcX4oEFK9cscrlZZzO9ttvP/celuf/HnvsERgKbSxNmDDBnn76afvoo49c/PRUdvHFF7uQOIqNjkEAAhCAAARKmQDicSnPLmODAAQgAIGsCaxYscKGDBliSpj3559/pr1e3r8tWrRwH6+tW7e2LbfcMqv2li1b5oRiCcYSg9V2Ottoo41cUi55PWbbVlYdozAECkhAIWR0/yWavA3lBRiEvf/++3b55Zeb/vZrtWrVcqcBzj33XL+XpC33888/J00E1rBhw5TH4wNpmEogEAIC8vbV++4///lPxt7qnvGE5AMOOCBj+cQCM2bMcO9hCcaff/55xuuVB2HkyJHEN85IigIQgAAEIFAqBBCPS2UmGQcEIAABCARKQMKO4g2PGTPGd73Vq1e3rbfe2sVGlrgrsUn/X7lyZfv1119t4cKFzqPY++/ff//dd93t27d3npL16tXzfQ0FIRBGAvn0PP7tt99c6BmFfEnnUZiO2/7772+jR482/V0ew/O4PPS4NioEHnvsMeeJPG/ePN9D3nbbbd27VycEttpqK/ffNWvWtCVLlrj3sP4sWLDA/a3Y435N9WoDSXkQMAhAAAIQgECUCCAeR2m2GSsEIAABCGRNQF5I8oRUMpxC2KGHHuo8nJo0aVKI5mkTAhVOoHv37nbzzTeXabe8nscKN9G/f/+MJwr8DrhDhw7uaL0EpVzsl19+SXrtbrvtZgqhg0EAAv9LQKFm9B4cOHBg2pBO+eKlcFU9e/Z0cc514giDAAQgAAEIRI0A4nHUZpzxQgACEIBATgTeeOMNd4RWCXQqwho1auTCZygcBgaBKBEI2vN48uTJTvSZO3du4BirVatmffr0cRtM2SbPw/M48OmgwhInoFBPOoEzYsQI+/vvv/M+Wt3TCpVz3XXXOQ9mDAIQgAAEIBBVAojHUZ15xg0BCEAAAjkR+Oyzz2zatGn2yiuvmARlfcwGYUq8d/jhh1vz5s3dH3kaK0EXBoGoEQhKPFbiqy5durh7NVfbcMMNbe3atRkvr1+/vovTnM1mD+JxRqwUgEBSAkp0+dprr7l7W+/j2bNnB0ZKnv/ee7hZs2ZWo0aNwOqmIghAAAIQgEBYCSAeh3Xm6DcEIAABCBScwJo1a+zDDz9cLya/8847tmrVKl/9kkeTEvt4H6kHH3xw1p6LvhqiEARCRqC84rGEpeuvv955J+q4eyaT8HvKKaeYwlokmpJhLl261LcArftZ4TUaNGiQqVlDPM6IiAIQ8EVAscynTp26Xkz+4YcffF2nQtttt9369/AxxxyTNIml78ooCAEIQAACEChRAojHJTqxDAsCEIAABApDQMLVihUrTN5LybySlZxHR90333zzwnSQViFQ5ARyFY+VAO++++5zYSQkJmUy3Ye9e/c2xVh+5pln7PTTTy9zSadOnWzcuHE2adIkU7++/vrrTNW6BJkKcXPDDTekvc8RjzOipAAEciag5LS33XabC3ORaFdccYX17duXUBQ50+VCCEAAAhCIGgHE46jNOOOFAAQgAIEKIbDlllva77//XqYtCVwYBCCQmkAu4vH7779vF154oc2cOTMjWoWDadeunfM09pLdPfnkk2nFY1UqL2Yl8hs0aJAtX748Yzu1atVyZc8777ykIWgQjzMipAAEykVAoWQUjzzR+vXr55JnYhCAAAQgAAEI+COAeOyPE6UgAAEIQAACWRFAPM4KF4UhsJ5ANuLxzz//7DyHH330UV8EGzdubKNHj7YDDzwwrrwf8di7QF7NEqQeeeQR87MZlKpNxGNfU0YhCORMAPE4Z3RcCAEIQAACEIgjgHjMgoAABCAAAQjkgQDicR6gUmUkCPgRj//++28bPny43XjjjS5MTCarXbu2DR482M4555ykXsDZiMdeW9l4O+uaM88803kue97OiMeZZo3fQ6B8BBCPy8ePqyEAAQhAAAIeAcRj1gIEIAABCEAgDwQQj/MAlSojQSCTeDxx4kTn+fvtt99m5KHElIo/rCPq6eKM5yIeq3F5Ho8dO9bFTvYTZ3nTTTe1nj172jXXXGMLFy60HXbYocwYdt11V5szZ07GsVEAAhBITwDxmBUCAQhAAAIQCIYA4nEwHKkFAhCAAAQgEEcA8ZgFAYHcCCgMhTx0E+2yyy6z2bNn2yuvvOKr4hYtWtiIESOsYcOGGcvnKh57FS9dutQJ1LfeemvGtlRgp512cuE2NKZEU7LNL774wlc9FIIABFITQDxmdUAAAhCAAASCIYB4HAxHaoEABCAAAQjEEUA8ZkFAIDcCqTyP/dZWv359k2jUunXrpJesWrXKeSGffvrpLpRF3bp1LZN4vHLlSrvzzjttwIABNn78eDv22GOT1i2P4S5duvgWuJNVguex35mmHATSE0A8ZoVAAAIQgAAEgiGAeBwMR2qBAAQgAAEIIB6zBiAQAIFcxeNq1apZnz59XEgLhatIZwcddJB9+OGHtuGGG1rXrl2tTp061qNHjzKXnHzyyU4o7tu3r8m7WLGWf/zxR9t+++3T1v/cc8+ZxjF37tysiSAeZ42MCyCQlADiMQsDAhCAAAQgEAwBxONgOFILBCAAAQhAAPGYNQCBAAjkIh537NjRhg0bZkqM58fGjRvnYiH/+eeftskmm9jatWtNHsmJJnFZcYqXL1/ufnX44Yfb9OnT/TThyiih38CBA107fq1Bgwb21Vdf+S1OOQhAIAUBxGOWBgQgAAEIQCAYAojHwXCkFghAAAIQgEAcAcJWsCAgkBuBbMTjxo0b2+jRo+3AAw/MqrE//vjDatasaf/884/v66pWrWr33HOPtW/f3vc1KqhEeopv/PDDD7sEe5kMz+NMhPg9BPwRQDz2x4lSEIAABCAAgUwEEI8zEeL3EIAABCAAgRwIIB7nAI1LIPD/CPgRj+VhrHjF55xzjm2wwQY5cVPM4wkTJjivYz8mD+UlS5Y4T+VcbMaMGXbuuefazJkz016OeJwLXa6BQFkCiMesCghAAAIQgEAwBBCPg+FILRCAAAQgAIE4AojHLAgI5EYgnXisWMaXXXaZXX/99S7pXXnspZdesjZt2rg4xpmsUqVKdsYZZzjv4fKYPI8VMqN3797266+/Jq0K8bg8hLkWAv9HAPGY1QABCEAAAhAIhgDicTAcqQUCEIAABCCAeMwagEAABFKJx82bN7dRo0aZYgIHYWvWrLGtttrKJcLLZBtttJG98MIL1qxZs0xFff1eYTMkgI8YMcJWr14ddw3isS+EFIJARgKIxxkRUQACEIAABCDgiwDisS9MFIIABCAAAQhkRwDP4+x4URoCHoFE8VhiqkSgVq1aBQ5JsYhHjhyZ0ft46623drGLcw2Rkarjc+bMsS5dutgrr7yyvgjiceDTTIURJYB4HNGJZ9gQgAAEIBA4AcTjwJFSIQQgAAEIQMAM8ZhVAIHcCHjicbVq1axPnz7WrVs3U7iKfNgXX3xhe+21l8kLOZVtvPHGrg+DBg3KRxdcnZMnT7Yrr7zS5s6da4jHecNMxREjgHgcsQlnuBCAAAQgkDcCiMd5Q0vFEIAABCAQZQKIx1GefcZeHgISahcsWGDDhw83JcbLtzVq1MgkIqeyDTfc0Im6O++8c167ovAVErvGjx9vn3zySV7bonIIRIEA4nEUZpkxQgACEIBARRBAPK4IyrQBAQhAAAKRI4B4HLkpZ8ABEVA84PImw8umK7fddpv17NkzZeiKffbZx2bOnJlNleUqu2zZMttiiy3KVQcXQwAC5jZjtBmVaP369bP+/fuDCAIQgAAEIAABnwQQj32CohgEIAABCEAgGwKIx9nQoiwECkdAXs516tSxdevWlelAWOtYAAAgAElEQVRE5cqV7fbbb7eLL764cB2kZQhAICcCiMc5YeMiCEAAAhCAQBkCiMcsCghAAAIQgEAeCCAe5wEqVUIgTwRatmxp06ZNs7Vr18a1UKlSJVu4cKHVqFEjTy1TLQQgkC8CiMf5Iku9EIAABCAQNQKIx1GbccYLAQhAAAIVQgDxuEIw0wgEAiHw1FNPWadOnWzFihXr61Os4xNOOMEmTZoUSBtUAgEIVCwBxOOK5U1rEIAABCBQugQQj0t3bhkZBCAAAQgUkADicQHh0zQEsiSgZHW6Z2PF40033dQeffRRa9OmTZa1URwCECgGAojHxTAL9AECEIAABEqBAOJxKcwiY4AABCAAgaIjgHhcdFNChyCQlsD5559vDzzwgElIlm222Wa2ZMkSq1KlCuQgAIEQEkA8DuGk0WUIQAACEChKAojHRTktdAoCEIAABMJOAPE47DNI/6NG4N1337VmzZrZypUrbeONN7bzzjvPRo4cGTUMjBcCJUMA8bhkppKBQAACEIBAgQkgHhd4AmgeAhAIF4HXX389XB2mtwUj0KpVK1u+fHmZ9l977bWC9YmGIQCB9AROOeUUW7x4sfM2lnDcsGFDkEEAAiEl8MQTT9ioUaPK9L5jx47WuXPnkI6KbgdFoEGDBrb99tsHVR31QAACEChpAojHJT29DA4CEAiSwLx586xevXpBVkldEIAABCAAAQhAAAIQgEAFExgxYoRdeumlFdwqzUEAAhAIJwHE43DOG72GAAQKQADxuADQaRICEIAABCAAAQhAAAIBE0A8Dhgo1UEAAiVNAPG4pKeXwUEAAkES+OGHH2zHHXcMskrqggAEIACBIiOgY8zz588vsl7RHQhAAAIQCJIA4nGQNKkLAhAodQKIx6U+w4wPAhAIjACex4GhpCIIQAACRUugbt26ps1CDAIQgAAESpcA4nHpzi0jgwAEgieAeBw8U2qEAARKlADicYlOLMOCAAQgEEMA8ZjlAAEIQKD0CSAel/4cM0IIQCA4AojHwbGkJghAoMQJpApbUaVKFbI1l/jc5zK877//3tauXVvmUpIu5kKTayBQcQS23HJLW7JkScU1SEsQgEBeCCxdujTpvVy9enXTfY5Fg4Ce51oLiYZ4HI35Z5QQgEAwBBCPg+FILRCAQAQIpPI8rlWrll1yySURIMAQsyEwZMgQW7lyZZlLrr/++myqoSwEIAABCEAAAjkQePfdd+2ll14qc+URRxxhRx11VA41ckkYCUydOtXefvttxOMwTh59hgAEioYA4nHRTAUdgQAEip0A4nGxz1Bx9Q/xuLjmg95AAAIQgEC0CCAeR2u+U40W8Zh1AAEIQKD8BBCPy8+QGiAAgYgQQDyOyEQHNEzE44BAUg0EIAABCEAgBwKIxzlAK8FLEI9LcFIZEgQgUOEEEI8rHDkNQgACYSWAeBzWmStMvxGPC8OdViEAAQhAAAIigHjMOhABxGPWAQQgAIHyE0A8Lj9DaoAABCJCAPE4IhMd0DARjwMCSTUQgAAEIACBHAggHucArQQvQTwuwUllSBCAQIUTQDyucOQ0CAEIhJUA4nFYZ64w/VayvHXr1pVpvGrVqoXpEK1CAAIQgAAEIkbgr7/+KjPiKlWqWOXKlSNGIrrDRTyO7twzcghAIDgCiMfBsaQmCECgxAkgHpf4BDM8CEAAAhCAAAQgAIGSIoB4XFLTyWAgAIECEUA8LhB4moUABMJHAPE4fHNGjyEAAQhAAAIQgAAEoksA8Ti6c8/IIQCB4AggHgfHkpogAIESJ4B4XOITzPAgAAEIQAACEIAABEqKAOJxSU0ng4EABApEAPG4QOBpFgIQCB8BxOPwzRk9hgAEIAABCEAAAhCILgHE4+jOPSOHAASCI4B4HBxLaoIABEqcAOJxiU8ww4MABCAAAQhAAAIQKCkCiMclNZ0MBgIQKBABxOMCgadZCEAgfAQQj8M3Z/QYAhCAAAQgAAEIQCC6BBCPozv3jBwCEAiOAOJxcCypCQIQKHECiMclPsEMDwIQgAAEIAABCECgpAggHpfUdDIYCECgQAQQjwsEnmYhAIHwEUA8Dt+c0WMIQAACEIAABCAAgegSQDyO7twzcghAIDgCiMfBsaQmCECgxAkgHpf4BDM8CEAAAhCAAAQgAIGSIoB4XFLTyWAgAIECEUA8LhB4moUABMJHAPE4fHNGjyEAAQhAAAIQgAAEoksA8Ti6c8/IIQCB4AggHgfHkpogAIESJ4B4XOITzPAgAAEIQAACEIAABEqKAOJxSU0ng4EABApEAPG4QOBpFgIQCB8BxOPwzRk9hgAEIAABCEAAAhCILgHE4+jOPSOHAASCI4B4HBxLaoIABEqcAOJxiU8ww4MABCAAAQhAAAIQKCkCiMclNZ0MBgIQKBABxOMCgadZCEAgfAQQj8M3Z/QYAhCAAAQgAAEIQCC6BBCPozv3jBwCEAiOAOJxcCypCQIQKHECiMclPsEMDwIQgAAEIAABCECgpAggHpfUdDIYCECgQAQQjwsEnmYhAIHwEUA8Dt+c0WMIQAACEIAABCAAgegSQDyO7twzcghAIDgCiMfBsaQmCECgxAmkEo9LfNgMDwIQgAAEIAABCEAAAiVFYMSIEXbppZeW1JgYDAQgAIF8EUA8zhdZ6oUABEqOAOJxyU0pA4IABCAAAQhAAAIQiCABxOMITjpDhgAEciaAeJwzOi6EAASiRgDxOGozznghAAEIQAACEIAABEqRAOJxKc4qY4IABPJFAPE4X2SpFwIQKDkCiMclN6UMCAIQgAAEIAABCEAgggQQjyM46QwZAhDImQDicc7ouBACEIgaAcTjqM0444UABCAAAQhAAAIQKEUCiMelOKuMCQIQyBcBxON8kaVeCECg5AggHpfclDIgCEAAAhCAAAQgAIEIEkA8juCkM2QIQCBnAojHOaPjQghAIGoEUonHjRo1stmzZ0cNB+OFAAQgAAEIQAACEIBAURO45pprbNiwYWX6iHhc1NNG5yAAgSIjgHhcZBNCdyAAgeIlgHhcvHNDzyAAAQhAAAIQgAAEIJBIAPGYNQEBCECg/AQQj8vPkBogAIGIEEA8jshEM0wIQAACEIAABCAAgZIggHhcEtPIICAAgQITQDwu8ATQPAQgEB4CiMfhmSt6CgEIQAACEIAABCAAAcRj1gAEIACB8hNAPC4/Q2qAAAQiQgDxOCITzTAhAAEIQAACEIAABEqCAOJxSUwjg4AABApMAPG4wBNA8xCAQHgIIB6HZ67oKQQgAAEIQAACEIAABBCPWQMQgAAEyk8A8bj8DKkBAhCICAHE44hMNMOEAAQgAAEIQAACECgJAojHJTGNDAICECgwAcTjAk8AzUMAAuEhgHgcnrmipxCAAAQgAAEIQAACEEA8Zg1AAAIQKD8BxOPyM6QGCEAgIgQQjyMy0QwTAhCAAAQgAAEIQKAkCCAel8Q0MggIQKDABBCPCzwBNA8BCISHAOJxeOaKnkIAAhCAAAQgAAEIQADxmDUAAQhAoPwEEI/Lz5AaIACBiBBAPI7IRDNMCEAgcgRWrFhhw4YNKzPutm3bWpMmTSLHgwFDAAIQKBUCiMelMpOMAwIQKCQBxONC0qdtCEAgVARyEY+POOIImz59eqjGSWchAAEIlBKBF1980Vq2bJl2SL/++qtts802ZcqMHTvWOnfuXEo4GAsEIACBSBFAPI7UdDNYCEAgTwQQj/MElmohAIHSI4B4XHpzyoggAIHSJ4B4XPpzzAghAAEIpCKAeMzagAAEIFB+AojH5WdIDRCAQEQI5CIeH3nkkfbGG29EhBDDhAAEIFB8BF5++WU75phj0nYMz+Pimzd6BAEIQCAIAojHQVCkDghAIOoEEI+jvgIYPwQg4JtALuIxYSt846UgBCAAgbwQwPM4L1ipFAIQgEAoCCAeh2Ka6CQEIFDkBBCPi3yC6B4EIFA8BBCPi2cu6AkEIAABvwQQj/2SohwEIACB0iOAeFx6c8qIIACBiieAeFzxzGkRAhAIKYFcxONUYSv2228/23zzzUNKgm5DAAIQCA+B4cOHW9OmTdN2mLAV4ZlPegoBCEAgGwKIx9nQoiwEIACB5AQQj1kZEIAABHwSyEU8ThW24oMPPrB//etfPlumGAQgAAEI5JMA4nE+6VI3BCAAgcIRQDwuHHtahgAESocA4nHpzCUjgQAE8kwA8TjPgKkeAhCAQIEIpBKPJTocd9xxBeoVzUIAAhCAQHkJjB492saPH1+mmq5du9pJJ51U3uq5HgIQyAOBGjVqWJMmTfJQM1XmSgDxOFdyXAcBCESOAOJx5KacAUMAAhEhkEo8jsjwGSYEIAABCEAAAhAoGgKHH364TZ8+vWj6Q0fMEI9ZBRCAAAR8EkA89gmKYhCAAARCRgDxOGQTRnchAAEIQAACEChZAojHxTe1iMfFNyf0CAIQKFICiMdFOjF0CwIQgEA5CRC2opwAuRwCEIDA/8femcDbVL3//8mQKZkyRYb4ZciUItFAJIoMSYOhP6UBReJHJFJKhAqNxogyZAiJjMkU0SCR4ftKSZF5rvT/fVad+z333nPPOfucvfZZa5/P83qd18Xd+1nPej/7Xnt/9lrPYygBlq0wNDEMiwRCEBgyZIh88skncuONN8rKlSvJyCACFI8NSgZDIQESMJsAxWOz88PoSIAESCBWAmyYFys5nkcCJEACZhNgwzyz88PoSCCYwP/7f/9PJk2aJFx5bN51QfHYvJwwIhIgAUMJUDw2NDEMiwRIgATiJEDxOE6APJ0ESIAEDCVA8djQxDAsEghBgOKxuZcFxWNzc8PISIAEDCNA8diwhDAcEiABEnCJAMVjl0DSDQmQAAkYRoDisWEJYTgkEIYAxWNzLw+Kx+bmhpGRAAkYRoDisWEJYTgkQAIk4BIBiscugaQbEiABEjCMAMVjwxLCcEiA4rGV1wDFYyvTxqBJgAQSQYDicSKoc0wSIAES0E+A4rF+xhyBBEiABBJBgOJxIqhzTBKIjQBXHsfGzYuzKB57QZljkAAJ+IIAxWNfpJGTIAESIIF0BCge86IgARIgAX8SoHjsz7xyVv4kQPHY3LxSPDY3N4yMBEjAMAIUjw1LCMMhARIgAZcIUDx2CSTdkAAJkIBhBCgeG5YQhkMCYQhQPDb38qB4bG5uGBkJkIBhBCgeG5YQhkMCJEACLhGgeOwSSLohARIgAcMIUDw2LCEMhwQoHlt5DVA8tjJt8QXdrl072bt3b3xOeDYJJCGBM2fOyPr169PNPGfOnFKjRo2QRLZs2SJHjx5N970NGzZkeE4SouWUSYAESCChBCgeJxQ/BycBEiABbQQoHmtDS8ck4DoBrjx2HalrDikeu4bSHkflypWTHTt22BMwIyUBHxKgeOzDpHJKJEAC1hKgeGxt6hg4CZAACYQlQPGYFwgJ2EOA4rG5uaJ4bG5utEV2xRVXyA8//CB16tSRBg0aaBuHjknAbwSOHDkir776arppXXLJJdKlS5eQ0504caKg3EVao3jst6uD8yEBErCZwMmTJ2XYsGHpptC8eXOpVq2azVNj7CRAAiSQ1AQoHid1+jl5ywhQPDY3YRSPzc2Ntsj+53/+R3bu3Cm9e/eWIUOGaBuHjknAbwRY89hvGeV8SIAESIAESIAESIAE/EyA4rGfs8u5+Y0AxWNzM0rx2NzcaIuM4rE2tHTscwIUj32eYE6PBEiABEiABEiABEjAVwQoHvsqnZyMzwlQPDY3wRSPzc2NtsgoHmtDS8c+J0Dx2OcJ5vRIgARIgARIgARIgAR8RYDisa/Sycn4nADFY3MTTPHY3Nxoi4zisTa0dOxzAhSPfZ5gTo8ESIAESIAESIAESMBXBCge+yqdnIzPCVA8NjfBFI/NzY22yCgea0NLxz4nQPHY5wnm9EiABEiABEiABEiABHxFgOKxr9LJyficAMVjcxNM8djc3GiLjOKxNrR07HMCFI99nmBOjwRIgARIgARIgARIwFcEKB77Kp2cjM8JUDw2N8EUj83NjbbIKB5rQ0vHPidA8djnCeb0SIAESIAESIAESIAEfEWA4rGv0snJ+JwAxWNzE0zx2NzcaIuM4rE2tHTscwIUj32eYE6PBEiABEiABEiABEjAVwQoHvsqnZyMzwlQPDY3wRSPzc2NtsgoHmtDS8c+J0Dx2OcJ5vRIgARIgARIgARIgAR8RYDisa/Sycn4nADFY3MTTPHY3Nxoi4zisTa0dOxzAhSPfZ5gTo8ESIAESIAESIAESMBXBCge+yqdnIzPCVA8NjfBFI/NzY22yCgea0NLxz4nQPHY5wnm9EiABEiABEiABEiABHxFgOKxr9LJyficAMVjcxNM8djc3GiLjOKxNrR07HMCFI99nmBOjwRIgARIgARIgARIwFcEKB77Kp2cjM8JUDw2N8EUj83NjbbIKB5rQ0vHPidA8djnCeb0SIAESIAESIAESIAEfEWA4rGv0snJ+JwAxWNzE0zx2NzcaIuM4rE2tHTscwIUj32eYE6PBEiABEiABEiABEjAVwQoHvsqnZyMzwlQPDY3wRSPzc2NtsgoHmtDS8c+J0Dx2OcJ5vRIgARIgARIgARIgAR8RYDisa/Sycn4nADFY3MTTPHY3Nxoi4zisTa0dOxzAhSPfZ5gTo8ESIAESIAESIAESMBXBCge+yqdnIzPCVA8NjfBFI/NzY22yCgea0NLxz4nQPHY5wnm9EiABEiABEiABEiABHxFgOKxr9LJyficAMVjcxNM8djc3GiLjOKxNrR07HMCFI99nmBOjwRIgARIgARIgARIwFcEKB77Kp2cjM8JUDw2N8EUj83NjbbIKB5rQ0vHPidA8djnCeb0SIAESIAESIAESIAEfEWA4rGv0snJ+JwAxWNzE0zx2NzcaIuM4rE2tHTscwIUj32eYE6PBEiABEiABEiABEjAVwQoHvsqnZyMzwlQPDY3wRSPzc2NtsgoHmtDS8c+J0Dx2OcJ5vRIgARIgARIgARIgAR8RYDisa/Sycn4nADFY3MTTPHY3Nxoi4zisTa0dOxzAhSPfZ5gTo8ESCBpCRw5ckSaN2+ebv59+vSRRo0aJS0XTpwESIAEbCdA8dj2DDL+ZCJA8djcbFM8Njc32iKjeKwNLR37nADFY58nmNMjARJIWgK//vqrFClSJN38x48fLx06dEhaLpw4CZAACdhOgOKx7Rlk/MlEgOKxudmmeGxubrRFRvFYG1o69jkBisc+TzCnRwIkkLQEKB4nbeo5cRIgAZ8ToHjs8wRzer4iQPHY3HRSPDY3N9oio3isDS0d+5wAxWOfJ5jTIwESSFoCFI+TNvWcOAmQgM8JUDz2eYI5PV8RoHhsbjopHpubG22RUTzWhpaOfU6A4rHPE8zpkQAJJC0BisdJm3pOnARIwOcEKB77PMGcnq8IUDw2N50Uj83NjbbIKB5rQ0vHPidA8djnCeb0SIAEkpYAxeOkTT0nTgIk4HMCFI99nmBOz1cEKB6bm06Kx+bmRltkFI+1oaVjnxOgeOzzBHN6JEACSUuA4nHSpp4TJwES8DkBisc+TzCn5ysCFI/NTSfFY3Nzoy0yisfa0Gp3/MILL8i5c+e0j8MBQhM4cuSIvPrqq+m+eckll0iXLl1CnjRx4kSB6JzWOnXqJJdeeqm1qDNlyiSNGjWSmjVrWjsHBk4CJEACAQIUj3ktkAAJJAOBjRs3ysKFC+X8+fPJMF01xyVLlsiaNWvSzbdx48a8j02aqyA5J1qyZEnp0KGDVZOneGxuuigem5sbbZFRPNaGVpvjM2fOyLp16wQ3OfgzjQRMIFC+fHnZtm2bCaEwBhIgARKIiwDF47jw8WQSIAFLCFSpUkW++eYbS6JlmCRAAvES2LJli1StWjVeN56dT/HYM9SOB6J47BiZ/SdQPLYvh//5z3+kdOnSKnD88s+bN699k/BBxBDu169fn24mOXPmlBo1aoScIf7DPnr0aLrvVa9eXXLnzm0llZ9++kl27dol+fPnl99//93KOTBoEiABEggmQPGY1wMJkEAyEChWrJjs27dPPVeUKFEiGaYsu3fvlr1796aba9myZQU8aCTgNwJnz55VC89gWHnfoEEDa6ZI8djcVFE8Njc32iKjeKwNrTbHweLx8uXLpW7dutrGouOMCbDm8T9shg8fLj179lQvMQ4fPsxLhgRIgASsJ0Dx2PoUcgIkQAJREChatKjs379fnn/+eenXr18UZ9h/CGse259DzsAZgeBn1qVLl8rNN9/szEECj6Z4nED4EYameGxubrRFRvFYG1ptjikea0PryDHFY4rHji4YHkwCJGANAYrH1qSKgZIACcRBgOLxf+GNGjVKunbtGgdNnkoCZhII1g6WLVsm9erVMzPQEFFRPDY3VRSPzc2NtsgoHmtDq80xxWNtaB05pnhM8djRBcODSYAErCFA8diaVDFQEiCBOAhQPKZ4HMflw1MtIYBSLWXKlFHRrlixQm666SZLIheheGxuqigem5sbbZFRPNaGVptjisfa0DpyTPGY4rGjC4YHkwAJWEOA4rE1qWKgJEACcRCgeEzxOI7Lh6daQmDnzp0CzQe2atUqueGGGyyJnOKxyYmieGxydjTFRvFYE1iNbikea4TrwDXFY4rHDi4XHkoCJGARAYrHFiWLoZIACcRMgOIxxeOYLx6eaA2BHTt2SLly5VS8q1evljp16lgTO1cem5sqisfm5kZbZBSPtaHV5pjisTa0jhxTPKZ47OiC4cEkQALWEKB4bE2qGCgJkEAcBCgeUzyO4/LhqZYQ2L59u5QvX15F+/nnn0vt2rUtiZwrj01OFMVjk7OjKTaKx5rAanRL8VgjXAeuKR5TPHZwufBQEiABiwhQPLYoWQyVBEggZgIUjykex3zx8ERrCGzbtk0qVqyo4l27dq3UqlXLmti58tjcVFE8Njc32iKjeKwNrTbHFI+1oXXkmOIxxWNHFwwPJgESsIYAxWNrUsVASYAE4iBA8ZjicRyXD0+1hMDWrVulUqVKKtr169dLzZo1LYmcK49NThTFY5Ozoyk2iseawGp0S/FYI1wHrikeUzx2cLnwUBIgAYsIUDy2KFkMlQRIIGYCFI8pHsd88fBEawh8++23UrlyZRXvhg0bpEaNGtbEzpXH5qaK4rG5udEWGcVjbWi1OaZ4rA2tI8cUjykeO7pgeDAJkIA1BCgeW5MqBkoCJBAHAYrHFI/juHx4qiUEvv76a6lataqKduPGjXL11VdbEjlXHpucKIrHJmdHU2wUjzWB1eiW4rFGuA5cUzymeOzgcuGhJEACFhGgeGxRshgqCZBAzAQoHlM8jvni4YnWENiyZYtcddVVKt4vv/wy5c82TIArj83NEsVjc3OjLTKKx9rQanNM8VgbWkeOKR5TPHZ0wfBgEiABawhQPLYmVQyUBEggDgIUjykex3H58FRLCEAwDqw2hpAcWIVsQ/gUj83NEsVjc3OjLTKKx9rQanNM8VgbWkeOKR7/g6tr164yZswYufDCC+Xs2bOOGPJgEiABEjCVwIoVK9KFVr58eSlSpIipITMuEiABEnBEIF++fHLkyBHp0aOHDB8+3NG5th78v//7vzJs2LB04Y8aNUrd09JIwG8ENm3aJNdcc42a1ldffSVVqlSxZooUj81NFcVjc3OjLTKKx9rQanNM8VgbWkeOKR7/g6tFixYyZ84cueCCC+T8+fOOGPJgEiABEiABEiABEiCBxBDInj27evEPgWbChAmJCcLjUSkeewycwyWcwBdffCE1a9ZUcXzzzTdSqVKlhMcUbQAUj6Ml5f1xFI+9Z57wESkeJzwFjgOgeOwYmZYTKB7/g5XisZbLi05JgARIgARIgARIQCsBisf/xcuVx1ovNTpPIIH169dLrVq1VARbt26VihUrJjAaZ0NTPHbGy8ujKR57SduQsSgeG5IIB2FQPHYAS+OhFI8pHmu8vOiaBEiABEiABEiABLQSoHhM8VjrBUbnRhBYu3at1K5dW8Wybds2QQkuW4zisbmZonhsbm60RUbxWBtabY4pHmtD68gxxWOKx44uGB5MAiRAAiRAAiRAAgYRoHhM8digy5GhaCKwZs0aqVOnjvL+/fffS7ly5TSN5L5bisfuM3XLI8Vjt0ha5IfisUXJ+jdUisdm5IziMcVjM65ERkECJEACJEACJEACzglQPKZ47Pyq4Rm2EVi9erXccMMNKuwdO3YI9B9bjOKxuZmieGxubrRFRvFYG1ptjikea0PryDHFY4rHji4YHkwCJEACJEACJEACBhGgeEzx2KDLkaFoIrBq1Sq56aablPedO3dKmTJlNI3kvluKx+4zdcsjxWO3SFrkh+KxRcn6N1SKx2bkjOIxxWMzrkRGQQIkQAIkQAIkQALOCVA8pnjs/KrhGbYRWLFihdSrV0+FvXv3bildurQ1U6B4bG6qKB6bmxttkVE81oZWm2OKx9rQOnJM8ZjisaMLhgeTAAmQAAmQAAmQgEEEKB5TPDbocmQomggsX75cbr75ZuV9z549UqpUKU0jue+W4rH7TN3ySPHYLZIW+aF4bFGy/g2V4rEZOaN4TPHYjCuRUZAACZAACZAACZCAcwIUjykeO79qeIZtBJYuXSoNGjRQYeP5tUSJEtZMgeKxuamieGxubrRFRvFYG1ptjikea0PryDHFY4rHji4YHkwCJEACJEACJEACBhGgeEzx2KDLkaFoIrBkyRJp2LCh8r53714pXry4ppHcd0vx2H2mbnmkeOwWSYv8UDy2KFn/hkrx2IycUTymeGzGlcgoSIAESIAESIAESMA5AYrHFI+dXzU8wzYCn3zyiTRq1EiF/fPPP8ull15qzRQoHpubKorH5uZGW2QUj7Wh1eaY4rE2tI4cUzymeOzoguHBJEACJEACJEACJGAQAYrHFI8NuhwZiiYCi4PLXr0AACAASURBVBYtksaNGyvv+/btk6JFi2oayX23FI/dZ+qWR4rHbpG0yA/FY4uS9W+oFI/NyBnFY4rHZlyJjIIESIAESIAESIAEnBOgeEzx2PlVwzNsI7Bw4UK5/fbbVdj79++XwoULWzMFisfmporisbm50RYZxWNtaLU5pnisDa0jxxSPKR47umB4MAmQAAmQAAmQAAkYRIDiMcVjgy5HhqKJwPz586Vp06bK+2+//SYFCxbUNJL7bikeu8/ULY8Uj90iaZEfiscWJevfUCkem5EziscUj824EhkFCZAACZAACZAACTgnQPGY4rHzq4Zn2EZg3rx50qxZMxX2wYMHpUCBAtZMgeKxuamieGxubrRFRvFYG1ptjikea0PryDHFY4rHji4YHkwCJEACJEACJEACBhGgeEzx2KDLkaFoIjB37lxp3ry58v77779L/vz5NY3kvluKx+4zdcsjxWO3SFrkh+KxRcn6N1SKx2bkjOIxxWMzrkRGQQIkQAIkQAIkQALOCVA8pnjs/KrhGbYRmD17trRs2VKFffjwYcmbN681U6B4bG6qKB6bmxttkVE81oZWm2OKx9rQOnJM8fgfXKihhVpasJIlS0q2bNkkR44c6lOqVCm544475N5773XElgeTAAmQAAmQAAmQAAm4Q2DLli2ybt06+fHHH+XkyZNy6tQp9fWDDz6Q8+fPS5s2bWTKlCnuDGa4l//93/+VYcOGpYty1KhR0rVrV8OjZ3gk4JzArFmzpFWrVurEo0ePysUXX+zcSYLOoHicIPBRDEvxOApIfjuE4rF9GaV4bEbOKB7/k4dg8ThcZvCWu1y5ctKgQQPp3r27XHLJJWYkklGQAAmQAAmQAAmQgE8InDlzRhYvXixr165VgvEXX3yhhOJwhpf8U6dO9QmB8NOgeJwUaeYkgwjMmDFDWrdurf7l+PHjctFFF1nDh+KxuamieGxubrRFRvFYG1ptjikea0PryDHF439wRSsep4VbrFgxdSPTt29fCsmOrjweTAIkQAIkQAIkQAL/JQDBGLvApk+fLgsWLFAri50YxWMRrjx2csXwWJsI4PfC3XffrUI+ceKE5MqVy5rwKR6bmyqKx+bmRltkFI+1odXmmOKxNrSOHFM8/gdXkyZN1INKPIZyF126dJFevXrF44bnkgAJkAAJkAAJkEDSEFi+fLmMHTtWUNP09OnTMc+b4jHF45gvHp5oPIH3338/pYQgXiyhtKAtRvHY3ExRPDY3N9oio3isDa02xxSPtaF15Jji8T+41q9fL926dZOsWbNKhQoV1HaoY8eOqc/OnTvlwIED8tdff0XFNmfOnNK5c+eQteiicsCDSIAESMAFAr/++qsUKVIknafx48dLhw4dXBiBLkiABEggdgJz586VIUOGqLIU0Vjx4sWlevXqUrlyZcmTJ4/ato7Vh19++aVg1TJe4ON7yWAsW5EMWeYcgwlMmzZN7rvvPvVPf//9t1VwKB6bmy6Kx+bmRltkFI+1odXmmOKxNrSOHFM8jh7Xrl27BPW2Vq5cKWvWrFHCcjiDEI2bhbfffjv6QXgkCZAACbhEgOKxSyDphgRIwFUC7733ngwePFi2bdsW1m+dOnXUzjAIxldffbUUKFDA1Thsdkbx2ObsMfZYCKAZZrt27dSp586dUwt+bDGKx+ZmiuKxubnRFhnFY21otTmmeKwNrSPHFI8d4Up18Pbt2+XFF1+UhQsXqpXJGRkedtDopXTp0rEPxjNJgARIwCEBiscOgfFwEiABrQSOHj0qbdq0CVsmrHHjxtKiRQtp1qyZFCpUSGs8NjuneGxz9hh7LAQmT54s7du3V6f+8ccfkiVLlljcJOQciscJwR7VoBSPo8Lkr4MoHtuXT4rHZuSM4rE7eYCQjCYOX331VUiHmTJlkrfeeksefPBBdwakFxIgARKIQIDiMS8REiABUwhs2rRJicJ79+4NGVLXrl2lf//+FIyjTBjF4yhB8TDfEJg0aZLa0QlDKUE8W9liFI/NzRTFY3Nzoy0yisfa0GpzTPFYG1pHjikeO8IV8eCNGzeqelw//PBDyGPr168vn376aUQ/PIAESIAE4iVA8ThegjyfBEjADQKoa/zUU0+FdHX//ffLoEGDpESJEm4MlTQ+KB4nTao50X8JTJgwQTp27Kj+xprHvCzcIkDx2C2SFvmheGxRsv4NleKxGTmjeKwnDyhl0apVq5Bdw6tUqZLhCmU90dArCZBAMhKgeJyMWeecScAsAj179pThw4enCwr3QlOnTpUrr7zSrIAtiYbisSWJYpiuERg3bpzawXnBBRfI+fPnXfPrhSOuPPaCcmxjUDyOjZvVZ1E8ti99FI/NyBnFY715QIMXdAFPa6jZhe1XNBIgARLQRYDisS6y9EsCJBANgeCVgsHHd+nSRUaPHh2NCx6TAQGKx7w0ko3A2LFjpVOnTqpcBcpW2GQUj83NFsVjc3OjLTKKx9rQanNM8VgbWkeOKR47whXTwWiq169fv3RbrLASp0ePHjH55EkkQAIkEIkAxeNIhPh9EiABXQRWrlwpdevWTeU+X758gqZXt99+u65hk8YvxeOkSTUn+i+Bt99+Wx5++GHVKA8N82wyisfmZovisbm50RYZxWNtaLU5pnisDa0jxxSPHeGK+eD58+dL06ZNU51v45vzmAHwRBIgAc8JUDz2HDkHJAES+JdA0aJFZf/+/Sk8cuXKJV988YVUqFCBjFwgQPHYBYh0YRWBN998Ux599FG58MIL5ezZs1bFTvHY3HRRPDY3N9oio3isDa02xxSPtaF15JjisSNccR0cqmFMy5YtZdasWXH55ckkQAIkEIoAxWNeFyRAAokg8MYbb0jnzp1TDb148WK55ZZbEhGOL8ekeOzLtHJSYQgEfq9ky5ZNzpw5YxUrisfmpovisbm50RYZxWNtaLU5DhaPP/74Y2nUqJG2seg4YwIUj729OqpVq5aqWR6aPhw8eFDy58/vbSAcjQRIwPcEKB77PsWcIAkYSSDtqmOsFnz99deNjNXWoCge25o5xh0rgTFjxkjXrl0lR44ccurUqVjdJOQ8iscJwR7VoBSPo8Lkr4MoHtuXz2DxePbs2dK8eXP7JuGDiCkee5vEXbt2SdmyZVMN2qJFC/nwww+9DYSjkQAJ+J4AxWPfp5gTJAHjCEAkRkO8gGXPnl1wr1moUCHjYrU5IIrHNmePscdCYNSoUfL4448LSuCcOHEiFhcJO4ficcLQRxyY4nFERP47gOKxfTmleGxGzigee5+HevXqyYoVK1IGvvjii+Xo0aPeB8IRSYAEfE2A4rGv08vJkYCRBOrXry/Lli1Lie3pp5+W5557zshYbQ6K4rHN2WPssRB49dVXpXv37pI7d245duxYLC4Sdg7F44ShjzgwxeOIiPx3AMVj+3JK8diMnFE89j4PEI4hIAeMjfO8zwFHJIFkIEDxOBmyzDmSgFkESpQoIXv37k0J6vvvv5dy5cqZFaQPoqF47IMkcgqOCLzyyivyxBNPiI2LbigeO0q1pwdTPPYUtxmDUTw2Iw9OoqB47ISWvmMpHutjG84zah0HGx60ihcvnphgOCoJkIAvCVA89mVaOSkSMJpA2vubv//+2+h4bQ2O4rGtmWPcsRIYMWKEPPnkk5I3b145fPhwrG4Sch7F44Rgj2pQisdRYfLXQRSP7csnxWMzckbxODF5yJMnT6otV5MnT5a2bdsmJhiOSgIk4EsCFI99mVZOigSMJfD1119L1apVU+KrVauWrF271th4bQ6M4rHN2WPssRB4+eWXpVevXqrJ+O+//x6Li4SdQ/E4YegjDkzxOCIi/x1A8di+nFI8NiNnFI8Tk4e02zpffPFF6dOnT2KC4agkQAK+JEDx2Jdp5aRIwFgCn3/+uVx//fUp8d1xxx0yd+5cY+O1OTCKxzZnj7HHQmDo0KHSu3dvueSSS+TAgQOxuEjYORSPE4Y+4sAUjyMi8t8BFI/tyynFYzNylozi8U8//SQ7duyQ3bt3qw7g+Pv+/fvlzz//lIsuuijlg5pa+FSpUkWaNm3qasJy5swpp0+fTvG5fPlyqVu3rqtj0BkJkEByE6B4nNz55+xJwGsCuJcqWrRoyrAVKlSQ7777ztUw4A/3bSdPnpRTp06l+po5c2YpWLCg+hQqVCjlz7iX85tRPPZbRjmfSAReeukltdAGP9+//fZbpMON+j7FY6PSkSoYisfm5kZbZBSPtaHV5jj4BnP27NnSvHlzbWPRccYEkkU8xlbKnj17CkRaiMRODTX8sE2qcuXK0qBBA2nXrp1g9XCsxpqAsZLjeSRAAtESoHgcLSkeRwIk4BYBN+9vjh49KuvWrUv5rF+/PqZap2XKlJEOHToIBJxixYq5NdWE+qF4nFD8HDwBBLBLs2/fvlK4cGG16Mcmo3hsbrYoHpubG22RUTzWhlab4yNHjki+fPmUf4rH2jBHdOx38RjbmyZOnKjlDTXqFt96663yzDPPyJVXXhmRdeCAwM1P4O/ZsmWTM2fORH0+DyQBEiCBaAhQPI6GEo8hARJwk0D16tVl8+bNKS4/+ugjadKkSdRDHDx4UKZPny4zZsyQFStWRH1etAfedttt0rFjR7nzzjujPcXI4ygeG5kWBqWRwODBg+Xpp59Wuxv27duncST3XVM8dp+pWx4pHrtF0iI/FI8tSta/oVI8NiNnfhWPR48eLT169JA//vjDE9DYEtmsWTN54YUXpHjx4mHHxEsTXP8Bq1mzpmA1DY0ESIAE3CRA8dhNmvRFAiQQDYH+/fvL888/n3IoaiB/9tlnYU89ceKETJs2TX2wQ8wLu/zyy2Xs2LFSr149L4ZzfQyKx64jpUPDCTz33HNqwQ52D6B0jU1G8djcbFE8Njc32iKjeKwNrTbHFI+1oXXk2I/icaVKlWTr1q1hOWBbZdasWSVXrlyCFcSon4Vaeaifh1rEWAmMz9mzZ+XYsWOOmGKFzaRJk1SZi7Q2ZcoUVfIi2DZs2CA1atRwNAYPJgESIIFIBCgeRyLE75MACbhNIG3dY/hfu3at1KpVK+RQI0eOFIhChw8fjiqU3Llzq14UuHdDnwrcx+GDP58/f15+/vlntaX9l19+UZ9Ifjt16iRvv/12VGObdBDFY5OywVi8IDBo0CAZMGCAWqSzd+9eL4Z0bQyKx66hdN0RxWPXkZrvkOKx+TlKGyHFYzNy5ifxGG+hIRyjRl4ow4NF/fr1ZeDAgVKtWjVHCcDWyYULFwo6iaPZHrZVhrNMmTJJ69at1SqagCG+smXLKkE6YCVLlhQ0j6SRAAmQAAmQAAmQgB8IoL4wSoYFDI3zICBD8A3YO++8I88++6wSe8MZyoOhFMbVV1+t7t1Qv9iJQUj+4IMP1AcxhLI6derIggULUsXnZIxEHEvxOBHUOWYiCeD5Db8z0HMGz682GcVjc7NF8djc3GiLjOKxNrTaHFM81obWkWM/icflypVTwm5aq127tqBOVt26dR2xCXcwxOOhQ4fKzJkzZc+ePRkemiVLFnnjjTfkwQcflAIFCsihQ4dSHYuVyG3atHEtLjoiARIgARIgARIggUQSQJPiqlWrpgoB5SGWLVsmGzdulPvuu09++OGHkCFiZfEdd9yhGmk3btxYrSp2y/Cyfvz48Wqlc1q7//77Uwnebo2pyw/FY11k6ddUAihZgZ/dUqVKhX32MjF+iscmZuWfmCgem5sbbZFRPNaGVptjisfa0Dpy7BfxeNWqVXLTTTelmjuE2wkTJkjbtm0dMYnl4Keeekqw9TJ4VXGwHzwMHT9+PJVrrKTZtGlTLMPxHBIgARIgARIgARIwlkDfvn0FDYKD7brrrstw9S9WJ6NvBERj3bZlyxbVMG/37t2phtq+fbtcccUVuod3xT/FY1cw0olFBNAsD4uBUK98165dFkUuQvHY3HRRPDY3N9oio3isDa02xxSPtaF15Ngv4jFWqaCjd8BQNgJbIYsUKeKIR7wHP/7442ql8Z9//hnWVeHChVVNPhoJkAAJkAAJkAAJ+JFAq1atZNasWWGnhlWEEISwGtlLO3nypFSsWFF+/PHHlGEhXmMxgA1G8Th0lrCIA/fgbq5Yt+F6SIYY+/Xrp14wlS5dOt2LH9PnT/HY3AxRPDY3N9oio3isDa02xxSPtaF15Ngv4jFWigRvgYSYPHfuXEcs3Dy4ffv2Mnny5JAuc+TIoeocFypUyM0h6YsESIAESIAESIAEjCGABsQ33nijKlWR1tCHAuW/Hn300YTF++qrr0r37t1TxoeA/d577yUsHicDRxKPIYp369bNiUvBwguUWEM/DuzmQ9k3/JvJhjq4ixYtUr1IDhw4oJpc9+nTJ92qd5PnwNiiI4AXO0OGDKF4HB0uHhUlAYrHUYLy02EUj+3LJsVjM3LmV/G4SZMmqVYie0l76dKl8sADD2TYzAENY1CbmeKxl1nhWCRAAiRAAiRAAl4SOHXqlDRt2lTVOg5lWJn8/PPPC3pWJMJGjRol2DEWsHvvvVemTp2aiFAcjxlJPD58+LC8//77ghXWKMeBMm5//fWXGgfNpdHUMGfOnHLBBReofzt//rz8/vvvgubOEGPxfFC5cmV5+eWXpWHDho7j8+qE+fPny9atW2Xx4sUp1xnFY6/oeztO79691Qsnlq3wlrvfR6N47PcMh5gfxWP7kk7x2Iyc+UU8xsMJbiADhpUSmFvx4sU9Aw3RuFOnTlE1ccifP7+6SaeRAAmQAAmQAAmQgB8JoOEdhMhIds8998igQYMEz3NeGfpQQEQNLlsBIRtb422wSOJx2jm0aNFC5syZo/757bffVver4Wz69OnyyCOPCERo5BFC9MUXX2wsmnPnzknBggW58tjYDMUfWK9evdTLjLJly2bYcDP+UfR4YNkKPVzd8Erx2A2KlvmgeGxZwv4vXLwFL1++fNQ3MfbN0I6I/SIer1+/XmrVqpUKOgRkrChBIztd9ttvv6n6eLNnz1Y32BlZsWLFVA3mYIOwvXfvXl2h0S8JkAAJkAAJkAAJJIRAmzZt0q3iRUmxefPmZRhP/fr1BUIyPihroctmzpyp7g9/+eWXVEPs2bNHUIPZBnMqHj/44IMybtw4NbWJEyfK/fffH3Gan332mSpf8ffff6sSFitXrhQ0ozbVAiXsuPLY1AzFF1fPnj1l+PDh6iUTdnDaZBSPzc0WxWNzc6MtMorH2tC64hgrQvG2+8svv1Q3ahk1CsNqzKJFiypRGWUHmjVrJvny5XMlBjoJTcAv4jFmd/PNN8vy5cvTTRQrJbA1csCAAVKiRAlXLoXnnntOxo4dm2rFSijHuMkeM2aMPPTQQ+rGe+3atakOQ609neK2K5OlExIgARIgARIgARKIkgCa5OG+K9gg1qLG8BdffCEQloP7VIRye9ddd6nSClj16oZhpfGHH36oyjdABE1r/fv3V6ufbTGn4jFWGuO+FRateIxjb7jhBlm9erU6D/VmUTrAVKtQoYJ8//33rHlsaoLijKtHjx7qmQllbpBnm4zisbnZonhsbm60RUbxWBvamB1PmzZN3aR9/PHHqt4W6mpdd911qozApZdeKliJia/Zs2dX9bWwKnPfvn3q64YNG1TjA1iDBg2UiIwmFhCXae4S8JN4DDJlypQJ24G3cOHC0rp1a9XABTeZV155ZUSguJY//fRT9cADXmjGEckyZ86srtl333031aHYarVr166Uf0M36BMnTkRyx++TAAmQAAmQAAmQgBUE0r4sx33XBx98kCp2iLgQa9FAOJyhyfBVV12lPtWrV0/5cyQQaJ6GBSsQmXAfFyjZEOo8m2odB+L3SjwObiqIZzeU+TC1iR7F40g/FXZ/HwtucD1ikdm2bdusmgzFY3PTRfHY3Nxoi4zisTa0jh1jSxRWZUJkq1atmjRq1Eh9sO3JiX311VeqTho+K1asUHW28MbxiSeeMLrmlpM5mnCs38RjMMUDxpYtW6LGi5tgPJygaciff/6pPmgqgm16Tg2+sFoGteFC2aFDh+SSSy5J5Rsrkzt37ux0KB5PAiRAAiRAAiRAAkYRwAKQa6+9NiUm3L9jYUhGZSjeeustJSJjAYkTw6IU+MRL+MBXNH3DWGnLhIXz+9hjj8lrr73mZGgjjvVKPIbojnrJAcMCCDQsM9EoHpuYlfhiwu8FvATCB6uO0XyzSJEialcndivjY0OpGYrH8V0HOs+meKyTrqG+KR4nPjHvvfeePPvss2ob2q233qoK2qMRhRv266+/qpIDuMHE6mMUzMf2N9w40uIj4EfxGERwc9GxY0f1EsMLw2oM3Big2Uokwwr8devWpRyGGx+nD02RxuD3SYAESIAESIAESMBrAnfffbeg2VrAsOhjxIgREcNAiTvs1poxY0bEY904AKuhcc/mZZM+N+IO+PBKPMYO0ttuuy0ldJQgxCINE43isYlZcRYTdh7PnTtX7RTArs8zZ85E5QC7HZo3by4tW7ZUu1BNM4rHpmXkv/FQPDY3N9oio3isDW1Ex0eOHBE0wEBTBaw0fuWVVxyvMo44yL8HoDg+mpOhHAbeMuKGJtB0L1ofPC41Ab+Kx4FZor42XmrgmkFzOzcN9bixGgMr7VGCJVrDVk0I28EWyyrnaMfjcSRAAiRAAiRAAiTgBQEs7Dh9+nTKUHg+uP7666MeGqW8UDN5ypQpSjxy01A/GeI27t2wItpm80o8xk46lPWAYXfd77//Lnnz5jUSHcVjI9MSVVCox42XR/h9ETAsQoPGgwU6gXKXWHCDazCwIhmNx1H6Bo3TA1axYkVVohALzUzpnUTxOKrLICEHUTxOCPbEDkrxODH8t2/frlYZQ4DEauChQ4d6EkjgRgbb1FBDLfiNuCcB+GgQv4vHwalCbe1+/frJ5s2bBavZjx49KmfPno2YTZSzwENG6dKlBTckqJeMB49ChQpFPDfUAXjhkvZmBjX50ACCRgIkQAIkQAIkQAI2EsB9VVphEY3qMipZEWmO6Jny9ddfyzfffCPfffedKkmGP6MEWDhDKQssMilZsqT6WrVqVSUa58mTJ9KQ1nzfK/EYZdXeeOMNxeX2228XrBAPGOpKIy9YnIE/4wMBF8IdbOPGjfLRRx/JuXPnVOND3D9nZLgfx6KghQsXqudK3HujPAYWKN1yyy2CXiKRLJR4jOvlk08+UaVMcO+NawHlFLNlyxbJXarv4xkCtbNRlgXzLFiwoFxzzTWqv8lll13myBcP/i8BNG9E2Zo9e/ao3x3169dX+WnSpIkqTxGt4ffM4sWLVa5R8hKiMn7eUfISn1h/B0U7fqTjKB5HIpS471M8Thz7hI1M8dh79PjlfOedd6pmeFgdgM7JXhreMOI/FmxvwbYziII05wSSSTzOiA5KreBmEI3wUBYFNy/4itrEEIx1GGosB2/FwgsRPNjQSIAESIAESIAESMBGAt9++61Urlw5JXS8FMfLcR12+PBhOXXqlHoOCXxFE26IxQUKFNAxpFE+vRCPIfqi0TnEUrDdtGmTWkQRsNGjR6vFQ8H3s4888ogSm7GgCI2mO3ToIH379hX0soFQeP/996fjCNG4S5cuqtxhz549pUaNGqr/yOeffy5DhgxRK01RuhClCcJZsHgM0Rv1rHEvDwEaK1Z3794t48ePV/PArkHECpE6nKGONp4zX3zxRVUW4emnnxY0v8YCKviAYIkVs2juToueAIT4gQMHCnYVQ9THNYLcu2XYcYrdyvCP3we4TnE9JKrkJcVjtzLrvh+Kx+4zNd4jxWNvU4T/JPGff+7cuWXevHlSt25dbwP4dzQIn1h1jLfenTp1krfffjshcdg8KMXjxGSvRIkS6q14wPgCJDF54KgkQAIkQAIkQALuEFi+fLncfPPNKc4g2qF+Kc19ArrFYzSOxrMVSq1hlS52emYkkO7cuVM9C2J1LwRZNExctWqVEmrx8gCiLiztymX826hRo6Rbt27Sv39/VWYuraGsW9euXQVlDSZPnpyyqjkU0YB43KpVK8GLjNdff13q1auX7lAIwRArsWp40qRJkiVLlpAJwtg4Bgs8Xn31VVUGIdjw/RtuuEHWrFkjENLZ/Dq667xp06YpK9ghGCP3usrI4BrAdYXV8dCLVqxY4ajUYHQzinwUxePIjBJ1BMXjRJFP4LgUj72Dj5uBm266SQoXLqxuDK644grvBg8xEmqjoXQG/uMePny42ppCi54AxePoWbl5JG6SsMUqYGgMwVULbhKmLxIgARIgARIgAS8JYGVncLOqq6++WpUuoLlPQJd4jOcqrARG43PsysMiHaz+DV5RHmo27dq1UztR27dvrxZHYIdq1qxZVXk4CMtYeTxu3LiU+snwgRIYeMGA50q8eMjIsPq3SpUqqik7auLWrFkz5KEB8Ri7+1auXKlWMGdkGBclNTC33r17hzwM4vcDDzygBGI884YyrEAGG5RKCZRecD/b/vCIXQJ4ZseKcuzsXLBgQcqLBZ0zRLnAe+65R12TWLwDAVnXztKM5kHxWGeG4/NN8Tg+flaeTfHYm7ShIH316tUFW8VwE4D/yE0wxIMbVPynjTpH+I+JFh2BZBKPf/zxR/V2G6sRcM2gTAW2OmJbHlZYBAwNQfDBSgR8UMYC1xduoB966KHowEY4Cv6Dm+SxYZ4rWOmEBEiABEiABEgggQSCywBgizgEIzds3bp1qinW2rVrBfdzweUqcC+HesswlFlAPVr0pcBXfFBq4a677mLN4/9bvQsDm7QrPSHQojwEuKIJNART3POGq1McnFesOEZpCZSJgLCNMgHBhnvtCy+8MOWfkDPUNEYPEoh6DRs2DHuZBJpNX3nllaoONu6j01pAPMZq4ffeey+sP5TUgAiNaxTPBWnFRFxPWCCFFaszZswQrGbOyMBq9erVMmDAAFWKgZaeAARc7EpA3xnUv8ZKTdsOkwAAIABJREFUduxg9tKQG6xCxvW/ZMkST3UMisdeZtrZWBSPnfHyxdEUj/WnEUIbGgPgre/MmTNVvWOTDDWNIPDBcHMZXJPLpDhNi8Xv4vH+/ftVzSu83UbNNjcMTRdQxw/dp5988knHLrFKoXz58innQaD+448/HPvhCSRAAiRAAiRAAiRgEgHc3+A+J2BoNFasWDHHIWJ1IFamYpUihGM3DKIVREB8dG2TdyPOaHzEs/L4pZdeUjWGQxnE1Eh1gEOd9+ijj8qbb76pvgVxP1ITuddee02Vq0BJDAi1kRrY4ToK+MzoOTQgHgfqLkfiiF20EIdbtmwps2bNSnU4eum88MILSqSG8BlO6AwcW6dOHSUi01ITwAuJ6667TjW7DLfS2wtuaMiIlwtYtINdy3gZ4YVRPPaCcmxjUDyOjZvVZ1E81p++QLddvLXDm1UTDW+u0aEVDRfwHxQtMgG/isdYhY4V6HjZodNwg40XFQ8++KB07949qqFwkzp79uyUY9HIAY0faSRAAiRAAiRAAiRgM4HgeqaYB4RKCJ3RGEoNoNHV9OnTBS//dRp6t6A0A1bK2mjxiMevvPKKEm7dtIB4jJIRWFUcyVCqIlD+MPhlQ7jzAiXfMlpZ7FQ8RgM81OSGcH3o0KFUzdRQigIrkvHiA8J1OJs6dapqHA8xWvd1G4mrid9HrWuItqaU6MOzIVadY2fpl19+qRr26TaKx7oJx+6f4nHs7Kw9k+Kx3tShEQIYX3XVVeqXrMmGN+kojo+mCm3btjU5VCNi86N4/MQTT6jGFl6XgsDqBHSCRlMPrEwOZeCNrXHBsaE+HBp20EiABEiABEiABEjAZgK4n4FQEjCs2EQt5IxEWoh2WIWKpte//PKLp1PPnz+/atgGMdI2M1U8Llu2bMSFG7gHhmCLXXeoS4zaytEYylxgcUipUqXU17TmVDx++OGHU5qtYxUqVsfCEBfiQ5wog4KmbuFs69at8s4776gV26jxjFrPtH8IgB16EiV6xXHafGBHw/XXXy9erRaneGzuTwTFY3Nzoy0yisfa0CrHaOQ1b948VWesVq1aegeL0ztuQlEMH28TIXpnz549To/+Pt1v4jFuAnADmJFlzpxZrRTG7wxcJ/gKobdq1arqwWbXrl1qCxvqvuGDP+MGAyvZ0UUaN4XRGPzhRjJts47AFrmAD5asiIYmjyEBEoiVALZ+pzVsKy9SpEisLnkeCZAACYQlgPsqlJMLGOrZYndgsEEoHjZsmKqTG81KVdy7oe8KFrKg50qePHkEZcTQqAwf7OI6ffq0ulfD6k/4xwdxoHQZ+rZkZBC4EItNZqp4fO2110YsM4Iycqg7C0MzvXDN8oJzEriuIOyeOXMmXbqcisd9+/aVF198UflB2QrsDITh+ilatKj6c7Vq1ZTwGY3hRQkWkdD+IRBYkR1NDepEMMNin06dOqnFZlh0ptMoHuukG59visfx8bPybIrH+tKGOmN4E4ttaBCQbTDcCOCGwLS3nCay85N4jFp2aJiY1vBwUb9+fVVaokmTJnGlAXXPUGvt3XffFTTbCHXzGjwAfjfhgQmrjfHQg0YRwYabFqy2oZEACZCA2wTQiCiUSIwO8h06dHB7OPojARIgAUXg/fffV30hgg1lDbAzEPVtIdZCuAlnqEWKsgLY8g7BON7FICiNgK3zEAmxKCCtPf/884LatbaYqeIxFhlhsVE4w0IfiP2waI4P+Ao872fUiNGpeIyeKAFhGPW1ca3B0OcHLydgXq1MteW6izbOffv2qZIf6JeE5yVTDbtVUcYF5UvuuOMObWFSPNaGNm7HFI/jRmifA4rH+nIWELxQHwhbkWwwCHqI9fjx42pbE7al0UIT8It4jJsUbC1LW6qiRYsWqn6eLlu2bJnajoWvGQnJKGeBn6ONGzemCoO10XRlhX5JgARAgOIxrwMSIIFEEUBj7bT3X+gNgZ4PuPcMZdi1BdEZ5+p85hgzZox07do1VQhYNYq4vKh/6kZObBaPMX8IwFgpjpcEqC0cjWG1MlYt47k/eGV74Fyn4nGg1CHO/+qrr9SK9oBhBytedGC18/fffx9NeDwmiABK8mE1b6DMiMlwUA4FpUairb0dy1woHsdCzZtzKB57w9moUSge60kHalBh+9Ftt92mtnzZZFhB0L9/f1X79vHHH7cpdE9j9Yt43K5dO5kyZUoqdjNmzFAdtb2yXr16qesNtdIiGbbcoRt1YNtepOP5fRIgARJwSoDisVNiPJ4ESMAtAihFgS38EOUi2RVXXCEvvPCCEo29MgiW2Fl54sSJlCFR/zitqOxVPE7HsV08DuwWRMk4CMKR7OTJk4KGeefPn1elBkLt2nMqHqPJOnYH4l4cJU6w2CNggZcfELmx65B1jCNl6L/fxy5LLJrB8zeei0w3NOi8++67BS+VOnfurCVcisdasLrilOKxKxjtckLxWE++AgIsardiy79NhptCdMq1Ufj2krNfxGOsFkBd4oChRlnaEhFecX3kkUdk3Lhx8ueff4YcEg011q9fn64eslfxcRwSIIHkIEDxODnyzFmSgKkE9u7dK1dffXWG4mDJkiVl4MCBqRrseTmXQDOvwJg2lRKzXTxG+ZDAAg/0G8Hqz3CG+v316tVTTelQdiTQ3C74nIB4jEZ4b775Zlh/WFWMHYt4eYDSBSNGjEh1/JIlSwS1umGrVq2SG264IeKlidIsECCDReiIJ/nwAOQGz2RYJGPL7l88R6JeOlZK4yWF20bx2G2i7vmjeOweS2s8UTzWkyr8R7l69WrVOMyWX/7BJFBnFg0y0pYy0EPLTq9+EY/ReTl4G2Q0N446M/bBBx/IPffcE3II1O3DjfKll16qMwT6JgESSHICFI+T/ALg9H1NYNu2bfL000+nmyPqA4f690TAwGrR66+/XrZs2ZJuePSjgCAIcTlRlvZeDQ3TIGraYLaLx2CM0nJz5sxRO0UHDRoUFvsDDzwgqNePleFYIR7KAuJxqAaNaY8fOXKk9OjRQ9U2RmnGggULpnMZEPywuxG9TsIZduii6WKoJrU2XE9uxfjRRx+p2sHIJ/Jqiy1dulQaNGggffr0SWmi6GbsFI/dpOmuL4rH7vK0whvFY/fThBs+3NjZ3CgAZQRefvllVY8Wb6tp6Qn4RTxGfoNv2CDQopaa14abD6xcwZvrcIYtchB2aCRAAiSgiwDFY11k6ZcEEk/gs88+kxtvvDFdINiK//HHHyc+wP+LICAOhgsGNY4HDBigast6bTVq1EjVjwLNtgcPHux1GDGN51Q8DtSgxWAvvfSS4Hw3LSCOoVzBpk2bonK9f/9+VfMYO/XQFwTP86EMu/VwrRctWlTVR8bzaSgLiMdYPIRds2iWHcqwKAo7FNEvBc3gA43y0h57+PBhqVixolo5j/v7m266KaQ/9NjBWBC3K1WqFNXc/XpQoBzJwYMHU5oi2jJXXD+4JpF3t43isdtE3fNH8dg9ltZ4onjsfqrWrFmjhGOIr08++aT7A3jgEduasOIBDc3wdpmWnoBfxGN0SW7atGmqCZYoUUJtbcO2NN0G4RqlXbCiOFqD4I0XGzQSIAES0EGA4rEOqvRJAmYQMF08Rg3jfv36RQ0LqzufeeYZrY3yAsFA7EOJsalTp6aKL23TtKiDT8CBkcTjv/76Sw4dOiSoPY1GYBCPA4sWsDp99OjRgvtkLLZA3eFYDIs0wBK7PO+66y5VpuDCCy+UCRMmSK1atZTIi8Zz+LeM7Msvv1QrVXPkyCEzZ84UNE0MtpUrV6qdfCglgNW94RopQvzDfD799FNp1qyZehGQVvDFcw9WmIMJeqU0b9487NS/++47JS6jzAWuF7ycCTb4w7WL6+m+++6LBaOvzkFZEdQ6x/OXbRb4mVq7dq26ft00isdu0nTXF8Vjd3la4Y3isftpQrOx1q1by/Lly6Vu3bruD+CRR/wnBuEYAjItPQG/iMeYGRquYOtZsGXJkkU1YcEqdLcN2zBxY4qbVDTTyMiaNGkiHTt2VI1g0pZQWbRokdx6661uh0Z/JEACJKCEgiJFiqQjgdVRHTp0ICESIAGLCZgsHu/evVvKlCmTii5ERAiBeK7o3r17huSxwhS1cHHPpKO8F17a42V/2h1ibdq0Sdd42eTLI5J4vHXrVoFIDOEWNXjxPIQPDPei+EBgPnfunJw5c0YyZ87seLp4tkKJFDSTC/gP3OeisR0aSE+aNEk1IwtnWOmJPjuTJ09Wjdpr1qypYkOtYZRngTCL+3g0rwtnEI8himMVMO7LcZ1B9EUNXjSqxopolFXAfflzzz0nKHkXjR07dkw9S2A1c/ny5dXiKgjjeA6AYI4+J2lF72j8+u0YPA/dcsstquwDyj/YZoHfqc8++6x6keWmUTx2k6a7vigeu8vTCm8Uj91P0yuvvKIaCGB7ELYU2Wq5c+dWb4zff/99W6egNW4/ice4gcO2R9wEpzXcFF9zzTXqmo50E5sRcKwqxksVPPzgjTpWW4QzNILBDWVg29x7770nbdu2TXUKfnft2LFDa47pnARIIDkJUDxOzrxz1slBwGTxGGLfW2+9lZKIXLlyqZ1WEAVhEG7RKC9SHVmsYMSuMpRCwD1crP1XsKIY9Y1xH4Z7xbSGUgO4t4vVfyKuuEjicSJiindMiM0bNmwQNFrEfTvEXdTEjqcB3S+//CLIP0pV4GUErkFcj7FYID5cQxCj8cxh8zNyLAzCnRO4Jm3WDvCSCzl1e+U0xWO3rzb3/FE8do+lNZ4oHrufqkC9YDx8oj6rrYbuvcWKFRPcZNPSE/CTeIzZYYUCHjJCCciB2WOFBLbo4SEBq/JwfeA6wSplrFDAagUIw1hpgM/OnTtVvTOsgojGUCbj9ddfT1dGA+ditd/EiRNTufniiy/UQxGNBEiABNwkQPHYTZr0RQJmETBVPIZYl3bF8JtvviloZJzWUDoAInK0Czxwf4V7vMqVK6tGZ1j9CSEw8BWrXX/++WdVtxRx4IOyAxgnI4NwDGE7VMM0szKeOho/iscm82ZskQlg1TFWvKOWtK2GEiQoZ5J2p2i886F4HC9BfedTPNbH1ljPFI/dTw3qNk2bNk01CIjnja/7kTnziNUP2JKFLXS09AT8Jh4HZohSK1hF4pVBeMY2NpSxwNdwBvEazUEChqYdmzdv9ipUjkMCJJAkBCgeJ0miOc2kJGCqeBxYfBJICgRfrCQNZ/g+yhvggxf2Xln//v1l0KBBXg3n6jgUj13FSWcuEMCKXZQQnD17tgveEuMCvZ7wOwylVLAK2S2jeOwWSff9UDx2n6nxHikeu58i1GFdvHix+44T4BErEiKVGEhAWEYM6VfxGHDx4gMPBtgCF+2qYadJQX21Rx99VB577LGoT8WxqMkWMAjP2ApHIwESIAE3CVA8dpMmfZGAWQQyEo+xLf+ll15KWLBozBYsFqP2qZPeDt988426f8MzCBqyuW3YTXnzzTerknZeNFR2O/6AP5QFCbVi+/HHH5cWLVroGpZ+IxDArsYqVaokJad8+fKpaw99FWw1lBtETXS3S29QPDb3iqB4bG5utEVG8dh9tIGVx3379lWNEGw1bJVDs4hQNc5snZObcftZPA7mhNUsKCWxceNGwbbGWAz1zQoXLqzeqqOhC0TgWN9KB5qWBOJwe3tULPPjOSRAAv4iQPHYX/nkbEggmEBG4jEpkQAJJI5Ao0aN5OOPP05cAAkc2Q9N6j/88EPVrPOTTz6Rhg0bukaT4rFrKF13RPHYdaTmO6R47H6O0FgMTfN++uknVRPWVkPTMtS1Xb9+va1T0Bp3sojHwRBxTaNJHUqZYP74O+rjoZQEVqkHPhdffLHgU7Zs2Zib7GWUPLzQCF5tvG7dOtVhmkYCJEACbhGgeOwWSfohAfMIUDw2LyeMiASSVTxGU3E8L6G3C3Yf2GqbNm2Snj17qobnHTt2dG0aFI9dQ+m6I4rHriM13yHFY/dzNGTIEHnqqacEv0TRnMJWw1vQO+64Q+bOnWvrFLTGnYzisVagUTrHCubffvst5ehRo0ZJ165dozybh5EACZBAZAIUjyMz4hEkYCsBise2Zo5x+5lAsorHWARz3XXX+Sa1KP2DuuJuGcVjt0i674fisftMjfdI8dj9FE2cOFG9PVywYIHcdttt7g/ggUcUu0ftqYceekhQG4yWngDF48RcFUWLFlWrnQP22muvOaqbnJioOSoJkIBNBCge25QtxkoCzghQPHbGi0eTgBcEklU8xo7OcuXKCcpedurUyQvUWsbATmXUaX/nnXdU7WO3jOKxWyTd90Px2H2mxnukeOx+ilCvCaLx4MGDBXWPbbTly5erphjPPPOMPPvsszZOQXvMySYer127Vr0QCZSqOHjwoOqoe+zYMVULGeUkUNsYnxw5cqgPSp80bdpU2rRp41o+4P/cuXMp/tAgplKlSq75pyMSIAESoHjMa4AE/EuA4rF/c8uZ2UsgWcXjo0ePqj4wEFwhvNpq7777rtx///3y0UcfSZMmTVybBsVj11C67ojisetIzXdI8dj9HP3+++9yySWXyA033CCrVq1yfwAPPGK7ybBhw2TevHlK/KOlJ5As4nGPHj0Eq+khFMdjuDHCm/UGDRpI9+7d1c9ILMaGebFQ4zkkQAJOCFA8dkKLx5KAXQQyEo+x465KlSoJm8znn3+eqqcDGgxnypTJcTx4oY97NohSeMF//Phx+euvvxz7CZyQL18+wa6vQoUKxezDpBNRY3bv3r3pQsIzsc29akxiHEssNWvWFJQ8SEbDsw2et/HcbasNHTpUevfuLV988YVcc801rk2D4rFrKF13RPHYdaTmO6R4rCdHderUkTVr1siRI0ckT548egbR6LVy5cqCm6tTp05pHMVu134Wj5cuXSpo/IhVvboMDyL33HOPWp0frZD85JNPyogRI1JCypkzp5w8eVJXiPRLAiSQpAQoHidp4jntpCCQkXic6JWPtWvXFuzyCth7772ntrJHY2fOnJGFCxfKtGnT1C6x06dPR3Oao2PwPIN4unXrphYD2GqBBTJp42cPDVszan/cpUqVUi9nNmzYYO1ksNho5MiR6sVM8eLFXZsHxWPXULruiOKx60jNd0jxWE+OXn75ZenVq5fMmDFDWrVqpWcQTV737dun3rzfeeedMnPmTE2j2O/Wr+Jx/fr1ZdmyZZ4mCOUtnn766Yg1srJnzy5nz55Nia1evXqex+opGA5GAiSQEAIUjxOCnYOSgCcETBWPAw23AxCuuOIK2b59e1gmGzduVILN7NmztQjGGQ2Oe7bnnnvOk3y5PQjFY7eJ0l+8BK699lrZunWrnDhxIl5XCTsf5S5R9vLvv/92NQaKx67idNUZxWNXcdrhjOKxnjz95z//kdKlS0vHjh1l3LhxegbR5HXs2LGqYP+UKVNcrVWrKdyEufWbeIxGB3Xr1hWsXsnIsmbNqlYJY2tnkSJF1EuGyy+/XLJkyaK2R2KlPbZHYpskPjt37pQDBw5EvV0Sb93RAO/uu+9OF8JTTz0leLAKNvgvU6ZMwq4BDkwCJOBPAhSP/ZlXzooEQMBU8Rj3UVixFywgYSUxdmmltW+//Va9dJ87d25USb3sssvkqquuEuwsxAriiy66SHLlyqU++DNKXfz888+qIfEvv/yiPt99911Y8bpixYpqlTNWTdpkFI9tylZyxNqlSxd5/fXXBTs/IcLaZtipjN8lVatWlS1btrgaPsVjV3G66ozisas47XBG8Vhfnm699VZB/bLdu3dbVSfsyiuvFNRthgCOlZ600AT8JB7Pnz9fmjVrph4e0lrmzJlV7SpsU7z33ntjuhxQAgWr8FeuXKnKuUBYDmd4yHn77bcFW0hh+DlCDfHgt9nVqlWTzZs3xxQPTyIBEiCBcARQDgd1/9Na8+bNBb97aCRAAvYSMFU8BtG0wiZe1qOGKF7Uw3A/NWDAAEFJi3CGeyY0765evbq6h4OfWOzrr7+W999/X6ZOnSq4701rWFCwYsUKwbODLUbx2JZMJU+cS5YskYYNG0rPnj1D3nuYTmLOnDnSokULGThwoPr95KZRPHaTpru+KB67y9MKbxSP9aXpq6++Ug+ZnTt3ljFjxugbyEXPkydPlvbt28vo0aMFb0FpGRPwk3iMh4q0DfEgGj///PPSp08f1y8DbMPEKmKsWMHK5IwMDz6vvPKKeij5448/Uh22bt06wTYvGgmQAAmQAAmQAAlES8Bk8Rgrfi+99NJUU8EOK9RChoCLhsMZGV64o1QeFgNE20siWmY4DiXNHnzwQdmzZ0+q02xrEE7x2EnWeaxXBLAjAItnsKvANnv44YfVoh+sOsbqYzeN4rGbNN31RfHYXZ5WeKN4rDdNLVu2VHXIIJahdpnphjIE6Owcqgux6bF7HZ9fxOO33npLHnnkkVT4cPOCFcJuNjzIKD/btm1TZSqcNOfD8VgJQyMBEiABEiABEiABJwRMFo8xj3feeUceeuihVFO6+OKLM9y1hXu4Z5991pNdjihNhtJ2H3zwQar4sPr4pptucpKGhB1L8Thh6DlwGAJt27ZVOwrcbjjnBXToByhhGGp3QrzjUzyOl6C+8yke62NrrGeKx3pT8/3330uFChXUKgBs6TDZAo06JkyYIPhFTQtPwC/icaDBQWC22bJlC1v3WNd1gaYvbdq0kR07doQdombNmoL6zDQSIAESIAESIAEScErAdPEY8+nfv7/a/RXO7r//fhk0aJCUKFHCKYK4j8e9GMppBMymBnoUj+NOPx1oILBhwwa1o7J3797perxoGM41lx999JHccccd8vLLL8uTTz7pmt+AI4rHriN1zSHFY9dQ2uOI4rH+XLVr1041n8PbxPvuu0//gDGMgC0yaKKBJn+o0UyLTMAv4jEanQS/KcbWozfffDMyAE1HzJw5U+66666Q3rENM1yZC00h0S0JkAAJkAAJkIBPCKCvx6pVq9LNpnDhwlK7dm1jZglBBsJMWkODO8SPBniJMuz+Cu6Dceeddwru32wwisc2ZCk5Y2zatKmgD81PP/2kmpLbYNCSsCNBV68kisfmXgUUj83NjbbIKB5rQ5vi+ODBg1KjRg31S3XTpk2qeYVJdujQIVWbGXHiZhSNNWiRCfhFPK5SpUqqkhE6OuVGpvnPEbhBwEuWP//8M8NTZs2aJSgHQyMBEiABEiABEiABPxJAuTs8O0CUCWVYbdyvX7905S28YtGrVy+10jBgqIWMchs2GMVjG7KUnDEG+iWhhAX6EJlugdKHr7/+ujz66KNawqV4rAWrK04pHruC0S4nFI+9ydcPP/ygRFmsFti8ebMndcminRkaXaxevVqtbmjSpEm0pyX9cX4Rj++55550tevGjx8vHTp08CzHeOiYNGlSWNE4EMwFF1wgn3/+uVx33XWexceBSIAESIAESIAESMALAvv371fCMVYfRjL0qBg4cKB07Ngx0qGufR9lxurVqycnTpxI8Tly5MiwzfxcG9wFRxSPXYBIF9oIoK/L9OnTjVxwFjzpU6dOCXavotyhzl5JFI+1XWpxO6Z4HDdC+xxQPPYuZ0uXLpUGDRoI6oQtX75ccubM6d3gGYyEt4QoUfDSSy8JbqZo0RPwi3i8detWqVSpUrqJ498++eSTdF2/oycU/kh05X3jjTfk66+/lvPnz4c8uGDBgvLAAw+kq/2FG5WdO3d60tDPrfnSDwmQAAmQAAmQAAmEI4CVxnXq1Em1IwzPCyh/N3HiRJk3b17I04sUKSKtW7dWDYh1ld6AWNy3b18ZNWpUqhjQzA8rpRGDDUbx2IYsJW+MKB9ZpkwZgUaDFzX4+TLRsAt09uzZavFP+/bttYVI8Vgb2rgdUzyOG6F9Digee5szNKPD6gCUiViwYIE2YS7SrM6cOaNEualTp4pNW80izcvL7/tFPAazHj16CFaNhLLLL79clZNA85Z4bezYsYJVzWiyEq40RebMmQWNYMaNG6eGfPHFF9UDS7BhVQ6aS9BIgARIgARIgARIwA8E0Hhu8ODBqaaycOFCady4sfo3bGXHSuNw/UlQ0gK7ytCsG6XysmfPHheaxYsXy7Rp01RN4+DVxgGneJYIrn8c12AenEzx2APIHCIuAsOHD5eePXvKTTfdJCtWrIjLl46T+/TpoxaeYcdyqLrsbo5J8dhNmu76onjsLk8rvFE89j5NuAlEQzCUsFi0aJHnDS9+++03adSokSqfMWDAAHUTSnNOwE/iMWbfpk0b9TIhI0O5iPLly0uFChVUZ2/87ihXrpygRjIa2e3atUtwbaERDT74M8pLfPPNN/Lzzz/L2bNnI0KGaIxVM6h7nNbwwgW1wAKGeFCvO2/evBH98gASIAESIAESIAESMJ0AdlyhB0nAOnfuLGPGjEkXNl6uP/fcc6kaHmc0t4oVKyoRGQ320OciT5486hkkV65c6lOgQAE5ffq0uldDyYxffvlFfb7//nu1fR73dBnZ6NGjpUuXLqZjTRUfxWOr0pW0wWKxGRad3XfffSGfixIFBiuNIeiiHCd6JeXIkUNrKBSPteKNyznF47jw2XkyxePE5O3bb7+VW2+9VYlf7777rhKTvTAIxnhLiHHRKRmrEmixEfCbeAwKvXv3lhEjRkRVezg2aqHPypQpk/oZwDWZkW3btk3wABRsuLEKrE52Mx76IgESIAESIAESIAEvCeDFORplBRvE3MKFC2cYBkqAPfvss7Jv3z4vQxXUWsb9YqtWrTwd143BKB67QZE+vCBwyy23yKeffipPPPGE+nlLtH344Ydy5513qkVEmzZtUouHdBvFY92EY/dP8Th2dtaeSfE4canDykwIudjCf8cdd8jQoUPVSk4dhrEGDRqkVi9ceumlMn/+fM9XPOuYVyJ9+lE8DvBs166dzJkzJ+T2RLeYB1Yy4406tmlGY2hUy9J7AAAgAElEQVTQErx9q1ixYlE1lInGN48hARIgARIgARIggUQRwP0QykMErF+/fvL8889HFc6SJUsEws6MGTPCrhSOylmYg1AyDA2V0TPFVqN4bGvmki/uY8eOqRroWHQGrQC/HxLVMwnldPC8hp0La9asSbegR1d2KB7rIhu/X4rH8TO0zgPF48SnDIIuhF0IvBDtcKOIN3puGP7TGTJkiLz22mvy119/SdeuXVXtWlOL77sxZ698+Fk8DjD88ssv1fUCwRZddeMxrC5GiYmyZcuqlSq9evVy7A5xQEAO2IUXXhhVOQzHA/EEEiABEiABEiABEvCQAMqAoYlwwLDjCuXCnBqacqPhMXYbonQYSlDEYyh5gWZ8KG9WvHjxeFwZcS7FYyPSwCCiJIA64y1atFArkHU3Mw8VEvokoSEeXkzhGe7jjz9WX70yisdekXY+DsVj58ysP4PisRkpRHflYcOGqS0pJ0+elJtvvlkJbNgaUqhQIUdB4nysLEZjC9RXhuiHX/oQpbHNjOYOgWQQj4NJrV69Wq1q+eGHH1SNvV9//VWOHj2aIt6iXnG2bNnUG3G8nMiXL596yLjxxhvVdVyyZElXwGPFcrD9/fffrvilExIgARIgARIgARJIFIHg+xvcS+F+3g07cuSI6hkBMfmnn36SAwcOpPvgBX+pUqXUvVrwV9Q1LV26tBthGOOD4rExqWAgDgiggR4a6UEXwHM+dgHotuA+SWjeN2/ePM8XoFE81p3l2P1TPI6dnbVnUjw2K3VYKYyupSgZgDd7uHG84YYblJiMVZu5c+dWn+3bt6ttabVr11biMMRnnIsSGHPnzlWTql+/vnpTiQ9KVdDcJZBs4rG79GL3hu1SuNYDNmvWLGnZsmXsDnkmCZAACZAACZAACSSQAJrToSFxwGrVqiVr165NYET+HZrisX9z6/eZBddFf/DBB9XuULd2Kwezw3PWyJEj5ZVXXhG8fEJTTDTHTIRRPE4E9ejGpHgcHSdfHUXx2Ox0LliwQK32XLdunXz33Xdhg7388sulWrVqSixu2rSpqklE00eA4rE+tuE84yZp7969KYe89NJLggcBGgmQAAmQAAmQAAnYSODzzz+X66+/PiV01DcNLAaxcT4mx0zx2OTsMLZIBHbs2KEanGOhGaxTp06qFrEbIjJEYwjGEI4hGqNMBkRjrDpOlFE8ThT5yONSPI7MyHdHUDy2K6UQLFGHNrDSEm8c0WAjlppods3cvGiTXTxGZ2/cwOzevVuVrsifP79aHY+v6L6ra5sjtnKePn065YJAbb+6deuad4EwIhIgARIgARIgARKIggBKgRUpUiTlSKxCjrRoJAq3IQ85fPiw2rWI3Y34ig/KVhQsWFB9/N4XheJxrFcOzzOJwPr166Vbt26CrzCUCWzWrJnjUoGHDh1SL6pQkmLx4sXq9wHK16DcZdu2bRM+ZYrHCU9BhgFQPDY3N9oio3isDa02x/glX6BAAeUfbx3xHwXNewLJJB4/88wzgq1SaLpy7tw51XwxGkP9PtTmwor4Ro0aqZsQCMvxGGsex0OP55IACZAACZAACZhIAGXp0BwrYPH2dMCL9g0bNihxCSUw8IFIHY2hZwWE5MqVK8tdd90lTZo0ieY0K46heGxFmhhklARQy3z27Nmq7OWWLVvUWRUrVpRy5cpJsWLF1AflK4sWLapKXmLxD57nUP98z549KeIzfuaxexm7Hho0aBDl6PoPo3isn3GsI1A8jpWcxedRPLYveRSPzciZ38VjvHF+9913VYM8Ny1HjhyqyUP37t3VTYoTe/HFF6Vv374pp6BBH7oA00iABEiABEiABEjAZgJXXXVViviDeWAlIMrQOTHcs02bNk2du2nTJienhj0WwjaaH7du3VoaN27smt9EOKJ4nAjqHNMLAhCDUe5y0aJFqrk5ROLgF1LBMWB1MYRllKTA85gXDfhiYUDxOBZq3pxD8dgbzkaNQvHYqHREFQzeGgZWb2KbCd4Q0rwn4FfxGLWtevToIX/88Yd2qBB/r7vuOiUI33LLLRHHy5cvn6rBFbCaNWumvDGPeDIPIAESIAESIAESIAFDCaAUHV7cBwxiDlYOR7Jdu3ap3WEzZsyQb7/9NtLhcX8fotOECROkXr16cftKhAOKx4mgzjETRQBlKNDwbuLEiaqk4MaNG1WJQVuM4rG5maJ4bG5utEVG8VgbWm2OKR5rQ+vIsR/FY2xPjPTggbIRWbNmlVy5cqmmjNjWmDlzZlUjC1sksRIYH9RBRuOFaA019p544gkZOHBgyFOCOwwHDsBDlalvyqOdN48jARIgARIgARIggf3796ut5cG2evVqqVOnTkg4n3zyiWBH1sqVK6OCh9XDVapUUfduF110kbqPwwd/Pn/+vPz888+CGLBaER/URg5naNT19ttvRzW2SQdRPDYpG4zFCwJPPvmkjBgxQq644grZvn27F0O6NgbFY9dQuu6I4rHrSM13SPHY/ByljZDisRk585N4jPpXV155ZapVvcGU8WBRv359JeyifrETW7FihSxcuFDQSRwN9g4ePBj29OzZs6vOwa+99lrKcajLVbZsWSVIB6xUqVKqVheNBEiABEiABEiABPxAoGPHjmpVb8DQEHvdunVK8A3YzJkz5YUXXhDUOg1nt956q1SvXl2uvvpqde9WpkwZR4ggJE+fPl3ef/99VS85lEHYXrBgQar4HA2SgIMpHicAOodMKIGePXvK8OHDBboPnsVsMorH5maL4rG5udEWGcVjbWi1OaZ4rA2tI8d+Eo/RVCHUzUTt2rVl8ODBUrduXUdswh0M8Xjo0KGCh59w4m+WLFnkjTfekAcffFCVacF1H2xTp06Ve++917W46IgESIAEAgROnjwpw4YNSwekefPmjl+gkSoJkAAJREtg69atUqlSpVSHozzEsmXL1HbzNm3aZCj+YGUxStnh9xTqEmNVsVv2n//8R8aPHy/PPfdcOpf333+/2hJvi1E8tiVTjNMtAoFrHi+Qdu7c6ZZbT/xQPPYEc0yDUDyOCZvdJ1E8ti9/EN9QKgAWSzMN+2ZsZsR+EY9XrVqlmiUEG4RbrHxp27atdvhPPfWUjBw5MtWq4uBB8TB0/PjxVHFcc8018sUXX2iPjQOQAAkkJ4Fff/1VihQpkm7yEE86dOiQnFA4axIgAU8IoA8EylEEG/pDZLT6t0KFCmolMkRj3bZlyxbVOG/37t2phsJWeGyJt8EoHtuQJcboJoE+ffrISy+9pGoep/3ZdXMcHb4oHuug6o5PisfucLTKC8Vjq9KlgqV4bEbO/CIe33777aqsRMAyZcqk6t6FEk50kn/88cfVSuM///wz7DCIC7X4aCRAAiSgiwDFY11k6ZcESCAaAq1atZJZs2aFPRTlu7A77L777ovGpWvHYGdGxYoV5ccff0zxCfEaiwFsMIrHNmSJMbpJAD+bQ4YMoXjsJlT6EorHSXgRUDy2L+kUj83ImV/EY9QSRqfugGHL49y5cxMGuX379jJ58uSQ4+fIkUM9rKCMBY0ESIAEdBGgeKyLLP2SAAlEQwANiLErLNQuK/ShQPmvRx99NBpXWo559dVXpXv37im+IWCjsbENRvHYhiwxRjcJ9OvXT+1OKFmypKAEjU3GlcfmZovisbm50RYZxWNtaLU5PnDggBQqVEj5/+ijj6RJkybaxqLjjAn4RTzGNsMffvghZaK4nnBdJcpQxxjNWUIZGsagNnPg+k9UjByXBEjA3wQoHvs7v5wdCZhO4NSpU6p+8dKlS9OFilrGWEXYtWvXhE1j1KhRgh1jAcO9G3pR2GAUj23IEmN0k0D//v3l+eefl8suuyzVjgE3x9Dli+KxLrLx+6V4HD9D6zxQPLYuZULx2Iyc+UU8btq0qcyfPz8FaqLKVjzwwAPy7rvvRixbkT9//nTN88y4IhgFCZCAXwhQPPZLJjkPErCTABreLVq0KGzwJUqUkKefflo6derk6SRDla2AMIXVjTYYxWMbssQY3STwzDPPqGaX+J2B51ebjOKxudmieGxubrRFRvFYG1ptjikea0PryLFfxOP169dLrVq1Us09a9asqqu2Fw3z8NCDLt0Z1TouVqyYqsEcbMWLF5e9e/c6yhcPJgESIIFoCVA8jpYUjyMBEnCbQJs2bdKt4sUqZDTJDmVoggXhFi/hddvmzZvl7rvvTrVjDWPu2bNHUIPZBqN4bEOWGKObBAYOHCjPPvssxWM3odIXax4n4zVA8di+rFM8NiNnfhGPQbN+/fqybNmydGCvv/569aa6bt26rkLHG/CZM2fK999/L3///XdI31myZJHRo0fLww8/LLVr107XZRy19kaOHOlqXHRGAiRAAiBA8ZjXAQmQQCIIoEkemuUFW7du3eSVV16RDRs2qJf6waXGgo8rUKCAtGjRQpWza9iwoaBPhFuGe95x48ape8K0htXPof7drbHd9kPx2G2i9Gc6gUGDBsmAAQPExsU3XHls7tXFlcfm5kZbZBSPtaHV5vi3336TwoULK/8oN3D77bdrG4uOMybgJ/EYsyxTpozs3r075IRRXw8CMx4OqlSp4uiyWLVqlaqhvG7dOiUWo+FjOMucObPqHI4SFsGWNr6cOXMKtk7SSIAESMBtAhSP3SZKfyRAAtEQSPuyHKt80/aBmDBhgkAMitT4CgLyNddcI9WqVZPq1aur+zwnhueNadOmyQcffJDuBX7Aj021jgMxUzx2chXwWD8QwPMbFu5gN+dPP/1k1ZQoHpubLorH5uZGW2QUj7Wh1eaY4rE2tI4c+008xuQrV64s3377bUQOF1xwgUDkxergCy+8UPD3tHb+/Hk5fvx4RF+BA1BrGQ9JGTVcOXTokFxyySWpViqPGTNGOnfuHPUYPJAESIAEoiFA8TgaSjyGBEjATQJYWXzttdemuLz44otV2a6LLroo5DDvvPOOeqkfbRmv3Llzq/s8lCZLa3/99ZccPXpUTpw4oe7d8PXMmTNhp/fQQw/JW2+95SYCT3xRPPYEMwcxiMDgwYNVffSiRYvKvn37DIoscigUjyMzStQRFI8TRT6B41I8TiD8GIemeBwjOJdP86N4DEQoFfHEE09EbFznFk50/sWNAVbRRLLrrrtOrWAOmI03QZHmyO+TAAkkngDF48TngBGQQLIRwAv06dOnp0wb92IjRoyIiGHhwoUyZcoUmTt3rpw6dSri8fEecPnll8vYsWOlXr168bpKyPkUjxOCnYMmkMCLL74offv2VTuX9+/fn8BInA9N8dg5M6/OoHjsFWmDxqF4bFAyogyF4nGUoDQf5lfxOIANNxpoZIfaehnVJY4Vcb58+aRly5aC7txFihSJ2g0eVtJ2FXc7tqiD4YEkQAK+JUDx2Lep5cRIwFgCefPmVat/A7Zy5Uq58cYbo44XpbxQMxlC8pIlS6I+L5oDEVvz5s2ldevW0rhx42hOMfYYisfGpoaBaSIwZMgQeeqpp6RQoUKqp4NNRvHY3GxRPDY3N9oio3isDa02x8EPtQsWLJDbbrtN21h0nDEBv4vHwTPHtsjx48erG45z584JtjdGa3ny5FHdfbFVEg347rzzTnXzEosdOXJEIDwH286dOx3X8YtlbJ5DAiSQPAQoHidPrjlTEjCBAITftOUpDh8+LBBtYzGsQP7qq6/km2++UR+UJNu8eXMqcTqcXzTWKliwoFSsWFFQ19hP/VUoHsdyRfEcmwkMHTpUevfurcr/HThwwKqpUDw2N10Uj83NjbbIKB5rQ6vNMcVjbWgdOU4m8TgUGNTM2rFjh2qyd/bsWcmfP796yEG3b3xKly7tiGe0B6PG8h9//JFy+Jw5c6RZs2bRns7jSIAESCAiAYrHERHxABIgARcJbN++XcqXL5/isVSpUrJnzx4XR/ivK4jSEJchWAe+oo8FxGJ8UGvZz0bx2M/Z5dxCEXj55ZelV69e6lnt999/twoSxWNz00Xx2NzcaIuM4rE2tNocUzzWhtaR42QXjx3BcvFgdAoObvaA8hp9+vRxcQS6IgESSHYCFI+T/Qrg/EnAWwIrVqxIVUMYK33nz5/vbRBJMhrF4yRJNKeZQmD48OHSs2dPtXsTDchtMorH5maL4rG5udEWGcVjbWi1OUahezQKg6FJhu21x7SB0uyY4rFmwBm4x6rm4BufSZMmSfv27RMTDEclARLwJQGKx75MKydFAsYS2Lp1q1SqVCklPpT5+uyzz4yN1+bAKB7bnD3GHguBkSNHSo8ePQSlBFEC0CajeGxutigem5sbbZFRPNaGVptjisfa0DpyTPHYES7XDs6SJUuqmsu//PKLo6Z7rgVCRyRAAr4lQPHYt6nlxEjAWAIXXHBBSmwoH4EG2TT3CVA8dp8pPZpN4NVXX5Xu3btL7ty55dixY2YHmyY6isfmpovisbm50RYZxWNtaLU5pnisDa0jxxSPHeFy7eDgh6tMmTI5at7nWhB0RAIk4GsCFI99nV5OjgSMJFCyZEn58ccfU2I7evSo7+sPJyIRFI8TQZ1jJpLAa6+9Jt26dVNNOY8fP57IUByPTfHYMTLPTqB47BlqcwaieGxOLqKNhOJxtKT0HkfxWC/fUN47dOggEydOTPkWmrrg4YpGAiRAAm4SoHjsJk36IgESiIZAgwYNZOnSpSmHvvHGG/LII49EcyqPcUCA4rEDWDzUFwRGjx4tjz32mOTMmVM1yrTJKB6bmy2Kx+bmRltkFI+1odXmGNv0L730UuX/448/lkaNGmkbi44zJkDx2PurI23JimbNmsmcOXO8D4QjkgAJ+JoAxWNfp5eTIwEjCYwZM0a6du2aEluRIkVkz549kj17diPjtTUoise2Zo5xx0rg9ddfly5duqjfJadPn47VTULOo3icEOxRDUrxOCpM/jqI4rF9+aR4bEbOKB57m4eWLVvK7NmzUwZF+YqDBw9K/vz5vQ2Eo5EACfieAMVj36eYEyQBIwmg1jHubQI2dOhQ6dWrl5Gx2hoUxWNbM8e4YyWAXQydO3eWbNmyyZkzZ2J1k5DzKB4nBHtUg1I8jgqTvw6ieGxfPikem5Ezisfe5WHKlCnSrl27VAM2bNhQPvnkE++C4EgkQAJJQ4DicdKkmhMlAaMIDB8+XHr27JkSE1YKopRF7dq1jYrT5mAoHtucPcYeC4G33npLlcDJmjWrnDt3LhYXCTuH4nHC0EccmOJxRET+O4DisX05pXhsRs4oHnuTh5kzZ8pdd92VbjD8HGBLJ40ESIAEdBBYsWJFOrfly5fn7x0dsOmTBEhAEcCWcpSmO3LkSAqR3Llzy2effSZVq1YlJRcIUDx2ASJdWEXgnXfekYceekgyZ84sf/75p1WxUzw2N10Uj83NjbbIKB5rQ6vN8b59+6RYsWLK/6JFi+TWW2/VNhYdZ0yA4rH+q+Opp56SIUOGpBuof//+MmjQIP0BcAQSIAESIAESIAES8JAA7u0bN26cakQIyOPHj5dWrVp5GIk/h6J47M+8clYZExg7dqx06tRJMmXKJH/99ZdVqCgem5suisfm5kZbZBSPtaHV5pjisTa0jhxTPHaEy/HBV155pXz33XfpzkMzmVGjRjn2xxNIgARIgARIgARIwAYCocp1IW5sPUf9UlrsBCgex86OZ9pJAC+eHnjgARX833//bdUkKB6bmy6Kx+bmRltkFI+1odXmmOKxNrSOHFM8doQr6oPnz5+vVtacPXs23Tm33XabLFiwIGpfPJAESIAESIAESIAEbCTw2muvSbdu3dKFXrlyZZk2bZrgJTvNOQGKx86Z8Qy7CUycOFE6dOigJnH+/HlB03FbjOKxuZmieGxubrRFRvFYG1ptjn/++WcpXry48o+GYWgcRvOeAMVjd5mjIQy2VO3ZsyekY662cZc3vZEACZAACZAACZhN4MMPP1Siz7Fjx9IFeu+998qAAQOkXLlyZk/CsOgoHhuWEIajncCkSZMEIiwMZStQvsIWo3hsbqYoHpubG22RUTzWhlabY4rH2tA6ckzx2BGuDA9etWqVdOzYUXbt2hXyGNT5W7ZsmVxzzTXuDEgvJEACJEACJEACJGAJAdz333fffYL7pVDWrl07eeaZZ6Rs2bKWzCixYVI8Tix/ju49gcmTJ0v79u3VwH/88YdkyZLF+yBiHJHicYzgPDiN4rEHkE0bguKxaRmJHA/F48iMvDiC4nHslLdu3aoa3i1evDhVR/G0Hm+55RZ1DI0ESIAESIAESIAEkpnAsGHDBMJnRnbjjTfKXXfdpUp/FSlSJJlRhZ07xWNeGslG4L333pO2bduqaaMs4IUXXmgNAorH5qaK4rG5udEWGcVjbWi1OaZ4rA2tI8cUj6PHhVXFM2bMkJUrV8rnn38ux48fD3tyyZIlZdy4cVK/fv3oB+GRJEACJEACJEACJOBjAijtNXDgQHn33XfDzrJ27drStGlTqV69utq5lT9/fh9TcTY1isfOePFo+wlMnTpV2rRpoyZy5swZyZYtmzWTonhsbqooHpubG22RUTzWhlab459++kkuu+wy5R+rMrE6k+Y9AYrH/zBfv369auiSNWtWqVChghKGUZsPn507d8qBAwdUfa1oDLW833nnHWnUqFE0h/MYEiABEiABEiABEkg6Ari/6t+/v7z//vtRzR33VxCS0WwvT548ctFFF0muXLnkyy+/VGJSly5d1PeSwSgeJ0OWOcdgAh988IHcc8896p9Onz4t2bNntwYQxWNzU0Xx2NzcaIuM4rE2tNocUzzWhtaRY4rH/+DCypb58+c7Yhd8MOpu1alTRwYPHqy+0kiABEiABEiABEiABCIT2Lt3r6AZFj4QlGM1NN/D6sRkMIrHyZBlzjGYwPTp0+Xuu+9W/3TixAn14sgWo3hsbqYoHpubG22RUTzWhlabY4rH2tA6ckzx+B9csYrHV1xxhTz22GPStWtXR9x5MAmQAAmQAAmQAAmQQGoCa9asUSIyVhkePXrUER6KxyKjRo3iPamjq4YH20IApQNbt26twsUOUew8sMUoHpubKYrH5uZGW2QUj7Wh1eaY4rE2tI4cUzyOXjxGba3ChQsLBGM0dIFonDdvXke8eTAJkAAJkAAJkAAJkEBkAosWLZLNmzfLN998oz7ffvtt2JMoHlM8jnxV8QhbCcyaNUs10oThxdLFF19szVQoHpubKorH5uZGW2QUj7Wh1eYYW9RKlCih/C9ZskQaNGigbSw6zpgAxeN/2LRo0ULmzJmj/lyjRg0pUKCA6vKN+nqVKlVK2SbFa4kESIAESIAESIAESCAxBLZs2SJYgIJeFIHPiBEj5Pz586qZ1pQpUxITmMejsmyFx8A5XMIJzJ49W1q2bKniOHz4sFULeCgeJ/zyyTAAisfm5kZbZBSPtaHV5pjisTa0jhxTPP4HV0A8vuCCC9QDCI0ESIAESIAESIAESMB8AmicdfbsWYFAM2HCBPMDdiFCiscuQKQLqwhgkQ+e12CHDh2SfPnyWRM/xWNzU0Xx2NzcaIuM4rE2tNocUzzWhtaRY4rHFI8dXTA8mARIgARIgARIgAQMIkDx+L/JYM1jgy5MhuIqgXnz5kmzZs2Uz4MHD6pdorYYxWNzM0Xx2NzcaIuM4rE2tNoc//jjj1KyZEnl/9NPP5X69etrG4uOMyZA8ZjiMX8+SIAESIAESIAESMBWAhSPKR7beu0y7ugJzJ8/XzU4h/32229SsGDB6E9O8JEUjxOcgDDDUzw2NzfaIqN4rA2tNscUj7WhdeSY4jHFY0cXDA8mARIgARIgARIgAYMIUDymeGzQ5chQNBFYsGCB/H/27gTuyyn///gHY4msQ5NdRAllSSJKlFJS9i1CYxtNTIwaa0Nmsi8hS2MpGksyxaQiLSoiKQ0lWiyNnaSQmeH//1wztx/d9919net7nXOdc76v6/HwML9xrnM+5/n53v3G+76+5zrssMOS2T/66COpU6eOpZXyn5bwOH/TvGYkPM5LMqB5CI8Datb/SiU89qNnhMeEx358EqkCAQQQQAABBBAwFyA8Jjw2/9RwR2gCTz/9tHTo0CEp+4MPPkhebB7KRXjsb6cIj/3tjbXKCI+t0VqbmPDYGq3RxITHhMdGHxgGI4AAAggggAACHgkQHhMee/RxpBRLAmPGjJH27dsnsy9evFi22GILSyvlPy3hcf6mec1IeJyXZEDzEB4H1Kz/lfrT0HLcuHFy0EEHhbeJCComPCY8juBjzBYQQAABBBBAoEwFCI8Jj8v0o19W2x47dqy0a9cu2fP7778vW265ZTD7Jzz2t1WEx/72xlplhMfWaK1NTHhsjdZoYsJjwmOjDwyDEUAAAQQQQAABjwQIjwmPPfo4UoolgWeffVbatm2bzK7fYN56660trZT/tITH+ZvmNSPhcV6SAc1DeBxQs/5XKuGxHz0jPCY89uOTSBUIIIAAAggggIC5AOEx4bH5p4Y7QhN47rnn5OCDD07KXrRokWy77bbBbIHw2N9WER772xtrlREeW6O1NjHhsTVao4kJjwmPjT4wDEYAgWAElixZIl26dKlUb58+fX48NzCYzVAoAgggUI0A4THhMT8c8QuMHz/+x2MuFy5cKNttt10wmyY89rdVhMf+9sZaZYTH1mitTay/MaxXr14yv/4msXXr1tbWYuLqBQiPCY/5+UAAgTgFPvrooyrfRn7vvffKaaedFuem2RUCCJSdAOEx4XHZfejLcMMTJ06UAw88MNn5/PnzZfvttw9GgfDY31YRHvvbG2uVER5bo7U2MeGxNVqjiQmP/8vVo0cPuf3222WttdaSFStWGBkyGAEEEPBRgPDYx65QEwII5C2w8cYbi37TolevXnLDDTfkPb2X81100UVy3XXXVaptwIAByf+m5UIgNoHnn39eWrZsmWzrrbfekvr16wezRcJjf1tFeOxvb6xVRnhsjbIh+tsAACAASURBVNbaxITH1miNJiY8/i+X/svGhRdeKBtttJF88cUXRoYMRgABBHwUIDz2sSvUhAACeQtsvvnm8uGHH0q/fv3kkksuyXt6L+cjPPayLRRlUWDy5MlywAEHJCvMmzdPNP8J5SI89rdThMf+9sZaZYTH1mitTaxnFVV83UTPMKr4Goq1BZm4SgHC4/+yEB7zA4IAArEJEB7H1lH2gwACVQkQHv+fCk8e8zMSq8DUqVOlRYsWyfbmzp0rDRo0CGarhMf+torw2N/eWKuM8NgarbWJCY+t0RpNTHhMeGz0gWEwAggEI0B4HEyrKBQBBEoQIDwmPC7h48OtgQi88MILst9++yXVzpkzRxo2bBhI5SKEx/62ivDY395Yq4zw2BqttYkJj63RGk1MeEx4bPSBYTACCAQjQHgcTKsoFAEEShAgPCY8LuHjw62BCEybNk2aN2+eVPv6669Lo0aNAqmc8NjnRhEe+9wdS7URHluCtTgt4bFFXIOpCY8Jjw0+LgxFAIGABAiPA2oWpSKAQGYBwmPC48wfHm4MRuDll1+WZs2aJfXOnj1bdt1112Bq58ljf1tFeOxvb6xVRnhsjdbaxAsWLJAddtghmX/ChAnSqlUra2sxcfUChMeEx/x8IIBAnAKEx3H2lV0hgMDPBQiPCY/5mYhfYPr06bL33nsnG33ttddkt912C2bThMf+torw2N/eWKuM8NgarbWJCY+t0RpNTHhMeGz0gWEwAggEI0B4HEyrKBQBBEoQIDwmPC7h48OtgQjMmDFD9tprr6TamTNnSpMmTQKpnGMrfG4U4bHP3bFUG+GxJViL0xIeW8Q1mJrwmPDY4OPCUAQQCEiA8DigZlEqAghkFiA8JjzO/OHhxmAENDDeY489kno1SK74zyFsgCeP/e0S4bG/vbFWGeGxNVprExMeW6M1mpjwmPDY6APDYAQQCEaA8DiYVlEoAgiUIEB4THhcwseHWwMRmDVrluy+++5Jta+88orsueeegVTOk8c+N4rw2OfuWKqN8NgSrMVp58+fL/Xr109WmDhxorRs2dLiakxdnQDhMeExPx0IIBCnAOFxnH1lVwgg8HMBwmPCY34m4hfQl+Q1btw42ai+PK9p06bBbJonj/1tFeGxv72xVhnhsTVaaxMTHlujNZqY8Jjw2OgDw2AEEAhGgPA4mFZRKAIIlCBAeEx4XMLHh1sDEXj99ddl1113TaqdNm2aNGvWLJDKefLY50YRHvvcHUu1ER5bgrU4LeGxRVyDqQmPCY8NPi4MRQCBgAQIjwNqFqUigEBmAcJjwuPMHx5uDEbgjTfekF122SWp98UXX5R99tknmNp58tjfVhEe+9sba5URHlujtTbx22+/Ldo3vSZNmiQHHHCAtbWYuHoBwmPCY34+EEAgTgHC4zj7yq4QQODnAoTHhMf8TMQvMHfuXNl5552TjU6dOlX23XffYDZNeOxvqwiP/e2NtcoIj63RWpuY8NgardHEhMeEx0YfGAYjgEAwAoTHwbSKQhFAoAQBwmPC4xI+PtwaiMC8efOkQYMGSbWTJ0+WFi1aBFI5x1b43CjCY5+7Y6k2wmNLsBanJTy2iGswNeEx4bHBx4WhCCAQkADhcUDNolQEEMgsQHhMeJz5w8ONwQi89dZbstNOOyX1Pv/887L//vsHUztPHvvbKsJjf3tjrTLCY2u01iYmPLZGazQx4THhsdEHhsEIIBCMAOFxMK2iUAQQKEGA8JjwuISPD7cGIhDy+5IIj/39kBEe+9sba5URHlujtTZxyL89tIZSwMSEx4THBXzsWBIBBBwIEB47QGYJBBAoXIDwmPC48A8hBVgXWLhwoWy//fbJOuPHj5cDDzzQ+pp5LUB4nJdk/vMQHudv6v2MhMfet6hSgYTHfvSM8Jjw2I9PIlUggEDeAoTHeYsyHwII+ChAeEx47OPnkpryFVi0aJHUq1cvmfS5556T1q1b57uAxdkIjy3iljg14XGJgCHeTngcXtd+Gh6HVz0Vxyqw0UYbyRdffBHr9tgXAgiUkQDhcRk1m60iUMYCFeFxGROwdQTKSuDZZ5+Vgw8+OJg9Ex772yrCY397Y60ywmNrtNYmXrJkiWy88cbW5mdiBLIINGzYUObMmZPlVu5BAAEEEEAAAQQQcCyw++67y6xZsxyvynIIIFCUwMyZM6VJkyZFLW+8LuGxMZmzGwiPnVH7sxDhsT+9MKlk5MiRMmTIENlll11Mblvl2Hnz5slf//rXZMzFF18sa665Zm5zxziRhvi33HJLpa1tuummcu6551a55fvvv1/0uIuVrzPOOEO22GKLYJlWX311OfTQQ2XvvfcOdg8UjgACCCCAAAIIlJPA9OnTZdSoUfL999+XzbafeeYZmTp1aqX96v+ObdasWdk4sNHyE9h2223ltNNOC2rjhMf+tovw2N/eWKuM8NgabXATP/XUU9KpU6ek7q+//lpq1aoV3B5cFsyZxy61WQsBBBBAAAEEEEAAgdIELrroIrnuuusqTTJgwADp0aNHaZNzNwII5CpAeJwrZ66TER7nyhnGZITHYfTJRZWEx2bKhMdmXoxGAAEEEEAAAQQQQKBIAcLjIvVZGwEzAcJjMy+XowmPXWp7shbhsSeN8KAMwmOzJhAem3kxGgEEEEAAAQQQQACBIgUIj4vUZ20EzAQIj828XI4mPHap7clahMeeNMKDMgiPzZpAeGzmxWgEEEAAAQQQQAABBIoUIDwuUp+1ETATIDw283I5mvDYpbYnaxEee9IID8ogPDZrAuGxmRejEUAAAQQQQAABBBAoUoDwuEh91kbATIDw2MzL5WjCY5fanqxFeOxJIzwog/DYrAmEx2ZejEYAAQQQQAABBBBAoEgBwuMi9VkbATMBwmMzL5ejCY9danuyFuGxJ43woAzCY7MmEB6beTEaAQQQQAABBBBAAIEiBQiPi9RnbQTMBAiPzbxcjiY8dqntyVqEx540woMyCI/NmkB4bObFaAQQQAABBBBAAAEEihQgPC5Sn7URMBMgPDbzcjma8NiltidrER570ggPyiA8NmsC4bGZF6MRQAABBBBAAAEEEChSgPC4SH3WRsBMgPDYzMvlaMJjl9qerEV47EkjPCiD8NisCYTHZl6MRgABBBBAAAEEEECgSAHC4yL1WRsBMwHCYzMvl6MJj11qe7IW4bEnjfCgDMJjsyYQHpt5MRoBBBBAAAEEEEAAgSIFCI+L1GdtBMwECI/NvFyOJjx2qe3JWoTHnjTCgzIIj82aQHhs5sVoBBBAAAEEEEAAAQSKFCA8LlKftREwEyA8NvNyOZrw2KW2J2sRHnvSCA/KIDw2awLhsZkXoxFAAAEEEEAAAQQQKFKA8LhIfdZGwEyA8NjMy+VowmOX2p6sRXjsSSM8KIPw2KwJhMdmXoxGAAEEEEAAAQQQQKBIAcLjIvVZGwEzAcJjMy+XowmPXWp7shbhsSeN8KAMwmOzJhAem3kxGgEEEEAAAQQQQACBIgUIj4vUZ20EzAQIj828XI4mPHap7clahMeeNMKDMgiPzZpAeGzmxWgEEEAAAQQQQAABBIoUIDwuUp+1ETATIDw283I5mvDYpbYnaxEee9IID8ogPDZrAuGxmRejEUAAAQQQQAABBBAoUoDwuEh91kbATIDw2MzL5WjCY5fanqxFeOxJIzwog/DYrAmEx2ZejEYAAQQQQAABBBBAoEgBwuMi9VkbATMBwmMzL5ejCY9danuyFuGxJ43woAzCY7MmEB6beTEaAQQQQAABBBBAAIEiBQiPi9RnbQTMBAiPzbxcjiY8dqntyVqEx540woMyCI/NmkB4bObFaAQQQAABBBBAAAEEihQgPC5Sn7URMBMgPDbzcjma8NiltidrER570ggPyiA8NmsC4bGZF6MRQACBUAQ++ugjqVu3bqVy7733XjnttNNC2QZ1IoAAAgisJEB4zEcCgXAECI/97RXhsb+9sVYZ4bE12uAmJjw2axnhsZkXoxFAAIFQBAiPQ+kUdSKAAAJmAoTHZl6MRqBIAcLjIvVXvTbhsb+9sVYZ4bE12uAmJjw2axnhsZkXoxFAAIFQBAiPQ+kUdSKAAAJmAoTHZl6MRqBIAcLjIvUJj/3VL6gywuOC4D1clvDYrCmEx2ZejEYAAQRCESA8DqVT1IkAAgiYCRAem3kxGoEiBQiPi9QnPPZXv6DKCI8LgvdwWcJjs6YQHpt5MRoBBBAIRYDwOJROUScCCCBgJkB4bObFaASKFCA8LlKf8Nhf/YIqIzwuCN7DZQmPzZpCeGzmxWgEEEAgFAHC41A6RZ0IIICAmQDhsZkXoxEoUoDwuEh9wmN/9QuqjPC4IHgPlyU8NmsK4bGZF6MRQACBUAQIj0PpFHUigAACZgKEx2ZejEagSAHC4yL1CY/91S+oMsLjguA9XJbw2KwphMdmXoxGAAEEQhEgPA6lU9SJAAIImAkQHpt5MRqBIgUIj4vUJzz2V7+gygiPC4L3cFnCY7OmEB6beTEaAQQQCEWA8DiUTlEnAgggYCZAeGzmxWgEihQgPC5Sn/DYX/2CKiM8Lgjew2UJj82aQnhs5sVoBBBAIBQBwuNQOkWdCCCAgJkA4bGZF6MRKFKA8LhIfcJjf/ULqozwuCB4D5clPDZrCuGxmRejEUAAgVAECI9D6RR1IoAAAmYChMdmXoxGoEgBwuMi9QmP/dUvqDLC44LgPVyW8NisKYTHZl6MRgABBEIRIDwOpVPUiQACCJgJEB6beTEagSIFCI+L1Cc89le/oMoIjwuC93BZwmOzphAem3kxGgEEEAhFgPA4lE5RJwIIIGAmQHhs5sVoBIoUIDwuUp/w2F/9giojPC4I3sNlCY/NmkJ4bObFaAQQQCAUAcLjUDpFnQgggICZAOGxmRejEShSgPC4SH3CY3/1C6qM8LggeA+XJTw2awrhsZkXoxFAAIFQBAiPQ+kUdSKAAAJmAoTHZl6MRqBIAcLjIvUJj/3VL6gywuOC4D1clvDYrCmEx2ZejEYAAQRCESA8DqVT1IkAAgiYCRAem3kxGoEiBQiPi9QnPPZXv6DKCI8LgvdwWcJjs6YQHpt5MRoBBBAIRYDwOJROUScCCCBgJkB4bObFaASKFCA8LlKf8Nhf/YIqIzwuCN7DZQmPzZpCeGzmxWgEEEAgFAHC41A6RZ0IIICAmQDhsZkXoxEoUoDwuEh9wmN/9QuqjPC4IHgPlyU8NmsK4bGZF6MRQACBUAQIj0PpFHUigAACZgKEx2ZejEagSAHC4yL1CY/91S+oMsLjguA9XJbw2KwphMdmXoxGAAEEQhEgPA6lU9SJAAIImAkQHpt5MRqBIgUIj4vUJzz2V7+gygiPC4L3cFnCY7OmEB6beTEaAQQQCEWA8DiUTlEnAgggYCZAeGzmxWgEihQgPC5Sn/DYX/2CKiM8Lgjew2UJj82aQnhs5sVoBBBAIBSBJUuWSJcuXSqV26dPH2nfvn0o26BOBBBAAIGVBAiP+UggEI4A4bG/vVrth/9/+VseldkQIDy2oRrmnITHZn0jPDbzYjQCCCCAAAIIIIAAAkUKEB4Xqc/aCJgJEB6bebkcTXjsUtuTtQiPPWmEB2UQHps1IUt4fOCBB8rEiRMrLXTnnXdKgwYNzApgNAIIIOCJwAYbbCB77rmnJ9VQBgIIIIAAAlULEB7zyUAgHAHCY397RXjsb2+sVUZ4bI02uIkJj81aliU8btWqlUyaNMlsIUYjgAACngs0a9ZMpk2b5nmVlIcAAgggUO4ChMfl/glg/yEJEB772y3CY397Y60ywmNrtMFNTHhs1jLCYzMvRiOAQLwChMfx9padIYAAAjEJEB7H1E32ErsA4bG/HSY89rc31iojPLZGG9zEhMdmLcsSHld3bIXZyoxGAAEE/BIgPParH1SDAAIIIFC1AOExnwwEwhEgPPa3V4TH/vbGWmWEx9Zog5uY8NisZVnCY46tMDNmNAIIhCFAeBxGn6gSAQQQKHcBwuNy/wSw/5AECI/97Rbhsb+9sVYZ4bE12uAmJjw2axnhsZkXoxFAIF4BwuN4e8vOEEAAgZgECI9j6iZ7iV2A8NjfDhMe+9sba5URHlujDW5iwmOzlmUJj88//3yZOXOm2UKMRgABBDwX2HnnnWXgwIGeV0l5CCCAAALlLkB4XO6fAPYfkgDhsb/dIjz2tzfWKiM8tkYb3MSEx2YtyxIem63AaAQQQAABBBBAAAEEEMhLgPA4L0nmQcC+AOGxfeOsKxAeZ5UL+D7C44Cbl3PphMdmoITHZl6MRgABBBBAAAEEEECgSAHC4yL1WRsBMwHCYzMvl6MJj11qe7IW4bEnjfCgDMJjsyYQHpt5MRoBBBBAAAEEEEAAgSIFCI+L1GdtBMwECI/NvFyOJjx2qe3JWoTHnjTCgzIIj82aQHhs5sVoBBBAAAEEEEAAAQSKFCA8LlKftREwEyA8NvNyOZrw2KW2J2sRHnvSCA/KIDw2awLhsZkXoxFAAAEEEEAAAQQQKFKA8LhIfdZGwEyA8NjMy+VowmOX2p6sRXjsSSM8KIPw2KwJ1YXHZrMwGgEEEAhfoFmzZjJt2rTwN1JmO7jqqqvk8ssvL7Nds10EEECgssCAAQOkR48e0CCAgEcChMceNWOlUgiP/e2NtcoIj63RBjcx4bFZywiPzbwYjQAC8QoQHofZW8LjMPtG1QggkL8A4XH+psyIQKkChMelCtq7n/DYnq23MxMee9sa54URHpuREx6beTEaAQTiFSA8DrO3hMdh9o2qEUAgfwHC4/xNmRGBUgUIj0sVtHc/4bE9W29nJjz2tjXOCyM8NiMnPDbzYjQCCMQrQHgcZm8Jj8PsG1UjgED+AoTH+ZsyIwKlChAelypo737CY3u23s5MeOxta5wXRnhsRk54bObFaAQQiFeA8DjM3hIeh9k3qkYAgfwFCI/zN2VGBEoVIDwuVdDe/YTH9my9nZnw2NvWOC+M8NiMnPDYzIvRCCAQrwDhcZi9JTwOs29UjQAC+QsQHudvyowIlCpAeFyqoL37CY/t2Xo7M+Gxt61xXhjhsRl5deHxZpttJueee67ZZIxGAAEEAhbYcsst5de//nXAOyjP0idNmiTjx48vz82zawQQKEuBZ555RqZMmVJp74THZflxYNOeCxAe+9sgwmN/e2OtMsJja7TBTUx4bNYywmMzL0YjgEC8AoTHYfaW8DjMvlE1AghkFyA8zm7HnQi4FiA8di2efj3C4/RW0YwkPI6mlSVvhPDYjJDw2MyL0QggEK8A4XGYvSU8DrNvVI0AAtkFCI+z23EnAq4FCI9di6dfj/A4vVU0IwmPo2llyRshPDYjJDw282I0AgjEK0B4HGZvCY/D7BtVI4BAdgHC4+x23ImAawHCY9fi6dcjPE5vFc1IwuNoWlnyRgiPzQgJj828GI0AAvEKEB6H2VvC4zD7RtUIIJBdgPA4ux13IuBagPDYtXj69QiP01tFM5LwOJpWlrwRwmMzQsJjMy9GI4BAvAKEx2H2lvA4zL5RNQIIZBcgPM5ux50IuBYgPHYtnn49wuP0VtGMJDyOppUlb4Tw2IyQ8NjMi9EIIBCvAOFxmL0lPA6zb1SNAALZBQiPs9txJwKuBQiPXYunX4/wOL1VNCMJj6NpZckbITw2IyQ8NvNiNAIIxCtAeBxmbwmPw+wbVSOAQHYBwuPsdtyJgGsBwmPX4unXIzxObxXNSMLjaFpZ8kYIj80ICY/NvBiNAALxChAeh9lbwuMw+0bVCCCQXYDwOLsddyLgWoDw2LV4+vUIj9NbRTOS8DiaVpa8EcJjM0LCYzMvRiOAQLwChMdh9pbwOMy+UTUCCGQXIDzObsedCLgWIDx2LZ5+PcLj9FbRjCQ8jqaVJW+E8NiMkPDYzIvRCCAQrwDhcZi9JTwOs29UjQAC2QUIj7PbcScCrgUIj12Lp1+P8Di9VTQjCY+jaWXJGyE8NiMkPDbzYjQCCMQrQHgcZm8Jj8PsG1UjgEB2AcLj7HbciYBrAcJj1+Lp1yM8Tm8VzUjC42haWfJGCI/NCAmPzbwYjQAC8QoQHofZW8LjMPtG1QggkF2A8Di7HXci4FqA8Ni1ePr1CI/TW0UzkvA4mlaWvBHCYzNCwmMzL0YjgEC8AoTHYfaW8DjMvlE1AghkFyA8zm7HnQi4FiA8di2efj3C4/RW0YwkPI6mlSVvhPDYjJDw2MyL0QggEK8A4XGYvSU8DrNvVI0AAtkFCI+z23EnAq4FCI9di6dfj/A4vVU0IwmPo2llyRshPDYjJDw282I0AgjEK0B4HGZvCY/D7BtVI4BAdgHC4+x23ImAawHCY9fi6dcjPE5vFc1IwuNoWlnyRgiPzQgJj828GI0AAvEKEB6H2VvC4zD7RtUIIJBdgPA4ux13IuBagPDYtXj69QiP01tFM5LwOJpWlrwRwmMzQsJjMy9GI4BAvAKEx2H2lvA4zL5RNQIIZBcgPM5ux50IuBYgPHYtnn49wuP0VtGMrFevnixatEh69+4t/fv3j2ZfbMRcgPDYzIzw2MyL0QggEK8A4XGYvSU8DrNvVI0AAtkFCI+z23EnAq4FKsLjfffdV6ZOnep6edZbhQDhcRl+PLbbbjvREIzwuAybv9KWCY/NPgOEx2ZejEYAgXgFCI/D7C3hcZh9o2oEEMguQHic3Y47EXAtUBEeN2/eXF544QXXy7Me4TGfgZ8KEB7zeagQIDw2+ywQHpt5MRoBBOIVIDwOs7eEx2H2jaoRQCC7AOFxdjvuRMC1AOGxa/H06/HkcXqraEYSHkfTypI3QnhsRkh4bObFaAQQiFeA8DjM3hIeh9k3qkYAgewChMfZ7bgTAdcChMeuxdOvR3ic3iqakYTH0bSy5I0QHpsRvvvuu7LttttWumndddeVZs2amU3GaAQQQCBgAQ2PH3zwwYB3UJ6l33TTTTJy5Mjy3Dy7RgCBshSYP3++vPfee5X2PmDAAOnRo0dZmrBpBHwVIDz2tTMihMf+9sZaZYTH1miDm5jw2Kxl1T15bDYLoxFAAIHwBTQ8fv/998PfSJntoGvXrvLQQw+V2a7ZLgIIIFBZgPCYTwUC/gkQHvvXk4qKCI/97U0ulS1btix5S+XixYvlww8/lA8++ED+8pe/yNdffy2NGjWSQw89VDbffPPkr2222Ub233//XNZlEj8F/vGPf8ibb76ZfA70r1dffVWeffZZWX311aVbt24/fhb087DHHnvI1ltv7edGCqqK8LggeJZFAAHvBAiPvWtJqoIIj1MxMQgBBMpAgPC4DJrMFr0XeP7550W/3VuRTzzxxBOycOFC+eUvfyknnXTSj/mE/u/OfffdV9Zbbz3v9xRrgYTHEXb2448/lhEjRsjw4cNl9OjRP9vh+uuvL999952sWLFCNtpoI1myZMnP/rn+d506dZKjjjpK2rZtK/p1fK6wBSZPniz6h/Df/vY3WbBgwc82oyHxJ598Iuuss07y16effvqzf960aVPp3LmzHHHEEbLLLruEDZFD9dUdW5HD1EyBAAIIBCVQv359eeutt4KqmWJFzj33XLnjjjugQAABBMpegPC47D8CABQgsHz5chk1alSST+i3oL/66qsfq9A8Ys0110z+u1q1aiUPuOn4n16aVR155JFy+OGHyyabbFLADsp3ScLjiHqvQfE111wjEyZMSHa16667Jk8WH3zwwaJHVehTpBoGX3fddXLRRRfJCy+8IM2bN08Cw3/+85/JvwSOGTMmCRk1UNRLn1C54oorRP8lkSscgaVLlyZ9vuuuu5Je1q5dW1q3bi3t2rVLzubdYostRH97p5f+Vq9Jkyby3HPPJf/3okWLkq8i628B9fMwceLE5L/fcccd5bzzzkv+xbNcL548LtfOs28EEFhZYLfddpPXXnsNmMAE/vCHP0j//v0Dq5pyEUAAgfwFCI/zN2VGBKoTeOONN+SPf/yjPProo8kQfYitS5cu0qZNmyRn0GxCw2DNJDS/uu2225LcQXMN/Ra9ZhT6jWkNnufOnZvMccghhyRzaqbFZV+A8Ni+sfUVXnzxRenTp08S8unToT179kx+EOvUqVPl2iuHx1UNmj17dvKDef311yfh8umnn56EyHq0BZe/Anocyc033yzXXnutfPnll/Lb3/42eWpYg+PqrpXD45XH6W/79A9qfTHSsGHDkl9C6Gehe/fu/kJYqozw2BIs0yKAQHAChMfBtSwpmPA4zL5RNQII5C9AeJy/KTMisLLA22+/nWQHQ4cOTQLjCy64IHnAUY9QrepaOTyuaow++KhPLt9yyy3JA5AdO3aUvn37in5rmsueAOGxPVvrM+t5tRoajx07Ngl1r7rqKjnllFNqXDdNeFwxiQaHOl5DZP3P55xzjlx22WXJDz6XPwLffPON3H777cmT5xr2H3/88fLnP/85eeK8pqum8Pin90+fPj15K/G0adOkQYMGyR/Sula5XBrI65vquRBAAIFyEfj8889F/wV75YvwOMxPwMUXX5z874OVr/bt28s+++wT5qaoGgEEEMgg0KFDh+QbmVwIIJC/gB73qFnBfffdJxtssIH07t1bevXqlRyVuaorTXj80/sHDRqUhNMaKOtRFv369RP936hc+QsQHudv6mRGfbJUfwA33njj5CmS3//+96nXNQmPKybVow80NNZjEPTc5KefflpatGiRek0G2hPQFyEeeOCByYvwWrVqlTx5vPvuu6de0CQ8rph05MiRyS8u5syZI4cddpg8+eSTqddjIAIIIIBAOAL6xIh+nXDli/A4nB7+tNLqnjzWp3f0m2tcCCCAAAIIIIBAKQL6rWU9m/jbb79N/rfF5ZdfnhyVmeYyDY91Tn2Q7sYbb0wepNPzku+++24544wz0izHGAMBwmMDLF+G/uY3v5GBAwcm5xDrD5ceI2ByZQmPK+YfN25crLOWCQAAIABJREFU8gI1fQpZA0MNDrmKE5g/f34SHOsZxVdeeWUS8JteWcLjijWOPfZYeeyxx5JfJOgvFPQXC1wIIIAAAvEIEB7H00vdCeFxXP1kNwgggAACCPgkoNmAZgSaC2iIbPp0f5bwuGL/CxcuTLIRfepZz0LW0JorPwHC4/wsnczUrVs3GTx4sOyxxx7yzDPPpP4Nzk+LKyU81nlefvnl5MVrX3zxhejXBMrx7Fsnza5hEX1R0UEHHSSfffZZ8uZ0PVIky1VKeKzrnXnmmXLPPfckL2jU/wfxq1/9KksZ3IMAAggg4KEA4bGHTSmhJMLjEvC4FQEEEEAAAQSqFbj11lvlvPPOS969pQ8daj5gepUSHutaH3zwQZKR6Ev19IV7+uI9rnwECI/zcXQyix5TocdVlPqUZ6nhsW5W35bZtm3b5GyZ0aNHJ2EylzsBPapCvzKs5xs//vjjcuSRR2ZevNTwWBeu+JdR/c2inofMhQACCCAQhwDhcRx9rNgF4XFc/WQ3CCCAAAII+CCgmcTRRx+dfCt+0qRJqd69VFXdpYbHOueSJUukTZs28sorr/AEco4fDsLjHDFtTqVvpzzppJOkcePG8uKLL0qtWrUyL5dHeKyLz5s3T/bee2/5/vvvk8CwujdmZi6UG6sU0DN9mjdvLvrk8UMPPSQnnnhiSVJ5hMdagJ5npC9VOu644+Thhx8uqSZuRgABBBDwQ4Dw2I8+5FUF4XFeksyDAAIIIIAAAiqguUSTJk2S93HNmDEjc3Csc+URHus8S5cuTbIqzaxGjBiRvEyPqzQBwuPS/Jzc/cILL8h+++0nm266qcyePVvq1q1b0rp5hcdaxPjx45OvBehvmGbNmpX8gcFlV0APn3/qqafkoosuSg6FL/XKKzzWOvSzoJ+J/v37Jy905EIAAQQQCFuA8Djs/q1cPeFxXP1kNwgggAACCBQpoN+I1iNV9e9Tp06Vfffdt6Ry8gqPtQg9A3mvvfZKXtynte2+++4l1VbuNxMee/4J0Beh6dPGer6wnjXctGnTkivOMzzWYirOttHjNCZPnlxyfUxQvYC+EK9fv37JkSFjx47NhSrP8Pinv+EbNWqUHHroobnUyCQIIIAAAsUIEB4X425rVcJjW7LMiwACCCCAQHkJ5P2NaNXLMzzW+aZMmSL777+/bL755skxFvp3rmwChMfZ3Jzd1b59exkzZowMGzZMjjrqqFzWzTs81qJOPvlkefDBB5MnYfWJWK78BfSpc/1Fws4775z8ImG99dbLZZE8w2MtSH/Dp7/VW3PNNeWdd97Jrc5cNsskCCCAAAJGAoTHRlzeDyY89r5FFIgAAggggEAQApdeeqlcffXVcuGFF4pmTHlceYfHWtOgQYPkjDPOkGOOOUYeffTRPMosyzkIjz1uuz7Fe8ABB+T+IbcRHutXAerVqyf626fFixcTGFr4XHXo0EGefvrp5EwhfVleXlfe4bHWddddd8nZZ5/NAfV5NYl5EEAAgYIECI8Lgre0LOGxJVimRQABBBBAoIwEPv/8c9lyyy2TJ3kXLFiQ285thMdaXMVDmTNnzkzOZ+YyFyA8Njdzdoce8D19+nSZO3euNGjQILd1bYTHPw0Mr7jiCunbt29u9TKRJJ8D/Tzo0+f6FHqel43wWOvbZpttRP+fij59rGtwIYAAAgiEJ0B4HF7PVlUx4XFc/WQ3CCCAAAIIFCHwu9/9Tm6++Wb561//Kscff3xuJdgKj/X9XPrt6I4dOybvj+IyFyA8Njdzcsfo0aOT82JPPfVUue+++3Jd01Z4TGCYa5t+Npk+ga5Pouf9iwRdxFZ4PHjwYOnWrVuuX2OxJ8zMCCCAAAJVCRAex/W5IDyOq5/sBgEEEEAAAdcC+l6urbfeOnnAUfOJPC9b4bHWeOSRR8oTTzwh06ZNk2bNmuVZdlnMRXjsaZsPP/xwefLJJ+W9996TrbbaKtcqbYbHeu6xnn+sv4U677zzcq27XCd74403ZJdddpGTTjopOVc678tWeKx17rDDDvLZZ5/JkiVL8i6b+RBAAAEEHAgQHjtAdrgE4bFDbJZCAAEEEEAgQoErr7xS9NvmI0aMEM2t8rxshscadOv7o7p27SpDhgzJs+yymIvw2MM267nB6667rnTq1ElGjhyZe4U2w2Mttnbt2rLPPvvIuHHjcq+9HCfUlxD26dNHJk2alJyBnfdlMzy+4YYbkieP9bNw0EEH5V068yGAAAIIWBYgPLYM7Hh6wmPH4CyHAAIIIIBAZAJNmzZNjqb85JNPct+ZzfBYi23VqpXoERY83GbeOsJjczPrd2hg3LlzZ7njjjvknHPOyX092+GxvsVSz+XVH8gNN9ww9/rLbcIWLVrI66+/bu0POJvh8Zw5c6RRo0Zy/vnny0033VRurWO/CCCAQPAChMfBt/BnGyA8jquf7AYBBBBAAAGXAh988IFsscUWcvrpp8tf/vKX3Je2HR5XPJg3YcKEJEjmSi9AeJzeytnIX//618kP4uLFi5MfzLwv2+GxntGsf5gMHTpUTjjhhLzLL6v59MiHTTfdVI499lh55JFHrOzdZnisBet5SGuuuWaub2G1AsGkCCCAAAKVBAiP4/pQEB7H1U92gwACCCCAgEuBO++8M3nAUR8WPOqoo3Jf2nZ4PHv2bGncuLH06tVL9FvSXOkFCI/TWzkbqWHhr371q+RpUxuX7fBYv75Qp06d5K2b+vZNruwCDzzwQPLSxPvvvz95+ZyNy3Z4/Jvf/EYGDhwoenaznjHEhQACCCAQjgDhcTi9SlMp4XEaJcYggAACCCCAQFUCHTt2lFGjRsny5cuTo1bzvmyHx1ovD7dl6xrhcTY3a3dVvLnS5iHetsNjxdlyyy2Ts4/ffPNNa1blMLG+dPDWW2+V1157TXbbbTcrW7YdHutT9Po0vb7sT1/6x4UAAgggEI4A4XE4vUpTKeFxGiXGIIAAAggggEBVAnXr1pWNN95Y9HhKG5eL8FiPiNWjYpcuXSrrr7++jW1EOSfhsWdtnTFjhuy1117Su3dv6d+/v5XqXITHe++9t7z11lvWzum1AuPhpHrsx8MPPyyff/558oe0jct2eDx69Gg59NBD5cYbb5Tf/e53NrbAnAgggAAClgQIjy3BFjQt4XFB8CyLAAIIIIBABAKrrbaaHHzwwfLss89a2Y2L8FiP3dDjNzSvql+/vpV9xDgp4bFnXa0I2m655Rbp2bOnlepchMddunSRESNGyA8//GBlD+Uyqf7BrH+A2nS0HR5XnCtk8xci5fJ5YJ8IIICAawHCY9fidtcjPLbry+wIIIAAAgjEKvDpp5/KZpttJieffLIMHjzYyjZdhMf9+vWTyy67TKZMmSL77beflX3EOCnhsWddrTjj9rHHHpOjjz7aSnUuwuOKc27ffffd5EwZrmwCu+66q6xYsSL5rZity3Z4/MUXX8gmm2wip512mtx77722tsG8CCCAAAIWBAiPLaAWOCXhcYH4LI0AAggggEDAAvpOLs0nbD4U5iI81kyie/fuMnz4cDniiCMC7ojb0gmP3XrXuFpFsDt16lTZd999axyfZYCL8LjitznTp09PjuHgyiagLx5s1KiRTJgwIdsEKe6yHR5rCfr1Fj1c/6mnnkpREUMQQAABBHwRIDz2pRP51EF4nI8jsyCAAAIIIFBuAuPHj5eDDjooeSfTb3/7WyvbdxEeV3zbX4+uOOuss6zsI8ZJCY896+pNN90kvXr1ktDDYz2vWf8F5ZVXXpE999zTM+VwyvnVr34lDRs2lIkTJ1or2lV4rOce65tZuRBAAAEEwhEgPA6nV2kqJTxOo8QYBBBAAAEEEFhZ4Pnnn5eWLVsGHx7rec1t27aVu+66S84880wanVKA8DgllKthQ4cOlZNOOkmeeOIJ0XODbVwunjw+//zzRc9tXrx4sWyxxRY2tlEWczZu3Fi+++47mTt3rrX92g6Ply1blrzFlGMrrLWQiRFAAAFrAoTH1mgLmZjwuBB2FkUAAQQQQCB4gXnz5kmDBg3kkksuEf2muY3LxZPHDz74YHJus76j6/DDD7exjSjnJDz2rK0VPywDBw6Us88+20p1LsLj448/Xh555BGrL3qzguPZpIcccoi89NJLsmTJEmuV2Q6PK4IH/RfWP/3pT9b2wcQIIIAAAvkLEB7nb1rkjITHReqzNgIIIIAAAuEKLF26VDbccMPkvOBBgwZZ2YiL8Pj666+X3//+9zJt2jRp1qyZlX3EOCnhsWddrTiEvG/fvnLFFVdYqc5FeHzggQfKG2+8IR9//LGVPZTLpPobMf3N2A8//GBty7bD48mTJ8sBBxyQPInes2dPa/tgYgQQQACB/AUIj/M3LXJGwuMi9VkbAQQQQACBsAX0XUaHHXaYPPnkk1Y24iI8vvDCC+WGG26Qd955R7bZZhsr+4hxUsJjz7r66aefymabbSbnnHOO3HHHHVaqcxEe6zm9a621lrz22mtW9lAuk7r4g812eDxs2DA55phjkifRjz322HJpHftEAAEEohAgPI6ijT9ugvA4rn6yGwQQQAABBFwKbLfddlKnTp3k29E2LhfhcdeuXeWhhx6y+oCeDZui5yQ8LroDVay/9dZbJ+cE62P0Ni7b4XHF1xlOOeUUeeCBB2xsoWzm1D/U9A+34cOHyxFHHGFl37bD44p/UdUzknbccUcre2BSBBBAAAE7AoTHdlyLmpXwuCh51kUAAQQQQCB8Ac0kxo4dK8uXL7eyGRfhcb169WTdddcV/dY/V3oBwuP0Vs5G6lnH+uZHWy+bsx0eV7z0jydNS//IfPnll7LRRhtJt27d5P777y99wipmsB0eN2rUSL799ltZsGCBlfqZFAEEEEDAngDhsT3bImYmPC5CnTURQAABBBCIQ0DPOj7jjDOSYyv0+Iq8L9vhccVL//TM42uvvTbv8qOej/DYw/bqD6K+9VED5DPPPDP3Cm2HxxUvy9OXvOmB6lylCbRo0SL5rZitl+bZDI8XLVok+pu9888/X2666abSILgbAQQQQMC5AOGxc3KrCxIeW+VlcgQQQAABBKIWeP/990W/Ka8B8t133537Xm2HxxUvy5swYYK0atUq9/pjnpDw2MPu6lcAateuLR06dJC///3vuVdoOzzWrwDsvffeMnHixNxrL8cJ//SnP8kll1wikyZNSl48l/dlMzzWg+j13Gb9akvbtm3zLp35EEAAAQQsCxAeWwZ2PD3hsWNwlkMAAQQQQCAygT333FPee+89+eSTT3Lfme3wWPOUGTNmWDt2I3cQjyYkPPaoGT8tpX379jJmzBiZP3++bL/99rlWaTM8vu++++T000+Xa665Ri666KJc6y7XyWbOnCl77LGH6BPdf/3rX3NnsBke62f3o48+4g/n3LvGhAgggIAbAcJjN86uViE8diXNOggggAACCMQpcOmll8rVV18tw4YNk6OOOirXTdoMj2fPni2NGzeWY445Rh599NFc6y6HyQiPPe1yxdEVJ554YvImyDwvm+GxfoXhiy++SM631bdwcuUjoE9yT58+XTRIbtKkST6T/m8WW+FxxXlIHFmRa7uYDAEEEHAqQHjslNv6YoTH1olZAAEEEEAAgagFKo6uaNiwocyZMyfXvdoMj/WMZv1m/5QpU2S//fbLte5ymIzw2OMu6yP1kydPzj0wtBUe33rrrXLeeedJ37595YorrvBYNrzS9HOgn4eOHTvKU089lesGbIXHdevWlW+++UYWLlwom2yySa41MxkCCCCAgBsBwmM3zq5WITx2Jc06CCCAAAIIxCtwwQUXyI033ij6zfNTTz01t43aCo/1QTx9IE8DZH1Qk8tcgPDY3MzZHRUf8E6dOsnIkSNzW9dGeKznNG+zzTbyi1/8InnqeL311sutXib6r4B+JWT48OEybdo0adasWW4sNsLjm2++WX73u99J//79pXfv3rnVykQIIIAAAm4FCI/dettejfDYtjDzI4AAAgggEL/A559/nhyvusEGG8i7776b24ZthccVD2a++eabstNOO+VWbzlNRHjsebePPfZYeeyxx5K/jj766FyqtREe69s29ZiCgQMHytlnn51LnUzycwH9g06/GrLzzjsnR1joiwnzuPIOj/Wc7t1331023HBD0dBhnXXWyaNM5kAAAQQQKECA8LgAdItLEh5bxGVqBBBAAAEEykjg2muvTR4U69Wrl9xwww257NxGeHzXXXclGVX37t2TzIormwDhcTY3Z3fpGyz1jNsvv/wyCQw1OCz1yjs8Hjp0qJx00knSunVr0R92LnsC+ofyhRdemPwiQX+hkMeVZ3j89ddfy1577SVz585Njlxp0aJFHiUyBwIIIIBAQQKExwXBW1qW8NgSLNMigAACCCBQhgL77LOPvPTSS8k35fUb86VeeYfHM2bMSPKJevXqJcfB6pPSXNkECI+zuTm969VXX5U999xT6tevL/qfa9euXdL6eYbHFW+s5IexpJYY3Xz88cfLI488Irfccov07NnT6N6qBucZHlccrTFgwADp0aNHybUxAQIIIIBAsQKEx8X657064XHeosyHAAIIIIBA+Qrow44azn7xxRdJVqWZVSlXnuGxHq2x2267ydKlS+WVV17huIpSGvP/7yU8LhHQ1e0aFmpomMf5x3mFx/o0dOPGjUV/KPlhdPVJ+O86+ssE/cN56tSpsu+++5a0eF7h8e23354Exl27dpUhQ4aUVBM3I4AAAgj4IUB47Ecf8qqC8DgvSeZBAAEEEEAAARX4xz/+kbyTabvttiv5eM08w+NWrVrJpEmTZPTo0dKuXTuaVaIA4XGJgC5v1/Nk9FyZc889V2677bbMS+cRHutvlg4//PDkaIJRo0bJoYcemrkebjQXWLx4cXKu8Oqrry5PP/10EiZnvfIIj4cNGybHHHNMEmRroM2FAAIIIBCHAOFxHH2s2AXhcVz9ZDcIIIAAAgj4IFCRB7Rp00Yef/zxzMdD5BUe6/nG9957r1x99dVy8cUX+0AUfA2Ex4G1UA/61gO/9Tcnjz76aKYfylLD4zlz5kjHjh1l4cKF8sADD8gpp5wSmGIc5b722mvSvn17WbJkiQwePDjzCxVLDY8vu+wy6devX/J1FQ2yN9tssziA2QUCCCCAQPLi0x133LGShH4NUP//EFdYAoTHYfWLahFAAAEEEAhF4M4775RzzjkneU+XPmCoTyKbXqWGx/qQ45FHHikTJkyQCy64QK6//nrTEhhfjQDhcYAfjYrjAfQ8mWeeecb4h7KU8PjZZ5+VI444QtZee+3kUPT99tsvQMF4Sv7444+TAFmPsPjjH/8ol19+ufHmsobH3377bXKUyogRI5KnjjXAXmeddYzX5wYEEEAAAX8FCI/97U2WygiPs6hxDwIIIIAAAgikEZg4cWLyDfU11lhDnnjiCdGjI0yuUsLjuXPnJt+IX7RoUfLU8WmnnWayNGNrECA8DvQjUvFD+f333yeP4eu/DKS9soTHGlLqsRn333+/NGzYUMaOHStbb7112iUZZ1FAQ1x9+vuxxx4Tfdup/nJBnwJOe2UJj/WrKBdddJEsWLBArrzyStGnj7kQQAABBOITIDyOq6eEx3H1k90ggAACCCDgm4D+b0cNcfXv+iSy5gWbbrppqjKzhMdff/219O/fP3nKeN111+Uhx1TS5oMIj83NvLnjpz+U+pUAPQ9ZnwCt6TIJjzWY1B/Ca665RpYtWyYdOnQQfXlf7dq1a1qGf+5Y4KqrrvrxyeOTTz456dnmm29eYxUm4fGsWbOSM7enTJmS/ME8dOhQ6dy5c41rMAABBBBAIEwBwuMw+1Zd1YTHcfWT3SCAAAIIIOCjwNKlS5MnkPWhxw033DB52EyPkajpMg2P9dvP+jClvhOKhxxr0i3tnxMel+ZX+N3ffPONDBw4MAkK9engFi1ayC233LLKJ0/ThscPP/xw8rTxu+++K40bN5YrrrgiOT+Gy18BPb6ib9++yW/bNNzV/ukTwqs6TiJNeKyfLf0XTv36h1569rYekZEmnPZXi8oQQAABBGoSIDyuSSisf054HFa/qBYBBBBAAIGQBTRT0ieP9b1ZeuyqPpi4qofP0obH06ZNSx5qe+WVV2TLLbeUPn36SI8ePUKm8r52wmPvW5SuwJVDZH2RTdu2bZO/9JyZWrVq/ThRdeHxZ599JmPGjEnOUda/9Lc3hMbp/H0bVXEGsp5HvP7660vr1q1//Dw0aNDgZ+VWFx6/9NJLP34W9DeGeunXTvS3hoTGvnWcehBAAAE7AoTHdlyLmpXwuCh51kUAAQQQQKB8BX4aIm+77bY/ZhNt2rSRTTbZ5EeY6sLj5cuXy/jx43/MJzSMJjR2+3kiPHbr7WQ1Dfr0xXYaBL/88svJmuutt14SIm6wwQaiZ8K8//77ydvT//Of/8hXX32V/KVHVGjI3LJly+SHWX+QmzRp4qRmFrEj8OGHHyafAz2jWn8h8MknnyQLbbzxxslnQT8TerC8PqWsf/hWfBa+/PLLZNwOO+wg7dq1S/7SAFrHcyGAAAIIlI8A4XFcvSY8jquf7AYBBBBAAIGQBGbMmPFjADxu3LikdP2WdEU2sdpqqyVnJev7tfS/13xCj8DQDEuvfffdN8mqDjnkkORb91zuBAiP3VkXspKGgC+88IK8/vrrMn/+/OQHUcPl7777LvkNj/7wNWrUKAkJd9555yQ45opXQJ9I/sc//pF8DubNmyfTp09P/rNezZs3F30qWf/Sr5Q0bdpU6tWrFy8GO0MAAQQQqFGA8LhGoqAGEB4H1S6KRQABBBBAIFoBfXjxxRdfTI60WLBggbzxxhvJu5U0w9LgWL9Br7mEZlW77LJLkl3xMFtxHwfC4+LsC1tZf/D0B7Nnz57J+chc5SswfPhwOeqooxKAJUuWJIfZcyGAAAIIIFAhQHgc12eB8DiufrIbBBBAAAEEYhI47bTT5P7770+C4qlTp8a0teD3QngcfAvNN0B4bG4W6x2Ex7F2ln0hgAAC+QgQHufj6MsshMe+dII6EEAAAQQQQGBlAcJjfz8ThMf+9sZaZYTH1miDm5jwOLiWUTACCCDgVIDw2Cm39cUIj60TswACCCCAAAIIZBQgPM4I5+A2wmMHyL4tQXjsW0eKq4fwuDh7VkYAAQRCECA8DqFL6WskPE5vxUgEEEAAAQQQcCtAeOzW22Q1wmMTrUjGEh5H0sgctkF4nAMiUyCAAAIRCxAex9VcwuO4+sluEEAAAQQQiEmA8NjfbhIe+9sba5URHlujDW5iwuPgWkbBCCCAgFMBwmOn3NYXIzy2TswCCCCAAAIIIJBRgPA4I5yD2wiPHSD7tgThsW8dKa4ewuPi7FkZAQQQCEGA8DiELqWvkfA4vRUjEUAAAQQQQMCtAOGxW2+T1QiPTbQiGUt4HEkjc9gG4XEOiEyBAAIIRCxAeBxXcwmP4+onu0EAAQQQQCAmAcJjf7tJeOxvb6xVRnhsjTa4iQmPg2sZBSOAAAJOBQiPnXJbX4zw2DoxCyCAAAIIIIBARgHC44xwDm4jPHaA7NsShMe+daS4egiPi7NnZQQQQCAEAcLjELqUvkbC4/RWjEQAAQQQQAABtwKEx269TVYjPDbRimQs4XEkjcxhG4THOSAyBQIIIBCxAOFxXM0lPI6rn+wGAQQQQACBmAQIj/3tJuGxv72xVhnhsTXa4CYmPA6uZRSMAAIIOBUgPHbKbX0xwmPrxCyAAAIIIIAAAhkFCI8zwjm4jfDYAbJvS+yxxx4yc+ZM6dmzp9xyyy2+lUc9DgUIjx1isxQCCCAQoADhcYBNW0XJhMdx9ZPdIIAAAgggEJNARXjcsmVLmThxYkxbC34vhMfBt9B8A4TH5max3kF4HGtn2RcCCCCQjwDhcT6OvsxCeOxLJ6gDAQQQQAABBFYWIDz29zNBeOxvb6xVRnhsjTa4iQmPg2sZBSOAAAJOBQiPnXJbX4zw2DoxCyCAAAIIIIBARgHC44xwDm4jPHaA7NsShMe+daS4egiPi7NnZQQQQCAEAcLjELqUvkbC4/RWjEQAAQQQQAABtwKEx269TVYjPDbRimQs4XEkjcxhG4THOSAyBQIIIBCxAOFxXM0lPI6rn+wGAQQQQACBmAQIj/3tJuGxv72xVhnhsTXa4CYmPA6uZRSMAAIIOBUgPHbKbX0xwmPrxCyAAAIIIIAAAhkFCI8zwjm4jfDYAbJvSxAe+9aR4uohPC7OnpURQACBEAQIj0PoUvoaCY/TWzESAQQQQAABBNwKEB679TZZjfDYRCuSsYTHkTQyh20QHueAyBQIIIBAxAKEx3E1l/A4rn6yGwQQQAABBGISIDz2t5uEx/72xlplhMfWaIObmPA4uJZRMAIIIOBUgPDYKbf1xQiPrROzAAIIIIAAAghkFCA8zgjn4DbCYwfIvi1BeOxbR4qrh/C4OHtWRgABBEIQIDwOoUvpayQ8Tm/FSAQQQAABBBBwK0B47NbbZDXCYxOtSMYSHkfSyBy2QXicAyJTIIAAAhELEB7H1VzC47j6yW4QQAABBBCISYDw2N9uEh772xtrlREeW6MNbmLC4+BaRsEIIICAUwHCY6fc1hcjPLZOzAIIIIAAAgggkFGA8DgjnIPbCI8dIPu2BOGxbx0prh7C4+LsWRkBBBAIQYDwOIQupa+R8Di9FSMRQAABBBBAwK0A4bFbb5PVCI9NtCIZS3gcSSNz2AbhcQ6ITIEAAghELEB4HFdzCY/j6ie7QQABBBBAICYBwmN/u0l47G9vrFVGeGyNNriJCY+DaxkFI4AAAk4FCI+dcltfjPDYOjELIIAAAggggEBGAcLjjHAObiM8doDs2xKEx751pLh6CI+Ls2dlBBBAIAQBwuMQupS+RsLj9FaMRAABBBBAAAG3AoTHbr1NViM8NtGKZCyEvCTeAAAgAElEQVThcSSNzGEbhMc5IDIFAgggELEA4XFczSU8jquf7AYBBBBAAIGYBAiP/e0m4bG/vbFWGeGxNdrgJiY8Dq5lFIwAAgg4FSA8dsptfTHCY+vELIAAAggggAACGQUIjzPCObiN8NgBsm9LEB771pHi6iE8Ls6elRFAAIEQBAiPQ+hS+hoJj9NbMRIBBBBAAAEE3AoQHrv1NlmN8NhEK5KxhMeRNDKHbRAe54DIFAgggEDEAoTHcTWX8DiufrIbBBBAAAEEYhIgPPa3m4TH/vbGWmWEx9Zog5uY8Di4llEwAggg4FSA8Ngpt/XFCI+tE7MAAggggAACCGQUIDzOCOfgNsJjB8i+LUF47FtHiquH8Lg4e1ZGAAEEQhAgPA6hS+lrJDxOb8VIBBBAAAEEEHArQHjs1ttkNcJjE61IxhIeR9LIHLZBeJwDIlMggAACEQsQHsfVXMLjuPrJbhBAAAEEEIhJgPDY324SHvvbG2uVER5bow1uYsLj4FpGwQgggIBTAcJjp9zWFyM8tk7MAggggAACCCCQUYDwOCOcg9sIjx0g+7YE4bFvHSmuHsLj4uxZGQEEEAhBgPA4hC6lr5HwOL0VIxFAAAEEEEDArQDhsVtvk9UIj020IhlLeBxJI3PYBuFxDohMgQACCEQsQHgcV3MJj+PqJ7tBAAEEEEAgJgHCY3+7SXjsb2+sVUZ4bI02uIkJj4NrGQUjgAACTgUIj51yW1+M8Ng6MQsggAACCCCAQEYBwuOMcA5uIzx2gOzbEoTHvnWkuHoIj4uzZ2UEEEAgBAHC4xC6lL5GwuP0VoxEAAEEEEAAAbcChMduvU1WIzw20YpkLOFxJI3MYRuExzkgMgUCCCAQsQDhcVzNJTyOq5/sBgEEEEAAgZgECI/97Sbhsb+9sVYZ4bE12uAmJjwOrmUUjAACCDgVIDx2ym19McJj68QsgAACCCCAAAIZBQiPM8I5uI3w2AGyb0sQHvvWkeLqITwuzp6VEUAAgRAECI9D6FL6GgmP01sxEgEEEEAAAQTcChAeu/U2WY3w2EQrkrGEx5E0ModtEB7ngMgUCCCAQMQChMdxNZfwOK5+shsEEEAAAQRiEiA89rebhMf+9sZaZYTH1miDm5jwOLiWUTACCCDgVIDw2Cm39cUIj60TswACCCCAAAIIZBQgPM4I5+A2wmMHyL4tQXjsW0eKq4fwuDh7VkYAAQRCECA8DqFL6WskPE5vxUgEEEAAAQQQcCtAeOzW22Q1wmMTrUjGEh5H0sgctkF4nAMiUyCAAAIRCxAex9VcwuO4+sluEEAAAQQQiEmA8NjfbhIe+9sba5URHlujDW5iwuPgWkbBCCCAgFMBwmOn3NYXIzy2TswCCCCAAAIIIJBRgPA4I5yD2wiPHSD7tgThsW8dKa4ewuPi7FkZAQQQCEGA8DiELqWvkfA4vRUjEUAAAQQQQMCtAOGxW2+T1QiPTbQiGUt4HEkjc9gG4XEOiEyBAAIIRCxAeBxXcwmP4+onu0EAAQQQQCAmAcJjf7tJeOxvb6xVRnhsjTa4iQmPg2sZBSOAAAJOBQiPnXJbX4zw2DoxCyCAAAIIIIBARgHC44xwDm4jPHaA7NsShMe+daS4egiPi7NnZQQQQCAEAcLjELqUvkbC4/RWjEQAAQQQQAABtwKEx269TVYjPDbRimQs4XEkjcxhG4THOSAyBQIIIBCxAOFxXM0lPI6rn+wGAQQQQACBmAQIj/3tJuGxv72xVhnhsTXa4CYmPA6uZRSMAAIIOBUgPHbKbX0xwmPrxCyAAAIIIIAAAhkFCI8zwjm4jfDYAbJvSxAe+9aR4uohPC7OnpURQACBEAQIj0PoUvoaCY/TWzESAQQQQAABBNwKEB679TZZjfDYRCuSsYTHkTQyh20QHueAyBQIIIBAxAKEx3E1l/A4rn6yGwQQQAABBGISIDz2t5uEx/72xlplhMfWaIObmPA4uJZRMAIIIOBUgPDYKbf1xQiPrROzAAIIIIAAAghkFCA8zgjn4DbCYwfIvi1BeOxbR4qrh/C4OHtWRgABBEIQIDwOoUvpayQ8Tm/FSAQQQAABBBBwK0B47NbbZDXCYxOtSMYSHkfSyBy2QXicAyJTIIAAAhELEB7H1VzC47j6yW4QQAABBBCISYDw2N9uEh772xtrlREeW6MNbmLC4+BaRsEIIICAUwHCY6fc1hcjPLZOzAIIIIAAAgggkFGA8DgjnIPbCI8dIPu2BOGxbx0prh7C4+LsWRkBBBAIQYDwOIQupa+R8Di9FSMRQAABBBBAwK0A4bFbb5PVCI9NtCIZS3gcSSNz2AbhcQ6ITIEAAghELEB4HFdzCY/j6ie7QQABBBBAICYBwmN/u0l47G9vrFVGeGyNNriJCY+DaxkFI4AAAk4FCI+dcltfjPDYOjELIIAAAggggEBGAcLjjHAObiM8doDs2xKEx751pLh6CI+Ls2dlBBBAIAQBwuMQupS+RsLj9FaMRAABBBBAAAG3AoTHbr1NViM8NtGKZCzhcSSNzGEbhMc5IDIFAgggELEA4XFczSU8jquf7AYBBBBAAIGYBAiP/e0m4bG/vbFWGeGxNdrgJiY8Dq5lFIwAAgg4FSA8dsptfTHCY+vELIAAAggggAACGQUIjzPCObiN8NgBsm9LEB771pHi6iE8Ls6elRFAAIEQBAiPQ+hS+hoJj9NbMRIBBBBAAAEE3AoQHrv1NlmN8NhEK5KxhMeRNDKHbRAe54DIFAgggEDEAoTHcTWX8DiufrIbBBBAAAEEYhIgPPa3m4TH/vbGWmWEx9Zog5uY8Di4llEwAggg4FSA8Ngpt/XFCI+tE7MAAggggAACCGQUIDzOCOfgNsJjB8i+LUF47FtHiquH8Lg4e1ZGAAEEQhAgPA6hS+lrJDxOb8VIBBBAAAEEEHArQHjs1ttkNcJjE61IxhIeR9LIHLZBeJwDIlMggAACEQsQHsfVXMLjuPrJbhBAAAEEEIhJgPDY324SHvvbG2uVER5bow1uYsLj4FpGwQgggIBTAcJjp9zWFyM8tk7MAggggAACCCCQUYDwOCOcg9sIjx0g+7YE4bFvHSmuHsLj4uxZGQEEEAhBgPA4hC6lr5HwOL0VIxFAAAEEEEDArQDhsVtvk9UIj020IhlLeBxJI3PYBuFxDohMgQACCEQsQHgcV3MJj+PqJ7tBAAEEEEAgJgHCY3+7SXjsb2+sVUZ4bI02uIkJj4NrGQUjgAACTgUIj51yW1+M8Ng6MQsggAACCCCAQEYBwuOMcA5uIzx2gOzbEoTHvnWkuHoIj4uzZ2UEEEAgBAHC4xC6lL5GwuP0VoxEAAEEEEAAAbcChMduvU1WIzw20YpkLOFxJI3MYRuExzkgMgUCCCAQsQDhcVzNJTyOq5/sBgEEEEAAgZgECI/97Sbhsb+9sVYZ4bE12uAmJjwOrmUUjAACCDgVIDx2ym19McJj68QsgAACCCCAAAIZBQiPM8I5uI3w2AGyb0sQHvvWkeLqITwuzp6VEUAAgRAECI9D6FL6GgmP01sxEgEEEEAAAQTcChAeu/U2WY3w2EQrkrGEx5E0ModtEB7ngMgUCCCAQMQChMdxNZfwOK5+shsEEEAAAQRiEiA89rebhMf+9sZaZYTH1miDm5jwOLiWUTACCCDgVIDw2Cm39cUIj60TswACCCCAAAIIZBQgPM4I5+A2wmMHyL4tQXjsW0eKq4fwuDh7VkYAAQRCECA8DqFL6WskPE5vxUgEEEAAAQQQcCtAeOzW22Q1wmMTrUjGEh5H0sgctkF4nAMiUyCAAAIRCxAex9VcwuO4+sluEEAAAQQQiEmA8NjfbhIe+9sba5URHlujDW5iwuPgWkbBCCCAgFMBwmOn3NYXIzy2TswCCCCAAAIIIJBRgPA4I5yD2wiPHSD7tgThsW8dKa4ewuPi7FkZAQQQCEGA8DiELqWvkfA4vRUjEUAAAQQQQMCtAOGxW2+T1QiPTbQiGUt4HEkjc9gG4XEOiEyBAAIIRCxAeBxXcwmP4+onu0EAAQQQQCAmAcJjf7tJeOxvb6xVRnhsjTa4iQmPg2sZBSOAAAJOBQiPnXJbX4zw2DoxCyCAAAIIIIBARgHC44xwDm4jPHaA7NsShMe+daS4egiPi7NnZQQQQCAEAcLjELqUvkbC4/RWjEQAAQQQQAABtwKEx269TVYjPDbRimQs4XEkjcxhG4THOSAyBQIIIBCxAOFxXM0lPI6rn+wGAQQQQACBmAQIj/3tJuGxv72xVhnhsTXa4CYmPA6uZRSMAAIIOBUgPHbKbX0xwmPrxCyAAAIIIIAAAhkFCI8zwjm4jfDYAbJvSxAe+9aR4uohPC7OnpURQACBEAQIj0PoUvoaCY/TWzESAQQQQAABBNwKEB679TZZjfDYRCuSsYTHkTQyh20QHueAyBQIIIBAxAKEx3E1l/A4rn6yGwQQQAABBGISIDz2t5uEx/72xlplhMfWaIObmPA4uJZRMAIIIOBUgPDYKbf1xQiPrROzAAIIIIAAAghkFCA8zgjn4DbCYwfIvi1BeOxbR4qrh/C4OHtWRgABBEIQIDwOoUvpayQ8Tm/FSAQQQAABBBBwK0B47NbbZDXCYxOtSMYSHkfSyBy2QXicAyJTIIAAAhELEB7H1VzC47j6yW4QQAABBBCISYDw2N9uEh772xtrlREeW6MNbmLC4+BaRsEIIICAUwHCY6fc1hcjPLZOzAIIIIAAAgggkFGA8DgjnIPbCI8dIPu2BOGxbx0prh7C4+LsWRkBBBAIQYDwOIQupa+R8Di9FSMRQAABBBBAwK0A4bFbb5PVCI9NtCIZS3gcSSNz2AbhcQ6ITIEAAghELEB4HFdzCY/j6ie7QQABBBBAICYBwmN/u0l47G9vrFVGeGyNNriJCY+DaxkFI4AAAk4FCI+dcltfjPDYOjELIIAAAggggEBGAcLjjHAObiM8doDs2xKEx751pLh6CI+Ls2dlBBBAIAQBwuMQupS+RsLj9FaMRAABBBBAAAG3AoTHbr1NViM8NtGKZCzhcSSNzGEbhMc5IDIFAgggELEA4XFczSU8jquf7AYBBBBAAIGYBAiP/e0m4bG/vbFWGeGxNdrgJiY8Dq5lFIwAAgg4FSA8dsptfTHCY+vELIAAAggggAACGQUIjzPCObiN8NgBsm9LEB771pHi6iE8Ls6elRFAAIEQBAiPQ+hS+hoJj9NbMRIBBBBAAAEE3AoQHrv1NlmN8NhEK5KxhMeRNDKHbRAe54DIFAgggEDEAoTHcTWX8DiufrIbBBBAAAEEYhIgPPa3m4TH/vbGWmWEx9Zog5uY8Di4llEwAggg4FSA8Ngpt/XFCI+tE7MAAggggAACCGQUIDzOCOfgNsJjB8i+LUF47FtHiquH8Lg4e1ZGAAEEQhAgPA6hS+lrJDxOb8VIBBBAAAEEEHArQHjs1ttkNcJjE61IxhIeR9LIHLZBeJwDIlMggAACGQUOO+ww+fvf/57x7mJv22233eS1114rtghWNxaoLjw2nqigG3744YeCVmZZBBBAAAEEELAtQHhsWzj7/ITH2e2CvZPwONjW5V444XHupEyIAAIIpBYgPE5NxcCcBAiPc4JkGgQQQAABBBDIXYDwOHfS3CYkPM6NMpyJCI/D6ZXtSgmPbQszPwIIIFC9AOExnw7XAoTHrsVZDwEEEEAAAQTSChAep5VyP47w2L154SsSHhfeAm8KIDz2phUUggACZShAeFyGTS94y4THBTeA5RFAAAEEEECgWgHCY38/HITH/vbGWmWEx9Zog5uY8Di4llEwAghEJEB4HFEzA9kK4XEgjaJMBBBAAAEEylCA8NjfphMe+9sba5URHlujDW5iwuPgWkbBCCAQkQDhcUTNDGQrhMeBNIoyEUAAAQQQKEMBwmN/m0547G9vrFVGeGyNNriJCY+DaxkFI4AAAggggAACCCCAAAIIIBCdAOGxvy0lPPa3N9YqIzy2RhvcxITHwbWMghFAAAEEEEAAAQQQQAABBBCIToDw2N+WEh7725ukMg33XnvttVyrvOuuu+TDDz+UffbZR9q3b5/r3J06dZK99tor1zmZ7L8Cn376qdx22225csyZM0ceffTRZM4+ffrI2muvndv8G2ywgfTq1Su3+ZgIAQQQQACBrAKLFi2ShQsXiv694j+///778tVXX8ny5cvl66+/Tv6q+M+6ziabbCLrrrtu8td6660ntWvXlrp160q9evVk2223Tf6+3XbbJX/VqlUra2nchwACCCCAAAIIBCcwZcoUeeaZZ3Kte8SIETJz5szkf2edeuqpuc7drFkz6dChQ65zltNkhMeed7tr167y0EMPeV7l/5V35513yllnnRVMvSEVqkFvo0aNgil5q622kvfeey+YeikUAQQQQCAOge+//15eeeUVGTduXPKX/svNN998Y21zq6++uuy+++5y8MEHS5s2bWT//fdPAmcuBBBAAAEEEEAgVoFrr71WevfuHcz2zj333Nwfxgtm8zkUSnicA6LNKa6++mp59tlnbS6R69z6pKk+fcyVv8A777yT+2/f8q/y/2bcbLPNfnyq2eY6zI0AAggggMCyZcvkkUcekaeeekomTJggS5YsKRTlgAMOkEMOOUS6desmW2+9daG1sDgCCCCAAAIIIJC3wMMPPyz6rfZQri5dush5550XSrne1Ul47F1LKAgBBBBAAAEEEECgJoH//Oc/MmbMGBkyZIjo1xxtPl1cUy3V/fPVVlsteRL5lFNOkeOOO07WX3/9rFNxHwIIIIAAAggggAAChQgQHhfCzqIIIIAAAggggAACWQT0rOKbbrpJHnjgAfnss8+yTFHYPSeccIKcffbZ0rJly8JqYGEEEEAAAQQQQAABBEwECI9NtBiLAAIIIIAAAgggUIiAvkC4X79+8thjj+W6/oYbbvjjC/H0xXj6dLA+xaxHYegL9PTvn3/+ea5r6kuL//CHP0jnzp1znZfJEEAAAQQQQAABBBDIW4DwOG9R5kMAAQQQQAABBBDITeC5554TfSmLHlGR9dprr72kYcOGUr9+fdlhhx1kxx13TP6u5/OnvTRQnjt3rixYsEDmz58vb7/9trz11lvy4osvyrfffpt2mp+N22mnnaRPnz5y2mmnZbqfmxBAAAEEEEAAAQQQsC1AeGxbmPkRQAABBBBAAAEEjAUWLVok3bt3Fw2PTa4111xTmjZtmhwN0apVK9GX19WuXdtkCqOxevby9OnTZdKkSclfkydPNn5h33bbbSd/+ctf5KCDDjJam8EIIIAAAggggAACCNgWIDy2Lcz8CCCAAAIIIIAAAqkFVqxYIX/+85+lf//+ov85zbXGGmtI69at5cQTT5Sjjz660BfTff/99zJu3Dh56KGHZPjw4fLVV1+l2UIyRmsfMGCA1K1bN/U9DEQAAQQQQAABBBBAwKYA4bFNXeZGAAEEEEAAAQQQSC3w7LPPyllnnZUcDZHmatKkiXTr1k30RXQ+Bq56nMXIkSNlyJAh8tRTT6XZUhJ8/+lPf5IePXqkGs8gBBBAAAEEEEAAAQRsChAe29RlbgQQQAABBBBAAIEaBf71r3/J+eefL3fccUeNY3WAHklx8cUXS7t27VKN92HQm2++mTxNrU8k635ruvbbbz959NFHZcstt6xpKP8cAQQQQAABBBBAAAFrAoTH1miZGAEEEEAAAQQQQKAmAT3buEuXLjJr1qyahkrHjh3l0ksvlebNm9c41tcB77//fvICwEGDBom+hG9V1yabbCKPPPKItGnTxtftUBcCCCCAAAIIIIBA5AKEx5E3mO0hgAACCCCAAAK+Cvz973+X448/XpYtW7bKEhs1aiT33HOP6NO4sVz//Oc/pWfPnvL444+vckurrbaa9O7dW/r16yd6tjMXAggggAACCCCAAAIuBQiPXWqzFgIIIIAAAggggEBybEOvXr3ktttuW6VG7dq1pW/fvsmRFrEGp88995x0795d9AnsVV0cY8EPDgIIIIAAAggggEARAoTHRaizJgIIIIAAAgggUKYCy5cvT84qnjJlyioFjjrqKLn11ltliy22iF5qxYoV8uc//zk5E1n/c3VXnTp1ZOLEidKwYcPoTdggAggggAACCCCAgB8ChMd+9IEqEEAAAQQQQACB6AU+++wzadu2rbz66qvV7rVWrVoyePBgOfroo6P3WHmDs2fPls6dO8vChQur3ftGG20kY8aMkWbNmpWdDxtGAAEEEEAAAQQQcC9AeOzenBURQAABBBBAAIGyE/jggw+kZcuW8vbbb1e79x133FFGjBghO++8c9n5VGz4q6++kq5du8rIkSNXGbDredGtW7cuWyc2jgACCCCAAAIIIOBGgPDYjTOrIIAAAggggAACZSuwYMECOfDAA+W9996r1uC4446TQYMGiZ5zzCVy4403ygUXXLBKimHDhoke78GFAAIIIIAAAggggIAtAcJjW7LMiwACCCCAAAIIICAff/yxNG3adJXB8YUXXijXXXcdWisJPPPMM9KpU6dqz0H+xS9+IU8++aS0b98eOwQQQAABBBBAAAEErAgQHlthZVIEEEAAAQQQQACBJUuWyP777y+vv/56tRh9+/aVK664AqxqBCZMmCAdOnSQb775psoR66yzTvISPc5A5iOEAAIIIIAAAgggYEOA8NiGKnMigAACCCCAAAJlLvDtt98mZxy//PLL1Uro08b61DHXqgWmTp0q7dq1k2XLllU5UF+i9+KLL0qDBg2gRAABBBBAAAEEEEAgVwHC41w5mQwBBBBAAAEEEEDg3//+t3Ts2FHGjh1bLcaAAQOkR48eYKUU0BC+TZs2snTp0irv2GKLLZKgXv/OhQACCCCAAAIIIIBAXgKEx3lJMg8CCCCAAAIIIIBAItCzZ0/RcLi6q3///tK7d2+0DAVeeukladWqlehT3VVdTZo0SZ5A1qMsuBBAAAEEEEAAAQQQyEOA8DgPReZAAAEEEEAAAQQQSAT0BW6HH354tRrnnXee3HzzzWhlFBg9enTyEj19uruqq3v37jJo0KCMs3MbAggggAACCCCAAAI/FyA85hOBAAIIIIAAAgggkIvA22+/LXvssUe1Z/OecMIJMnTo0FzWKudJHnvsMTnuuOPkhx9+qJLhgQcekFNOOaWcidg7AggggAACCCCAQE4ChMc5QTINAggggAACCCBQzgIrVqxIguM5c+ZUyXDIIYfIqFGjZI011ihnptz2fvvtt1d7ZrQeW/HKK69Io0aNcluPiRBAAAEEEEAAAQTKU4DwuDz7zq4RQAABBBBAAIFcBU4++WR58MEHq5yzfv36MmvWLFl33XVzXbPcJzvzzDPlnnvuqdZ8xowZsv7665c7E/tHAAEEEEAAAQQQKEGA8LgEPG5FAAEEEEAAAQQQEPnb3/4mRxxxRJUUGhhPnz5ddt55Z6hyFtAX5zVv3jwJ5qu6zj77bBk4cGDOqzIdAggggAACCCCAQDkJEB6XU7fZKwIIIIAAAgggkLPAN998IzvttJO8//77Vc6s5/MeffTROa/KdBUCixYtksaNG8tXX31VCWW11VaTl156SZo2bQoYAggggAACCCCAAAKZBAiPM7FxEwIIIIAAAggggIAK9O7dW6699toqMc444wy5++67gbIsMGLECOnSpUuVq+y2227Jk8kaJHMhgAACCCCAAAIIIGAqQHhsKsZ4BBBAAAEEEEAAgUTgzTfflF133VX+/e9/VxLZaqutZN68eVKrVi20HAiccsopMmTIkCpXuvXWW+W3v/2tgypYAgEEEEAAAQQQQCA2AcLj2DrKfhBAAAEEEEAAAUcCet7utGnTqlxt9OjR0q5dO0eVsMynn34qO+64oyxZsqQSRu3atWXhwoWy6aabAoUAAggggAACCCCAgJEA4bERF4MRQAABBBBAAAEEVGDkyJHSuXPnKjH0jGM965jLrcCgQYNEjwqp6jr33HPltttuc1sQqyGAAAIIIIAAAggEL0B4HHwL2QACCCCAAAIIIOBeYK+99pIZM2ZUufCdd94pZ511lvuiynzFDz/8UPS4kP/85z+VJNZaa63kpYabbbZZmSuxfQQQQAABBBBAAAETAcJjEy3GIoAAAggggAACCMi4ceOkTZs21UrUrVs3Oe94/fXXR8uhwPHHHy+PPPJItStedNFFcs011zisiKUQQAABBBBAAAEEQhcgPA69g9SPAAIIIIAAAgg4FjjooINk/Pjxq1xVX9CmL2rjciOg/dC+rOrSMP+dd96RjTfe2E1RrIIAAggggAACCCAQvADhcfAtZAMIIIAAAggggIA7AT2qQo+sqOlabbXVZNasWbLbbrvVNJR/XqLAihUrpFGjRrJgwYIaZ7ryyivlsssuq3EcAxBAAAEEEEAAAQQQUAHCYz4HCCCAAAIIIIAAAqkFTjrpJBk6dGiq8U2bNpWXXnpJNEjmsifQt29f+eMf/5hqgTp16oiejUxPUnExCAEEEEAAAQQQKHsBwuOy/wgAgAACCCCAAAIIpBNYvny5bLrppvLtt99WumGNNdao8kVtt99+u/zmN79JtwCjjAX0aWN96lifPk57jR07Vtq2bZt2OOMQQAABBBBAAAEEyliA8LiMm8/WEUAAAQQQQAABE4EHHnhATj311Eq3bLTRRtK9e3e54YYbKv0zPWdXA04NnbnyF6ju/Gk9LmTrrbeWUaNGVVr05JNPlsGDB+dfDDMigAACCCCAAAIIRCdAeBxdS9kQAggggAACCCBgR6BNmzYybty4SpP36NFDrr32WmnQoIG89957lf65HnXx4IMP2imqjGd9+OGH5YQTTqhS4OWXX06Op+jUqVOlf77OOuvIF198Ifp3LgQQQAABBBBAAAEEViVAeMznAwEEEEAAAQQQQKBGgX/+85+y1VZbyQ8//FBp7JQpU7ATXmMAACAASURBVGS//faTp59+Wjp06FDlXM8995y0bt26xnUYkE7gq6++kp122ikJiFe+zjjjDLn77ruTY0Q222yzJChe+RoyZIh07do13WKMykVA+7Fs2TLZcMMNc5mPSaoWUOO1115b1lxzzbIj0iOFvv/+e1l33XXLbu9sGAEEEEDAngDhsT1bZkYAAQQQQAABBKIR0CeLe/fuXWk/Gij/9Gnjzp07y8iRIyuN23777WXu3LllGejY+BD07NlTBgwYUGlqPR7krbfeEj1KRK8zzzxT7rnnnkrj9MxjPfu4qGvQoEGyePHi3JfXsNyXM7afeOIJuemmm+STTz5J/vr8889ln332kRdeeCH3fZfrhBqUHnrooT8aq7Oe//3iiy8m1rFfF154oTz//PPJ/j/99FPRXyr179+/yj+rY7dgfwgggAAC9gQIj+3ZMjMCCCCAAAIIIBCNwAEHHCCTJ0+utB8NlDWsqLg0SNbjK7755ptKY/v16yeXXHJJNCZFbWT27NnSpEmTKp8Cv++++352LvX48eNFz0Ve+Vp99dVFX4BY1NEVDRs2lDfffDMpq3bt2qJnNG+zzTbJE5NrrbWW/Otf/5Jp06bJ66+//mPp+mLA5s2bJ7+A+O6775LPmH7e1GPp0qXJuJV/mVFUj3TdmTNnJse86B7uv//+pF9aP+Fxfl1RU/0ligan+jT9okWLksnLJTx+/PHHZd68efLUU0/J1KlTk70THuf3+WImBBBAAIH/ChAe80lAAAEEEEAAAQQQWKXAv//9b6lVq5bo31e+NCDTIPOn1zXXXCN9+vSpNFa/Sq5PxeqL3LiyCWhY1qxZM5k+fXqlCfToED1C5KeXjt98883lo48+qjRenzzWJ5CLuH75y18mT0lef/31osds6Odr5UsD4Z8e8aAvXqxXr16lcfqkqYaz5513XvLP9Kv7vl36dOzo0aMJjy02ZsyYMdK+fftkhXIJjys49RdB+m0D/TOa8Njih4ypEUAAgTIVIDwu08azbQQQQAABBBBAIK2Afi26ZcuWlYbXrVtXPvjgg0r/vT41qk+SVjxZ+tMBGqKNGjUq7dKMW0ngjjvukHPPPbeSyxprrJE84apPfa98nX766aJPJK98XXrppXLVVVc5N9azf/Xp4auvvlr+8Ic/rHL9X/ziF8nZzXrp2c0Vx3FUddOtt96aBMgaSuvTzD5dFceH8OSxva688cYbsssuuyQLlFt4rHuuU6dOcnwF4bG9zxgzI4AAAuUqQHhcrp1n3wgggAACCCCAQEoBDfk0aFz5OvbYY+WRRx6pchb9CnWLFi2q/GfDhg2To446KuXqDKsQ0K/m69nRGo6ufP3+978XPZe6quvee++V7t27V/pH+guBiRMnOgf++OOPZcstt0yOGqjp5XEaMlc88b5kyZJVjv/6669Fn2jWELGqJ5Sdb/QnC55zzjly55138uSxxSboL6v0OBS9yjE81m8Y6As0CY8tfsiYGgEEEChTAcLjMm0820YAAQQQQAABBNIK6FfB9SvhK1961miPHj2qnaZbt24yePDgSv9cn1jWIwiqOqogbU3lOK5r167y0EMPVdq6HgOiwVl1nnpUyE477VTpPj3vWINofbrX5aXhrn42Xn755RqXNQmPdbJWrVolR2HsvffeNc7tcgDhsX1twmPCY/ufMlZAAAEEylOA8Lg8+86uEUAAAQQQQACBVALff/998rTnsmXLKo1/9dVXZffdd692Hn2ydMcddxR9YnTlq1evXnLDDTekqoFBItW9+E5tnnjiCenSpcsqmTbddFP57LPPKo3RI0n2339/p8T6tPM999wjDz74YI3rmobHZ511lnTu3Fk6dOhQ49wuBxAe29cmPCY8tv8pYwUEEECgPAUIj8uz7+waAQQQQAABBBBIJfD2228nAfDKl54p++WXX8rqq6++ynn0q/oanK186Rm9Gj7r2chcqxbQM6T16/j6tPbKV9ozpPWYkOHDh1e6v6anx2305vHHH5cZM2YkZx7XdJmGxzqnPol9yimn1DS1039OeGyfm/CY8Nj+p4wVEEAAgfIUIDwuz76zawQQQAABBBBAIJXA2LFjpV27dpXG6nnGkydPrnGOH374QZo1aybTp0+vNLZp06apji6ocZHIB/Tr108uu+yySrtce+21RY+k0LC0pktfjHf55ZdXGlbEE+B69MaKFStEX+RX02UaHj/88MPJURxnnHFGTVM7/eeEx/a5CY8Jj+1/ylgBAQQQKE8BwuPy7Du7RgABBBBAAAEEUgncddddcvbZZ1caq092PvDAA6nmmD17tjRp0kQ0SF750uMLfv3rX6eapxwH6dPGjRo1SsLWlS99yvbiiy9OxTJ06FA56aSTKo3V4y702AtfL9PwWI9Z0V9U6JEpn3zySfJ3/UuD6pWfoNezlxcvXvzjOB2vR3is/MsSffp+4cKFyTj9S1/4p09y77nnnqLrPfnkk6IviNSn8U888UTZYYcdKnFWFR5/8MEHMmLECJk/f76stdZaSX2dOnVKXvpnek2ZMiV5slx/mbB8+XLZaqutpE2bNslxJuuvv36V02nIPuv/tXcewFZVZ/9e9pbPrmTEIIqCPRKV2GIBzSAqKhaM2I2aoEYsELEEOxIcMXbFjtgVeweNDmrsWCLRRFCMLSYSNaAQ9f9/9nz7fpt99mn3nH3u4d7nnTlzmXvWXuVZa2/m/ta7f2vKlJZxMTY2JE444YSoPAcVPvzww+FPf/pTZFuzyiqrRGw23HDDgvpeeuml8PzzzwdY0TZrdocddij7ZkKyIvp+2223hVdffTWas5VXXjnyrh44cGBFGyTViseMCWaPPfZYtA6YPzL8aW/jjTeuaApYF2xYkElPn7t27RrWW2+9cPDBBxfMI7xfe+21grWJR3cy4jWcXL/8mw2RrLUVX1vNgXn0l7G/+eabgTcb1l9//fDTn/40Wi8LLLBA0bHPnj07emMkvg/4ydsnJ554YnTNjBkzIh4c3AfDffbZp6o1kGyY+wK+8b1MW6wH7hGCvrPmuI+XWmqpaF3yJkYx7/c8ng2sm7fffnuee4h+DBgwIOojb+fcfffdUV/h2qVLl+g75ioZ3377bZg0aVK09nm+MM+MtdQ6ZA4/+eSTefjw//I666wT/V+LJRHrjf9DsC362c9+Fj3fSs1vRYveQhKQQIckoHjcIafdQUtAAhKQgAQkIIHKCCAKjBo1qqDw6aefnpnJWqzW3/zmNwGLhHQsu+yykeDFH7dGIYHevXtHfsfp6NGjR0CUR1ytJBAAN9tss4KiiPoIFs0a1YrHCKcIM7NmzQoIMnE8+eST0WF6yUBMee655yKRNA6yvE8++eR5yiEmIrAjssWBQIbQhlizxhprRJsjRx55ZPj6668j8RoBJxlJ8RiRiDYQOxGbEY0RxhCh2ZBhs+aMM84oKvom6506dWrA5xk/69NOOy306dMnLLnkkuGNN94Il112Wbj33nvDueeem5nlzVsFu+++e8QqDjzMEQcR7gYPHhw233zzwFsGiIbXXHNNJHYjCI4bNy46aJF2jz766MB9jFi93HLLhQceeCDyM0eQfPDBB8sKvwhsQ4cOjRifcsopkTDPoZrvvfdeJEQirrLBxNwgbheLasRjhFPmC6H797//fXRvIMRde+21YeTIkdGmzIgRI4oKbfD47W9/GzHmIEs+WPD861//Cqy1q6++OvrdMccc09LdmDfXJjfS0ptqX3zxRdQv1jKCZxy86cFcFItKxGPW8OGHHx6tZdZZz549o3aY12HDhkXr9uKLL442RrKCZwUCJGsm7jeC+1tvvRWJn/y/wLph3jksFRGdddOayLrv+P+Ie4k3JrA+6t+/f7TJwLPwggsuiN464N7hINe0SJrHs4G3OVg/yc29IUOGhDFjxkSbEtx7iN28ZYMQTlnWKT8pR7CBc/zxx0fiLvNLP1k/PA/23nvviGPWumczB6E5+Zxjs4f7nzdVELG322676FrW5CWXXBLdi/w/zMaOIQEJSKAaAorH1dCyrAQkIAEJSEACEuhgBPjj9fbbby8YNYedZWWyFsPDH/Xdu3ePMtLSUYvA0J6n44477gh77bVX5hDJNN1iiy0qHj7ZeyuttFJBebL0kuJhxRU2qGC14nHcLURcRKbrrrsu+lWWeMzvEV4QbA899NCoXJZ4zO8RyhBmdt5550jQQ9R86KGHwrbbbhsOOuigkPT2Hj16dEv2btyfWDxG0CGzmAxJBNN0sFHAdwhy1J/OUEyWZw3QHzIUEZqyBCb6yX3K5g2CVlaQAY2IzAYD4jGCM2LtlVdeGVZbbbWWS2CFwPXss8+G4cOHRwIVQjKZyvw+GYhh559/flQfGZLFsh1pm2zmzz//PMrezrJgIbN06623jjJ6GefSSy+dOY5KxeNLL700EhfJACXTOe3bjrB/zjnnRBnI8EsH4i4HMsKfNzMQY9PBhgTiMSJdvLbiMjwD+/btG4mG8drKGhCZ0XBkHoh6iMcIxmx0ZPnQI8CS6QqPiRMnlhSqEcn333//SCRmrSL8H3jggZFgyvwg/iPGk83Ns7+W4IBNNiZgymGY77//fmAO05thrCU2iNiMZO7Y4MjaXKv3s4GxIarTNmsDUZhNHJ7f9BMxN444q5i55XlChjH3JusoufYZK0IymdV8/4c//CETIZsAiOYI/wRvWJBpzP/PnTt3nueap556Knq2sHnBsyC5sVHL/HitBCTQMQgoHneMeXaUEpCABCQgAQlIoFUEEKay/IoRkLIyWUs1cvPNN0eZlllRrRjaqsHMRxfxBz4ZrVliO2Ig4kC1gYhBvelAWG6NVUK17bemfGvFY9pCiCVzmygmHvMdYjDt8LOYeBz3HYHngw8+iITfmTNntgh7ZADTFnUg0rBRkoxYPOZ3ZHaS9VosEF0RDREYEZCzAgGNrFHaI6ORzN9iQSYoGbKITMUEIyxQyPpFWESwvvDCCzMPykQMo++dOnWKBGYE3V/84hcFTfO6PHURiNL4nqcD4QvBjWcJc4UQXywQeREES9msVCIeU4YMYWwOyK5efvnlC5okixSRHzuCrHXD+OFQ6j5kDplnsmMRM9NBVjMZskSWnU9cHuE05lKrePzhhx+G1VdfPcrsRiBn7tLBRgBZ44ia9LuUxQHZsawBxGNsShhzvNnAOoMRa6+Y8Fl0sjO+oN/Tp0+PNkjYZCiWGY2NBPPLZgQbAGxyZEUezwY2Ch5//PHobQTsW2gDO5p0xBuyzANZxmQE86xPB/cgHBHgedawlrKCDH3sUgjeYkBwLvY84HnCxgfziq1FqUz2aubHshKQQPsnoHjc/ufYEUpAAhKQgAQkIIFWE0AMQKhKB9lN/EFfbZSyYcAXstgfyNW2M7+X57XsrExR/GtjD8tqx4igmSVkkdmZtlmotu68ytciHpPxGnuGlhKP6TsCDUJOOfEYoQwBEpsVsi7ZXIkDIRchMGsNx+Ix2YCIz6WCzEhsC7CEuPXWW6NX19PBq/D3339/JI4hkpUKxGXEKYQsRK2s7F6E5WOPPTYS58h05LX6rCCz9Oc//3n0ValDM9mkiDMusS3g7YJ0IFIiVmKNgSBYKmC75pprRkI52cAIyemoRDwmyxn7CARgxN1iQVY1awFxm7UTBxtpeAPTn1L3TZx5y3UImWkxL94g4PtS4jHtxWusVvEY710yzAk28Ti4Mh2xuMjvsS8hc7xYMA9sHCDA8xYEWeHJmDNnTqZ4WnKii3zJ84kNGtrDv71UcE9gF8FbFdi3ZAmzeTwb2NjA/oN7CFsURNqsiDPbyfDG+qTY/Zuci1L/35LhzXojimXCJ/vB/YZdD7YyzDH2M4YEJCCBcgQUj8sR8nsJSEACEpCABCTQgQlgdUBmajrwaG2NTzF/BCPAJf1j47rxVo5fv+3AyCP/TrJKk16WMQ+y1Mjma00gpCKapIPDzopl8rWmnXpeU4t4zKvkcCTKiceI8rxKXk48jkUsBCkyVyuNWDyO/WHLXYc4SrZt7P2bzGDE7iAW9chMxdKhXCC80l/sGrK8x8kOjT1YEcV5vT0rXnjhhZYsYnyByVguFohoCIhsgsR1x2W5/xHIeY2/Uv90slzJdkX04h5JRznxOCl8I7zvtNNORfsel0Xgw9YltgRBMEfoJtOWza5iEXu8wxGe6YjFen5fSjzm3sQvl6hVPCbzmAxV2CNes1mQDjYK4+zhRx55pGWjIGucbGxgW0Lgy4uNRV4R33fYbpBFXyrIPmZjk3FiTXLnnXcWFM/j2YAwj0BPVi9WHWS3ZwW2NvH/c2xkFPMfJiM/tiYqJeQnxeNiGyvJfmBDFW9Ikd2MZ7khAQlIoBwBxeNyhPxeAhKQgAQkIAEJdGACcUZmGgGZhYsvvniryMRZfemLyRRDAMrKjGxVQ/PpRcWsQhCReCW51KvkpYZMFiWWCung9WUOwWrGqEU8Toqs9RaPi4mCxRhWKx4nxUX8Z2P7DepPWh4gCJbyRY77w8FiZIZyyBbiWjqS4jGvwXfp0iVzKEkxk8zVYjY0XMz9TBZ1lgd00jaATNIs64t0B5LZulhK8Ip+MsqJx4hkcbYxGfgI6sUCrrFnLIfBIfonf1eJTzubbsU22JK8GyUeM1ZscPAGjjdV0uPn8MI4S7rc/CbF42LWJPV6plQjHtMmlilYpyD648+c9B3m+zyeDbF4jHDNJmmxiDPu+Z57kXsyK5KHnLJpE28ipMtWKx6TCR/bteBVnvV/Qr3mzXokIIH2Q0DxuP3MpSORgAQkIAEJSEACdSeQJVSSjZeVFVtp43iKIvzMmDGj4BIORCJ7q6MGh2MdccQRBcNnHhA88PNsbXC42gMPPFBwebkMw9a2V4/rmlU8Jgt27NixFQ+xWvE46Q+e9m7l8DAEZQKrjbQwltUpDtK69tpro6/wjk0ehMfvWiNmltt0iMVjLAR4PT8ZZHiziUSwJou94p+8huxWDmUjOAgx/ndcppx4jFBG9i5Bn0ptfvGMivtMFjLMsSTAmoCg77FnccWLIFGwNbxrzTxO9xPRGusNslrJokZkRYhknMRVV11VcNhfso6keIwVS/qAttZwKXZNteJxLORSH5niWDUkI0/xOG11kh5TLB5jb8PBeMUiKR5jM4FdSlZUKx5Tx3LLLRf5KPNGA2vdkIAEJFCOgOJxOUJ+LwEJSEACEpCABDooAbIGEYDSwR+eCA21RNLPMV1Pqdfma2mz2a8lUxFRnT/q01HOo7WSsZHdyWvN6ZgwYUKLKFZJPY0s06ziMcIiAmSlUa14zOvs+PMSZMzyenkcHHSG6MeGAt67lQQbEmxMEFmHXeYhZpYSj+ND5+hPuazweHxJQX3kyJHhxBNPnGfo5cTj2K+aza8sK4ksjqw/hEfGgp8stgkEAiC+5K2NPHiTgU5mcZZYn+wnz26yuDl0kzdIyKLHx5px8qbJyiuvHBWvRjyu5U2UShhWKx5z4CRjJLCtwL4iGXmKxxxwSGZ9sYjFY7yGs+yb4uvyFI+TFkZ4q2cdHFnJvFhGAhLoOAQUjzvOXDtSCUhAAhKQgAQkUBUBREyE4nTgVZqVNVxV5f+/MKfNc7BQOrCtQAjKEq6rbWN+Kn/QQQeF66+/vqDLvPrOa9D48tYShx12WCQIpQNRLvYuraX+PK5tVvEY4RIBs9KoVjwmG7xv375R9Rwqh/VDHBtuuGGL5y8bPLEfb6m+JOce65PkQX9cl4eYWUo8jj2Bafvhhx9uEcpLjQEbhf322y8qwoF+Q4cOnad4OfEYX2+ybAm8mFlb1QSZ22RwE7X6s+fBuxLxGCGVtYAnL9nfxxxzzDwZ2EnbimrE40rXYTW8k2WrFY/j+406svytO7p4HPOED17vxfyZWztfXicBCbQ/AorH7W9OHZEEJCABCUhAAhKoCwEOisr6oxIxkwPzag2y5Dh4jKy1dFSb2VlrX9r6el6t5jCurCBDcNCgQTV3kdf8efU/HRzMttdee9Vcfx4VNEo8Zp2z3is9MC9v8Th5qBVCI2JrHGSKIrgSlR5cyQFZ1Elk+azmIWaWEo8RX+PMYfq15557ll0+l156aSBjmcjy4y0nHmOJc++990bX4/vLYYTVRDIbvNbnU6W8kwcU1mpbwX0ebxJhTbHLLrsUDL+9iMdJaxeEYjZcklGNeFzpsyG2ymj2zGPeVuDeZAOlHm8RVXMPWVYCEph/CSgez79zZ88lIAEJSEACEpBA7gSyPI/xCs0SfFvTmfPOO68gg5B6EA1ff/310KNHj9ZUO19dw6vLeBkjfqVju+22C5MmTarLeIplejezTUgjxOMvvvgiLLPMMhHjZhGPsR4YPnx41Kc33ngjYFURR1J4TX9XbKHgl0rGMbYoHDaXjkrFzOSBeeXEzFLicfKVfA6xi0XhUgsdwZaMYyLLY7eceHzRRRe1iPDl+p7VDzI0V1hhhUh0w6M5yz+80hu1Ut6I3YjeRLk+l8o8pu+80cHbJBxyiPieFVhaMEYimXmM8IzYnHwbJOl53GyZx3h6v//++5EFBxsFWJUko1LxuJpnw/wiHk+bNi3atCXYtIk3lSpdu5aTgAQ6JgHF4445745aAhKQgAQkIAEJVEQAD0wO5UoHgieejbUGB+8hjGUJp1tssUWYPHlyrU00/fVJoTDZ2XoL6Hjokj2ZjqeeeipwmFgzRi3iMb7AseiKBykZgVmBlQGWBkTe4jGbIVOnTi2LOj7crWfPnuHll1+epzyiGK+dkyl99dVXt1gpFKsUYY8MQ34W88OtVMysl3jMYW0//vGPow2i/fffPzMjPj0e5u+Pf/xjZOeBZ3o6yonHn376acD3+PPPP48Ou4sP7Cs1GRdccEHkB7zuuutGxegrbwKw2cBBZeUsQ3ijALEu/eZAMosaFsVizJgxLd7KtYjHSb/oUjY1SVE/KR6ziXXHHXe0CMv0ty3EYyw3Yu/uYsxefPHFFluWY489tsX7OFk+j2dDM4jHWRn5aU7JDVsy0Pv371/2eWQBCUhAAorHrgEJSEACEpCABCQggaIEOnXqFBBd0sHrzUsvvXRdyJWybLjuuusCdgvtNfCORlDMyuQ++eSTIzGzXoEtBqzTgSAYi6f1aqte9dQiHrNuWb9EKV9dhMQRI0ZE5c4888xwyimnFO1+7BXaWtsKREfsWsjeLxZJMRvvY8TLdMRiLyIz4n+pGDduXDjggAPCRhttFLBByNr0abR4TH9Zd5tttlnEgkziOPs7ayzvvfdelC255JJLRoJz165dC4qVE4+5gOfJwQcfHFZfffUoA7vUBhjrB2ZvvfVWS9+SAjQeyPiUlwqydVlbm2yyyTzFyOQdOHBg9LtSWbu9e/duOXzt6aefDltttVXR5kplHseHtHFxqXouu+yyMHjw4KiNsWPHhl/+8pfRv7fZZpuA0Ljsssu2tN8W4jEHvSEOl4rddtst6ivr6Z133gkrrbRSQfE8ng3NIB5zUCDicLFgrbH2eQZ1lM3ZkovFLyUggYoJKB5XjMqCEpCABCQgAQlIoOMRQLAhcy4dH374YUCsqFdwEBViTDrwV0YASIoW9WqzGerh9fesLEpeMWfc5TIbqxlD8qC15HWIbt27d6+mqoaU/e9//zvPoWYIHrEYXGkHunXrFh02ePnll4cjjjii4DJe599pp50iIZH6hw0bFh2GViwQLREyjzvuuIAgV2nEB3hxPdmrCNZZQRbqzjvvHLASKeWri28pgh7ZqLfcckuLEJmukyxbNgYQZ7GtIJM5K5LZ72xkFBO3aS/OUn/ssccC3rJZwRsFiy66aKCf55xzTosFR7osGyR8Dx+ycYsxGTBgQLj77rsD1hNHHXVUZrlXX321ZXylMs3JXEaUL7dRcOihh0biNtmuybjmmmsC3+GZ/Nprr2WKk5SnD1dccUU0P+kgexxrBYJM9Cx7nmeffTbKjp44cWJUrpy9DM9INvUQq0877bR5muQZw7OGuPDCC8PRRx9d0CfmHc4cpscbHxwIGftSM+eIzsmIhXh+h71DrQd6Zk7q//4y3rTBRomx8BZFVvBmBfNLOSw/uLeLRb2fDfG6wiLmueeeK9ouG4LMK3385ptvih7c+OSTTwYyvgk2/TbffPPMOsmAj/27selgU4ZDbbMivt8Q1BHhu3TpUgq730lAAhJoIaB47GKQgAQkIAEJSEACEihKAC9efFXTQXYkWXn1Crw4yYjiZzoOP/zwSIRpb4EYRrZaVpQTilrDolgWedYBaq2pv9Zr/vnPf0ZiI56y9InNBETfOPbbb79IZETwQFTHxxQ7hrSfabIfHBBI5vqmm24aiXnJAyDxdyUjd/To0VF2LwIrddMu3sAIMbSDMIZ1C2IeB88hjCI8kZnJT7Jh8YnN8geP+0K/6QtCPaJwr169wjHHHDMPMmwoELixRTjppJOirPNSdX722WfR+uFepM/pQw8RKOkvr+gjYMbiYdwonLnfyMLkHmN8xPnnnx95ocJq+eWXDwjatAUHPIdj2wC4kqVNhiebPPQVsRpW9913X0sGK2Pl/l1llVWiTSBE5ThgOWTIkIDvMWM+/fTT58kGRtBELGZ8fJdlNcGhgWwCkD3Nh2Azivp4OyLuW9wmAivjQ5RFND/hhBPmWUPUxdwghmJbkRUIqwhx2KJwH7MOksH9CxuEzmIbHvGGWZZwjhDO9WeffXbLc5Y1SrsIhWzcwZv5gzdrm00Jgs0CeFEu5s0cshawnoAH4mayz4wZ32nWEBuDrENsRRCMef6Tkcz6ZUOHOeZeJcuVcRL4c3Mv0R7csg5areX5EIvHiNu8rcG9kc7Iv+uuuyI/Z7LJuYfIQC4V9Xg2wB6xnc0n7kWeKYydvrBZh+0Tn/heQ+glm5uNHIL1yph4hqTvNeYaWxqCa3huJO+1eGxJ8Zh7BZsbhH2eYclgY4xnHRvC999/b4PqSQAAHNRJREFUf2R9Y0hAAhKolIDicaWkLCcBCUhAAhKQgAQ6IIHkqfXJ4SNCcABbPQOPzXSWX1w/r9unX/2uZ9uNrgtRjGxDhJB0IEIgPtQzyHArlk2KILTQQgvVs7mq60JERKjFpoK+IAjHwmn8EwEs/lAeQYYs4M6dO5dsj4PNyLRk/GQikvGJOIeQi5hCdimZ3ojHyYgzejmwjCxbRCn6wifuRyx2M4+lsqIRCMn2I+OYaxCGEC+33nrrSKRGfKI9PHkRxkrZEyT7yNwhYiPqUs8OO+wQCVFkxNJnbBPIsGV86YAL9zDMY95JvlxDVixiK31H9GVukvMRz0M8fjaUyJiPy8WsGDM+6XiyZj03yBj93e9+F/kII/ohfE6fPj1MmDAhrL/++hET5ikd8bph7cTzQxnGARvWPXXGh8DF19MfMoiZB8YON8b7t7/9Lcq6JXt3n332KbmuyAZFNEUIJEOUDQrua3yD2QhDhEcQLBb0jyxgsoS5luxexEHaZ20juLOhsOaaaxZUEWfhs354NjKHybXJ+Bg7/sYxb5iw3snwRnDHcgMvZzhTB1nGZM9y7a9+9atoXXHPkPF65513Rhs1ZLVid8BaSN6j8bphjrEFKZZFXvWD4X8viMVj+kWmOhsOiNhk+SLWkqX7+OOPRwIu6z3L1iSr7VqfDQiyZMOn+cfrjw0vNluw0cCmpNi9xnpBpEeUZ2Og1L3GAYDJ9ZwUj3mGsKGBsM/ziI0E1iTzx7OS5xB9RtA2JCABCVRDQPG4GlqWlYAEJCABCUhAAh2MQPy6fXrYiFVDhw6tOw1ElCxPSzKgybBsa5GzXgOOs8DS9S2xxBKRqJkl9tXSNmIimYTpQLTA1qG9B0Id9iuIg2TRwhcP6NjzFpESoQxRJv4g5JXK/K2VGdmeZAmSIUybWErEr5+3pm68gBFu8TUly5eMX4Tk+SlgwTjI4ESwhkm1ViXVjpd7A24ItoiOcKvmOcOmw5QpU6I+M38IdmmxulSfEIj/+te/RmsTwRehNL5XyWpF4IzXJFnD/LuWzF6ETcaMaIywiDgN5/SY42xzMlXbOpLiMVnQBCIq3BFc4/XeGi7N+GyohndaPI69tPl/hLcOEPTZMGPztZp1XU0fLCsBCbR/AorH7X+OHaEEJCABCUhAAhJoNYHkQUvJSnitOWkp0OoGUhciHCFkkFGYDjL5jj322Ho11Wb18Ec92WFZY8xLlEcc5fXodJBxSdanIQEJSKBZCWSJx83a10b3q5h43Oh+2J4EJNC+CSget+/5dXQSkIAEJCABCUigJgK8bpvlHZmn6MhhZGPGjCnoN16avN5fS3ZmTTDqdDEZr7zyng5sLN58881cssOKbQKUOqisTsO1GglIQAI1EVA8Lo5P8bimpeXFEpBAhQQUjysEZTEJSEACEpCABCTQEQkgZuI5mg5eZeY16zyCV7W7d+8e8PVMBwdd3X777Xk025A68Vk99NBDM9vC6xQ/0Txi8ODB0aFX6UBURqw3JCABCTQrAcXj4jOjeNysq9Z+SaB9EVA8bl/z6WgkIAEJSEACEpBAXQkUO2iNw5JmzpwZyAbOIxCI995778yqJ02aFB1QNb8FvPAY5mc6OGQKYTmv4NCr5557rqB6Msv79++fV7PWKwEJSKBmAmuttVbkC/3LX/4yOsjP+D8Cf//738Oqq64a/eLGG28MgwYNEo8EJCCBuhNQPK47UiuUgAQkIAEJSEAC7YsA/rwcvJOOvIXH3r17hyeeeKKgXbKe6c9iiy02X4FG+Lj66qsL+rzssstGB3ZxGFYewQFqiPwcDJUODp2a321A8mBmnRKQQHMQ4EC8Ll26BA4W3GyzzSLLnzwPsmyOUVfei4ceeij069cvuoCDWEeNGlX5xZaUgAQkUCEBxeMKQVlMAhKQgAQkIAEJdFQCxSwPOLyOQ+zyinfffTesu+66gezndJx66qnhjDPOyKvputeL4IHXcVZceeWV4bDDDqt7m3GFjzzySOjbt29B/Xlaj+Q2GCuWgAQ6BIHjjz8+PPnkk5HP/VdffdUy5pVXXjmsttpq4eijjw77779/h2CRNchtt902IKxzAOvcuXNbinTr1i2ssMIK0ZssbPwaEpCABOpBQPG4HhStQwISkIAEJCABCbRjArfddlsYOHBgwQh79uwZXn755VxHfvrpp4fTTjutoI1FFlkkTJ06NSCANnt8++230R/x/JGfjk022SS88MILuQ5h+PDh4dxzzy1o45BDDsnMhM61M1YuAQlIoAICPBe/+OKLwLOeTGM+33//ffjuu+/CnDlzIgugNddcs4Ka2meRRx99NCy88MLRJ+YDGz5suPbq1Ssst9xy7XPwjkoCEmg4AcXjhiO3QQlIQAISkIAEJDB/ESC7KctSIW/fYyjxRzDZx2QhpwPfY/yPmz3OO++8MHTo0IJuLrTQQuGVV14JG2ywQa5DKOZ3fP3114cDDjgg17atXAISkIAEJCABCUhg/iageDx/z5+9l4AEJCABCUhAAg0hsPbaa2dmzo4bNy7st99+ufYB32P8j7Ni/PjxYd999821/VoqnzFjRujRo0eYPXt2QTVDhgwJY8aMqaX6std++umnYZVVVglkP6dDv+Oy+CwgAQlIQAISkIAEOjwBxeMOvwQEIAEJSEACEpCABMoTOOKIIwLevOnAS5cDe/IObDOwz0gHGdFkJXMgXDPGgAEDwoQJEwq6xiF1eHnm3e8LLrgg4E2djq5du4Zp06Y1IzL7JAEJSEACEpCABCTQRAQUj5toMuyKBCQgAQlIQAISaFYCDz74YNhpp50Kuof1wt///vfQqVOnXLv+8ccfh+7du4cvv/yyoJ0jjzwyXHzxxbm235rKEdX79euXeSlC+F577dWaaqu6Bk/ll156qeCa3/zmN+EPf/hDVXVZWAISkIAEJCABCUig4xFQPO54c+6IJSABCUhAAhKQQNUEsD3A/gAbhHQgQiJG5h3Fsmg5LOj5558PCKXNEng1r7XWWgHbinQ0yquZjOxu3bplIuEwqmbi1SzzZj8kIAEJSEACEpCABOYloHjsipCABCQgAQlIQAISqIgA9gcIuOnYdNNNI/E270DA7tmzZ3j99dcLmuLQuSlTpkSnzjdDnHTSSWHkyJEFXVlsscXCn//857DGGmvk3s1TTz01nHXWWQXt4F/91ltv5d6+DUhAAhKQgAQkIAEJzP8EFI/n/zl0BBKQgAQkIAEJSKAhBF5++eWw8cYbZ7bVqEzWF198MSBWZwXWFVhYtHX85S9/CYjZc+fOLejKaaedFkaMGJF7F+fMmRM6d+4cPvvss4K2zjnnnDB8+PDc+2ADEpCABCQgAQlIQALzPwHF4/l/Dh2BBCQgAQlIQAISaBiB9dZbL8qcTUf//v3DPffc05B+HH744WHs2LEFbXH4HFYNHKLXlrHllluGZ555pqALZBvDjuzjvOPSSy/NFNLJzP7ggw8iCxJDAhKQgAQkIAEJSEAC5QgoHpcj5PcSkIAEJCABCUhAAi0ELrvssjB48OACIoiSr732Wlh//fVzpzVz5szITzgrq3bfffcN48ePz70PxRq44YYbwoEHHpj59aRJkwJ+x3nHf//739ClS5fw0UcfFTS12267hQkTJuTdBeuXgAQkIAEJSEACEmgnBBSP28lEOgwJSEACEpCABCTQCALYIay66qrhH//4R0FzAwcODLfccksjuhGuvfbacMghh7SpSJtuvJSovffee4dbb721zdm89NJL4Sc/+UlD+mEjEpCABCQgAQlIQALzPwHF4/l/Dh2BBCQgAQlIQAISaCiB0aNHh2HDhhW0ueCCC0YHsXXv3r0h/SllDzF16tSwyCKLNKQfcSO/+tWvwhVXXFHQJnYab7/9dvjhD3+Ye3++++67wIF477zzTkFbffr0CY8//njufbABCUhAAhKQgAQkIIH2Q0DxuP3MpSORgAQkIAEJSEACDSHw5ZdfhtVWWy18/vnnBe3tuOOO4cEHH2xIPziYDg/mb7/9tqC9M844I5x66qkN6QeNcJBfr169wvfff1/Q5gUXXBCOOeaYhvSlmNcxjSMcIyAbEpCABCQgAQlIQAISqJSA4nGlpCwnAQlIQAISkIAEJNBC4He/+10488wzM4ncddddYffdd28IraFDh4bzzjuvoC0OpeNwOg6pyzsQr3v27Blef/31gqY22GCD8Morr4SFFloo726Ejz/+OPKC/uqrrwrawqoCywpDAhKQgAQkIAEJSEAC1RBQPK6GlmUlIAEJSEACEpCABCICZB8jzGYdWoc9AzYN2DXkHbNnz476gXCaDg6n45C6vIPM4mOPPbagGQ4RfP7558Mmm2ySdxei+vFVvv322zPbmjx5cthiiy0a0g8bkYAEJCABCUhAAhJoPwQUj9vPXDoSCUhAAhKQgAQk0FAC119/fTjooIMy28SmAVG1ETFhwoQwYMCAzKYQU/fcc8/cuoFojcczYno6Dj/88EwP5Dw688gjj4S+fftmVr3PPvuEm2++OY9mrVMCEpCABCQgAQlIoJ0TUDxu5xPs8CQgAQlIQAISkECeBPD5feGFFwqaIOt24sSJgezfRkS/fv3CQw89VNBU3lnQxbJ9V1xxxejQumWXXTb34f/zn/+MvJ8/+eSTgraWWGKJ8O677zbksL7cB2oDEpCABCQgAQlIQAINJ6B43HDkNigBCUhAAhKQgATaD4HXXnst4KebdWjdCiusEN58883QqVOn3Ac8Y8aMyO/3m2++KWhryJAhYcyYMXXvwxNPPBF69+6dWe91110XDjzwwLq3ma6QA/row5NPPpnZ1ujRo8MJJ5yQez9sQAISkIAEJCABCUigfRJQPG6f8+qoJCABCUhAAhKQQMMIYFFx4YUXZra35ZZbhqeeeiosuOCCuffn7LPPDqecckpBOxxWx6F1HF5Xr0CkXnfddaOs3nTgLYzHcCOCQws5vDArevToER3it8giizSiK7YhAQlIQAISkIAEJNAOCSget8NJdUgSkIAEJCABCUigkQRmzZoVNtpoo8imIStOOumkgLCbd8ydOzesvfbamYIuh9Zl2Wu0tk8Itgi36UCoRbBFuM07nn322bDVVluF7777rqCphRdeOLz44ovhxz/+cd7dsH4JSEACEpCABCQggXZMQPG4HU+uQ5OABCQgAQlIQAKNIoA9BfYVc+bMKWgS/+Nrrrmm6OF69exjKSuJK664InCIXa1BtjEiNWJ1OoYNGxZGjRpVaxNlr3/rrbci4fhf//pXZllsOrDrMCQgAQlIQAISkIAEJFALAcXjWuh5rQQkIAEJSEACEpBAC4HLL788/PrXv84kgm3FbbfdFvbYY4/ciQ0aNCjcdNNNBe1weB3Z0RxmV0vgMYxInY4f/ehH4S9/+UvgkLo8Y9q0aeGnP/1p+Mc//pHZTN++fTMPD8yzT9YtAQlIQAISkIAEJNA+CSget895dVQSkIAEJCABCUigTQgMGDAgTJgwIbNtrBQeeOCB8POf/zzXvn322WdhjTXWCF9++WVBOxxix2F2rQ1EacTprGDcu+22W2urrui6jz76KBKOOSAwKzp37hzeeOONgFBuSEACEpCABCQgAQlIoFYCise1EvR6CUhAAhKQgAQkIIEWAgi2G264YZg+fXomlcUXXzxMnDgxcKhcnnHxxReHo48+OrMJDrNrTfuMDVEacTodO+64Y3jwwQfzHFJkUbHZZpsV9ZZGnH/mmWfCpptumms/rFwCEpCABCQgAQlIoOMQUDzuOHPtSCUgAQlIQAISkEBDCGDdgDhbzI/3Bz/4QbjvvvvCtttum1t/vv/+++iwOA6vSweH2fF7DrerJo466qhwySWXFFyy2GKLRYIuthV5BRYVffr0yRxP3Ob48ePDvvvum1cXrFcCEpCABCQgAQlIoAMSUDzugJPukCUgAQlIQAISkEDeBKZMmRJ+9rOfZVpH0DaC6x133BF23nnn3Lry4osvhl69egWE5HSMHDkynHjiiRW3Xaquc845JwwfPrziuqot+N5774Vtttkm8LNYXHnlleGwww6rtmrLS0ACEpCABCQgAQlIoCQBxWMXiAQkIAEJSEACEpBALgSwUCBb9uuvv86sn0P0OGQvT9Fz8ODB4bLLLiton0PtyJCuJFs4jyzmSoG/+uqrkUd0scPxqGf06NHhhBNOqLRKy0lAAhKQgAQkIAEJSKBiAorHFaOyoAQkIAEJSEACEpBAtQQeffTRsMsuu4Q5c+YUvfTMM88Mp5xySrVVV1R+5syZYa211qrJpzgP/+RKOv/HP/4x9OvXL8yaNato8ZNOOimcffbZlVRnGQlIQAISkIAEJCABCVRNQPG4amReIAEJSEACEpCABCRQDQH8jfv371/ykn322SdcddVVYamllqqm6orKjhs3LhxwwAGZZe++++6w6667Fq3n448/Dt27d8+039hvv/0CdecRY8aMCccdd1zJqjkQ8MILL8yjeeuUgAQkIAEJSEACEpBAREDx2IUgAQlIQAISkIAEJJA7gcmTJ4cdd9yxqAcyHSBD+J577gnrrLNO3fuz5ZZbBmw00oFtBfYV2FhkBQfQ3XzzzQVf/c///E949913w4orrljXvn755ZcBUfree+8tWe8ZZ5wRTj311Lq2bWUSkIAEJCABCUhAAhJIE1A8dk1IQAISkIAEJCABCTSEwOuvvx6233778OmnnxZtDxGXDGRE23oGAvEGG2wQ5s6dW1DtsGHDwqhRowp+/8QTT4TevXtnduOSSy4J+CnXM1555ZWwxx57hGnTphWtFp/oG264IQwaNKieTVuXBCQgAQlIQAISkIAEMgkoHrswJCABCUhAAhKQgAQaRmD69Olhu+22C/wsFbvttltAoF1llVXq1rfhw4eHc889t6C+hRZaKLz55puhR48eLd8hMq+99tpRdnE6Ntlkk/D888+HBRZYoC59++abbwKZxOedd15Jb+jFFlssTJgwIcrgNiQgAQlIQAISkIAEJNAIAorHjaBsGxKQgAQkIAEJSEACLQTIPCYDmUzkUoH/8emnnx6GDBkSEHhrjdmzZ0cC8YwZMwqq2mKLLQLWGnEg5o4YMaKgHILxlClToizmesSkSZPCoYceWlZMxybjkUceCZtvvnk9mrUOCUhAAhKQgAQkIAEJVERA8bgiTBaSgAQkIAEJSEACEqgngVmzZoWDDz443HbbbWWrXXfddcO1114bevXqVbZsuQIPPfRQ6NevX2axa665JuoT2ca0SUZwOo466qhw0UUXlWum7PccxMeBd3fccUfZsuutt17kBd2tW7eyZS0gAQlIQAISkIAEJCCBehJQPK4nTeuSgAQkIAEJSEACEqiKwPXXXx+OPPLI8J///KfkdWT87rLLLtEhcdhG1BK77rpr5oF0HH73zjvvhAEDBgT8jtPB9wjLZAG3Nj766KPIX3ns2LEBAb1c4Kt8/vnnBywrDAlIQAISkIAEJCABCTSagOJxo4nbngQkIAEJSEACEpDAPAQ4zI6D4vAdriSwvDj55JPDtttuW0nxgjLYVmBfgY1FOvr06RMmTpyYWe/48eNbfZDf+++/H84666yAWD5nzpyy/V5mmWUC7e20005ly1pAAhKQgAQkIAEJSEACeRFQPM6LrPVKQAISkIAEJCABCVRMAEF15MiR0SfLLiKrIuwc9t9//+hT7cF6HJzHAXqVBof84U9cTZBNfdddd4Vx48ZFgvR3331X0eV77rlnZI3xwx/+sKLyFpKABCQgAQlIQAISkEBeBBSP8yJrvRKQgAQkIAEJSEACVRP429/+Fg455JDw1FNPVXztggsuGLbZZptIRN5rr73CD37wg7LXzp07Nzr0jqzncrHIIouEqVOnhjXWWKNc0UggfvTRR8ONN94YJkyYUJE1RVzpj370o3DdddeF3r17l23HAhKQgAQkIAEJSEACEmgEAcXjRlC2DQlIQAISkIAEJCCBqgjcdNNN4bjjjguffPJJVdctuuiikScyYvLWW28dttpqq6Ji8jPPPBO23HLLsvVjkYHlRFZ8++234YUXXojEbj6TJ08OM2fOLFtnsgDi9PHHHx9GjBgRFl988aqutbAEJCABCUhAAhKQgATyJKB4nCdd65aABCQgAQlIQAISaDUBbB8uvfTSyMri888/b3U9G2+8cVh77bXDmmuuGbp16xb95LPSSiuFAw88MNxwww1F6+7atWuYNm1a5I/89ttvh7/+9a+B7Gh+crjec889F77++utW9+2II44IJ554YqAdQwISkIAEJCABCUhAAs1GQPG42WbE/khAAhKQgAQkIAEJzEMA4fbyyy8P+BR/+umndaNDli8C8ocffhjIIM6Kzp07h6+++ir8+9//rlu7VHTkkUdGovGqq65a13qtTAISkIAEJCABCUhAAvUkoHhcT5rWJQEJSEACEpCABCSQGwEO0hs7dmwYNWpU+OCDD3JrJ6+Kl1hiiRBnGnfq1CmvZqxXAhKQgAQkIAEJSEACdSOgeFw3lFYkAQlIQAISkIAEJNAIAmQJP/744+HWW2+NDqWr1mO4EX2M21h44YXD9ttvHwYOHBgGDBgQll566UY2b1sSkIAEJCABCUhAAhKoiYDicU34vFgCEpCABCQgAQlIoK0JPPDAA2H8+PHh4YcfrskbuZ7jQDAeNGhQ2HXXXcNyyy1Xz6qtSwISkIAEJCABCUhAAg0joHjcMNQ2JAEJSEACEpCABCSQJ4Hvv/8+vPrqq2HixIlRZvLTTz8dZs2alWeTUd0LLrhg4FC+Pn36RJ+tttoq4KdsSEACEpCABCQgAQlIYH4noHg8v8+g/ZeABCQgAQlIQAISKEpg8uTJ4Z133gnvvfdeePfdd8P06dOjz/vvv181NQ7X69q1a/RZffXVW35uvvnmYZlllqm6Pi+QgAQkIAEJSEACEpBAsxNQPG72GbJ/EpCABCQgAQlIQAK5EPjPf/4T+JCdzId/z549Oyy66KJhqaWWCksuuWTLT72Kc5kCK5WABCQgAQlIQAISaHICisdNPkF2TwISkIAEJCABCUhAAhKQgAQkIAEJSEACEpBAWxBQPG4L6rYpAQlIQAISkIAEJCABCUhAAhKQgAQkIAEJSKDJCSgeN/kE2T0JSEACEpCABCQgAQlIQAISkIAEJCABCUhAAm1BQPG4LajbpgQkIAEJSEACEpCABCQgAQlIQAISkIAEJCCBJiegeNzkE2T3JCABCUhAAhKQgAQkIAEJSEACEpCABCQgAQm0BQHF47agbpsSkIAEJCABCUhAAhKQgAQkIAEJSEACEpCABJqcgOJxk0+Q3ZOABCQgAQlIQAISkIAEJCABCUhAAhKQgAQk0BYEFI/bgrptSkACEpCABCQgAQlIQAISkIAEJCABCUhAAhJocgKKx00+QXZPAhKQgAQkIAEJSEACEpCABCQgAQlIQAISkEBbEFA8bgvqtikBCUhAAhKQgAQkIAEJSEACEpCABCQgAQlIoMkJKB43+QTZPQlIQAISkIAEJCABCUhAAhKQgAQkIAEJSEACbUFA8bgtqNumBCQgAQlIQAISkIAEJCABCUhAAhKQgAQkIIEmJ6B43OQTZPckIAEJSEACEpCABCQgAQlIQAISkIAEJCABCbQFAcXjtqBumxKQgAQkIAEJSEACEpCABCQgAQlIQAISkIAEmpyA4nGTT5Ddk4AEJCABCUhAAhKQgAQkIAEJSEACEpCABCTQFgQUj9uCum1KQAISkIAEJCABCUhAAhKQgAQkIAEJSEACEmhyAorHTT5Bdk8CEpCABCQgAQlIQAISkIAEJCABCUhAAhKQQFsQ+H9FUM2iF1+vZAAAAABJRU5ErkJggg==;" vertex="1" parent="mArjfMj6Zx0obR91mqi0-14">
          <mxGeometry width="1200" height="709.2101103673873" as="geometry" />
        </mxCell>
        <mxCell id="mArjfMj6Zx0obR91mqi0-2" value="" style="ellipse;whiteSpace=wrap;html=1;fillColor=#000000;fillStyle=auto;gradientColor=#292929;strokeColor=#616161;" vertex="1" parent="mArjfMj6Zx0obR91mqi0-14">
          <mxGeometry x="399.99820113528597" y="290.93139534883727" width="16.493258380636913" height="16.976744186046513" as="geometry" />
        </mxCell>
        <mxCell id="mArjfMj6Zx0obR91mqi0-3" value="&lt;font style=&quot;font-size: 22px;&quot;&gt;$$\textrm{Probe}$$&lt;/font&gt;" style="text;html=1;align=center;verticalAlign=middle;whiteSpace=wrap;rounded=0;" vertex="1" parent="mArjfMj6Zx0obR91mqi0-14">
          <mxGeometry x="399.99820113528597" y="240.0011627906977" width="98.95955028382149" height="50.93023255813954" as="geometry" />
        </mxCell>
        <mxCell id="mArjfMj6Zx0obR91mqi0-4" value="&lt;font style=&quot;font-size: 22px;&quot;&gt;$$\textrm{Grid}$$&lt;/font&gt;" style="text;html=1;align=center;verticalAlign=middle;whiteSpace=wrap;rounded=0;" vertex="1" parent="mArjfMj6Zx0obR91mqi0-14">
          <mxGeometry x="550.5119782288989" y="424.4186046511628" width="98.95955028382149" height="50.93023255813954" as="geometry" />
        </mxCell>
        <mxCell id="mArjfMj6Zx0obR91mqi0-5" value="&lt;font style=&quot;font-size: 22px;&quot;&gt;$$\textrm{Magnets}$$&lt;/font&gt;" style="text;html=1;align=center;verticalAlign=middle;whiteSpace=wrap;rounded=0;" vertex="1" parent="mArjfMj6Zx0obR91mqi0-14">
          <mxGeometry x="940.1157276963041" y="84.88372093023257" width="98.95955028382149" height="50.93023255813954" as="geometry" />
        </mxCell>
        <mxCell id="mArjfMj6Zx0obR91mqi0-6" value="" style="curved=1;endArrow=classic;html=1;rounded=0;exitX=0.5;exitY=1;exitDx=0;exitDy=0;" edge="1" parent="mArjfMj6Zx0obR91mqi0-14" source="mArjfMj6Zx0obR91mqi0-5">
          <mxGeometry width="50" height="50" relative="1" as="geometry">
            <mxPoint x="544.2775265610181" y="492.3255813953489" as="sourcePoint" />
            <mxPoint x="918.674491801476" y="154.4883720930233" as="targetPoint" />
            <Array as="points">
              <mxPoint x="973.102244457578" y="152.79069767441862" />
              <mxPoint x="940.1157276963041" y="152.79069767441862" />
            </Array>
          </mxGeometry>
        </mxCell>
        <mxCell id="mArjfMj6Zx0obR91mqi0-7" value="&lt;font style=&quot;font-size: 22px;&quot;&gt;$$\textrm{Magnets}$$&lt;/font&gt;" style="text;html=1;align=center;verticalAlign=middle;whiteSpace=wrap;rounded=0;" vertex="1" parent="mArjfMj6Zx0obR91mqi0-14">
          <mxGeometry x="940.1157276963041" y="475.3488372093024" width="98.95955028382149" height="50.93023255813954" as="geometry" />
        </mxCell>
        <mxCell id="mArjfMj6Zx0obR91mqi0-8" value="" style="curved=1;endArrow=classic;html=1;rounded=0;exitX=0.5;exitY=0;exitDx=0;exitDy=0;" edge="1" parent="mArjfMj6Zx0obR91mqi0-14" source="mArjfMj6Zx0obR91mqi0-7">
          <mxGeometry width="50" height="50" relative="1" as="geometry">
            <mxPoint x="989.5955028382149" y="434.60465116279073" as="sourcePoint" />
            <mxPoint x="921" y="441" as="targetPoint" />
            <Array as="points">
              <mxPoint x="973.102244457578" y="451.58139534883725" />
              <mxPoint x="950" y="440" />
            </Array>
          </mxGeometry>
        </mxCell>
        <mxCell id="mArjfMj6Zx0obR91mqi0-9" value="" style="rounded=0;whiteSpace=wrap;html=1;strokeColor=none;" vertex="1" parent="mArjfMj6Zx0obR91mqi0-14">
          <mxGeometry x="263.89" y="16.98" width="197.92" height="121.02" as="geometry" />
        </mxCell>
        <mxCell id="mArjfMj6Zx0obR91mqi0-10" value="" style="rounded=0;whiteSpace=wrap;html=1;strokeColor=none;" vertex="1" parent="mArjfMj6Zx0obR91mqi0-14">
          <mxGeometry x="725.7" y="16.98" width="164.93" height="120.02" as="geometry" />
        </mxCell>
        <mxCell id="mArjfMj6Zx0obR91mqi0-11" value="&lt;font style=&quot;font-size: 22px;&quot;&gt;$$\textrm{Heating fillament}$$&lt;/font&gt;" style="text;html=1;align=center;verticalAlign=middle;whiteSpace=wrap;rounded=0;" vertex="1" parent="mArjfMj6Zx0obR91mqi0-14">
          <mxGeometry x="610.2505600835658" y="203.72093023255815" width="247.39887570955372" height="50.93023255813954" as="geometry" />
        </mxCell>
        <mxCell id="mArjfMj6Zx0obR91mqi0-13" value="" style="curved=1;endArrow=classic;html=1;rounded=0;exitX=0.5;exitY=1;exitDx=0;exitDy=0;" edge="1" parent="mArjfMj6Zx0obR91mqi0-14" source="mArjfMj6Zx0obR91mqi0-11">
          <mxGeometry width="50" height="50" relative="1" as="geometry">
            <mxPoint x="709.2101103673873" y="322.55813953488376" as="sourcePoint" />
            <mxPoint x="834.5588740602279" y="269.93023255813955" as="targetPoint" />
            <Array as="points">
              <mxPoint x="742.1966271286611" y="271.6279069767442" />
              <mxPoint x="791.6764022705719" y="271.6279069767442" />
            </Array>
          </mxGeometry>
        </mxCell>
      </root>
    </mxGraphModel>
  </diagram>
</mxfile>
